<svg width="56" height="57" viewBox="0 0 56 57" fill="none" xmlns="http://www.w3.org/2000/svg">
<path d="M25.9 20.5779C25.452 21.0931 25.2 21.8043 25.2 22.5183C25.2 22.8897 25.0525 23.2457 24.79 23.5083C24.5274 23.7709 24.1713 23.9183 23.8 23.9183C23.4287 23.9183 23.0726 23.7709 22.8101 23.5083C22.5475 23.2457 22.4 22.8897 22.4 22.5183C22.4 21.1939 22.8508 19.8023 23.8 18.7271C24.7716 17.6239 26.208 16.9183 28 16.9183C29.792 16.9183 31.2284 17.6239 32.2 18.7271C33.1492 19.8051 33.6 21.1911 33.6 22.5183C33.6 23.8903 33.2752 24.9543 32.7544 25.8503C32.298 26.6315 31.7016 27.2503 31.2284 27.7459L31.1108 27.8663C30.59 28.4123 30.1896 28.8575 29.8956 29.4175C29.6156 29.9523 29.4 30.6607 29.4 31.7387C29.4 32.1101 29.2525 32.4661 28.99 32.7287C28.7274 32.9912 28.3713 33.1388 28 33.1388C27.6287 33.1388 27.2726 32.9912 27.0101 32.7287C26.7475 32.4661 26.6 32.1101 26.6 31.7387C26.6 30.2491 26.908 29.0871 27.4148 28.1183C27.9104 27.1747 28.5628 26.4831 29.0892 25.9315L29.1508 25.8671C29.6772 25.3155 30.0524 24.9235 30.3352 24.4391C30.6012 23.9827 30.8 23.4059 30.8 22.5183C30.8 21.8043 30.5508 21.0903 30.1 20.5779C29.6716 20.0935 29.008 19.7183 28 19.7183C26.992 19.7183 26.3284 20.0935 25.9 20.5779ZM28 39.9119C28.2635 39.9219 28.5262 39.8786 28.7725 39.7847C29.0188 39.6907 29.2437 39.5481 29.4336 39.3652C29.6235 39.1824 29.7745 38.9631 29.8777 38.7205C29.9809 38.4779 30.0341 38.217 30.0341 37.9533C30.0341 37.6897 29.9809 37.4288 29.8777 37.1862C29.7745 36.9436 29.6235 36.7243 29.4336 36.5415C29.2437 36.3586 29.0188 36.216 28.7725 36.122C28.5262 36.0281 28.2635 35.9848 28 35.9947C27.4802 35.9947 26.9817 36.2012 26.6141 36.5688C26.2465 36.9364 26.04 37.4349 26.04 37.9547C26.04 38.4746 26.2465 38.9731 26.6141 39.3407C26.9817 39.7082 27.4802 39.9147 28 39.9147V39.9119ZM5.60001 28.1183C5.60124 23.2235 7.20579 18.4637 10.1683 14.5671C13.1307 10.6704 17.2881 7.85145 22.0043 6.54127C26.7206 5.23108 31.7363 5.50182 36.2841 7.31208C40.832 9.12235 44.6617 12.3725 47.1875 16.5654C49.7133 20.7582 50.7962 25.6631 50.2705 30.5297C49.7448 35.3962 47.6394 39.9567 44.2765 43.5134C40.9135 47.0702 36.4781 49.4275 31.6486 50.2248C26.8191 51.0221 21.8613 50.2155 17.5336 47.9284L7.34161 50.4763C7.10705 50.5353 6.8612 50.5325 6.62805 50.4682C6.39489 50.4039 6.18238 50.2802 6.01121 50.1093C5.84005 49.9385 5.71607 49.7262 5.65137 49.4931C5.58667 49.2601 5.58344 49.0142 5.64202 48.7795L8.19001 38.5847C6.48396 35.3602 5.59466 31.7664 5.60001 28.1183ZM28 8.51835C24.5795 8.51731 21.2182 9.41144 18.2503 11.1119C15.2824 12.8124 12.8111 15.2599 11.0822 18.2113C9.35323 21.1627 8.42677 24.5152 8.39489 27.9356C8.363 31.356 9.22679 34.7252 10.9004 37.7083C11.0762 38.0196 11.1263 38.3862 11.0404 38.7332L8.92361 47.1947L17.3852 45.0779C17.7322 44.9921 18.0988 45.0422 18.41 45.2179C21.0231 46.6818 23.937 47.5274 26.9278 47.6896C29.9187 47.8518 32.9069 47.3264 35.663 46.1537C38.4192 44.981 40.8699 43.1923 42.8269 40.9248C44.784 38.6574 46.1953 35.9716 46.9526 33.0736C47.7099 30.1757 47.7929 27.1428 47.1953 24.2078C46.5977 21.2728 45.3353 18.5138 43.5052 16.1427C41.6751 13.7716 39.326 11.8514 36.6381 10.5297C33.9503 9.20806 30.9952 8.51998 28 8.51835Z" fill="#6FCF97"/>
</svg>
