<svg width="56" height="57" viewBox="0 0 56 57" fill="none" xmlns="http://www.w3.org/2000/svg">
<path d="M41.8997 2.88823C38.3779 2.89366 34.9469 4.00629 32.0921 6.06873C29.2374 8.13117 27.1033 11.039 25.9919 14.3809C24.9488 11.8921 23.1941 9.76661 20.948 8.27092C18.7018 6.77523 16.0641 5.9759 13.3656 5.97313H10.3357C10.2093 5.97294 10.0842 5.99766 9.96739 6.04589C9.8506 6.09411 9.74446 6.16489 9.65505 6.25417C9.56563 6.34346 9.49469 6.44949 9.4463 6.56621C9.3979 6.68293 9.37299 6.80805 9.37299 6.93441C9.37721 10.5632 10.8207 14.0421 13.3869 16.6078C15.953 19.1735 19.4321 20.6165 23.0608 20.6202H29.8557C34.302 20.6154 38.5648 18.8472 41.7089 15.7033C44.8531 12.5595 46.6218 8.29682 46.627 3.85053C46.6269 3.59524 46.5254 3.35043 46.3449 3.16991C46.1644 2.98939 45.9196 2.88793 45.6643 2.88782L41.8997 2.88823ZM23.0608 18.6983C20.1085 18.6947 17.2651 17.5825 15.0938 15.5821C12.9224 13.5816 11.5815 10.8387 11.3365 7.89651H13.3656C16.3177 7.90037 19.1608 9.01246 21.3321 11.0126C23.5034 13.0128 24.8446 15.7553 25.0902 18.6972L23.0608 18.6983ZM29.8557 18.6983H27.0835C27.3324 14.9366 29.001 11.4099 31.7517 8.83196C34.5025 6.25401 38.1298 4.81732 41.8997 4.81263H44.6721C44.4231 8.57423 42.7544 12.1008 40.0036 14.6785C37.2528 17.2563 33.6255 18.6928 29.8557 18.6972V18.6983Z" fill="#6FCF97"/>
<path d="M49.2913 28.192C46.0438 25.5644 41.9946 24.1281 37.8173 24.1219H18.1826C18.1471 24.1167 18.111 24.1239 18.0803 24.1423C13.2776 24.164 8.67898 26.087 5.2906 29.4907C1.90222 32.8944 -4.87246e-05 37.5017 9.36032e-10 42.3044V52.3877C0.00440763 52.6448 0.1099 52.8898 0.29364 53.0697C0.47738 53.2497 0.724583 53.35 0.981736 53.349H55.0386C55.1648 53.3491 55.2899 53.3244 55.4066 53.2761C55.5233 53.2279 55.6294 53.1571 55.7186 53.0678C55.8079 52.9785 55.8787 52.8724 55.927 52.7557C55.9752 52.639 56 52.514 55.9998 52.3877V42.3044C56.0053 41.0465 55.875 39.7916 55.6112 38.5616C54.7639 34.4795 52.5311 30.816 49.2913 28.192ZM13.2125 42.7544V51.4264H1.94302V42.3044C1.9389 41.4344 2.00731 40.5656 2.14755 39.7069H14.2556C13.5774 40.5779 13.2102 41.6507 13.2123 42.7546L13.2125 42.7544ZM21.23 51.4264H15.1351V42.7544C15.1351 41.9462 15.4562 41.171 16.0277 40.5995C16.5992 40.028 17.3743 39.7069 18.1826 39.7069C18.9908 39.7069 19.7659 40.028 20.3375 40.5995C20.909 41.171 21.23 41.9462 21.23 42.7544V51.4264ZM2.57706 37.7844C3.48803 34.5978 5.35922 31.7696 7.9357 29.685C10.8372 27.3427 14.4536 26.0651 18.1826 26.0651C21.9115 26.0651 25.528 27.3427 28.4294 29.685C31.0121 31.7679 32.8904 34.596 33.8085 37.7844H2.57706ZM34.4426 51.4264H23.1526V42.7544C23.1544 41.6507 22.7873 40.578 22.1095 39.7069H34.238C34.3779 40.5656 34.4463 41.4344 34.4426 42.3044V51.4264ZM29.6361 28.192C28.6079 27.3446 27.4818 26.6236 26.2819 26.0444H37.8173C41.3411 26.0482 44.7688 27.1944 47.5861 29.3111C50.4035 31.4278 52.4586 34.4009 53.4432 37.7844H35.7924C34.831 34.0056 32.6711 30.6401 29.6363 28.192H29.6361ZM54.0773 51.4264H36.3651V42.3044C36.3664 41.4353 36.3049 40.5672 36.181 39.7069H53.8727C54.0126 40.5656 54.081 41.4344 54.0773 42.3044V51.4264Z" fill="#6FCF97"/>
</svg>
