<svg width="56" height="57" viewBox="0 0 56 57" fill="none" xmlns="http://www.w3.org/2000/svg">
<path d="M49.3333 30.785V38.785C49.3333 42.2517 40.976 46.785 30.6667 46.785C20.3573 46.785 12 42.2517 12 38.785V32.1184" stroke="#6FCF97" stroke-width="2" stroke-linecap="round" stroke-linejoin="round"/>
<path d="M12.7839 32.8092C15.0906 35.8705 22.2239 38.7425 30.6666 38.7425C40.9759 38.7425 49.3332 34.4599 49.3332 30.7799C49.3332 28.7132 46.7012 26.4492 42.5706 24.8599" stroke="#6FCF97" stroke-width="2" stroke-linecap="round" stroke-linejoin="round"/>
<path d="M41.3333 17.4517V25.4517C41.3333 28.9184 32.976 33.4517 22.6667 33.4517C12.3573 33.4517 4 28.9184 4 25.4517V17.4517" stroke="#6FCF97" stroke-width="2" stroke-linecap="round" stroke-linejoin="round"/>
<path fill-rule="evenodd" clip-rule="evenodd" d="M22.6667 25.4091C32.976 25.4091 41.3333 21.1264 41.3333 17.4464C41.3333 13.7637 32.976 9.45172 22.6667 9.45172C12.3573 9.45172 4 13.7637 4 17.4464C4 21.1264 12.3573 25.4091 22.6667 25.4091Z" stroke="#6FCF97" stroke-width="2" stroke-linecap="round" stroke-linejoin="round"/>
</svg>
