<svg width="56" height="57" viewBox="0 0 56 57" fill="none" xmlns="http://www.w3.org/2000/svg">
<path d="M49.1008 22.6976V22.6528H49.0112V22.2496V22.2048C49.0112 15.44 43.5008 9.97443 36.7808 9.97443H32.7488C31.584 9.97443 30.6432 10.9152 30.6432 12.1248V22.6528L2.24 22.608C1.0304 22.608 0 23.5936 0 24.848V36.6304C0 39.0496 1.9712 41.0208 4.3904 41.0208H5.3312C5.7792 43.9776 8.288 46.2624 11.3792 46.2624C14.4704 46.2624 17.024 43.9776 17.4272 41.0208H35.0784C35.5264 43.9776 38.0352 46.2624 41.1264 46.2624C44.2176 46.2624 46.7712 43.9776 47.1744 41.0208H51.6096C54.0288 41.0208 56 39.0496 56 36.6304V30.4928C56 26.5056 52.9984 23.1904 49.1008 22.6976ZM32.3904 12.08C32.3904 11.856 32.5696 11.7216 32.7488 11.7216H36.736C42.5152 11.7216 47.2192 16.4256 47.2192 22.2048V22.608H32.3456V12.08H32.3904ZM11.3792 44.5152C8.96 44.5152 6.9888 42.544 6.9888 40.1248C6.9888 37.7056 8.96 35.7344 11.3792 35.7344C13.7984 35.7344 15.7696 37.7056 15.7696 40.1248C15.7696 42.544 13.7984 44.5152 11.3792 44.5152ZM30.6432 39.2736H17.4272C16.9792 36.3168 14.4704 34.032 11.3792 34.032C8.288 34.032 5.7344 36.3168 5.3312 39.2736H4.3904C2.9568 39.2736 1.7472 38.1088 1.7472 36.6304V30.4928H30.6432V39.2736ZM30.6432 28.7456H1.7472V24.6688C1.7472 24.4896 1.8816 24.3552 2.0608 24.3552H30.6432V28.7456ZM41.1264 44.5152C38.7072 44.5152 36.736 42.544 36.736 40.1248C36.736 37.7056 38.7072 35.7344 41.1264 35.7344C43.5456 35.7344 45.5168 37.7056 45.5168 40.1248C45.5168 42.544 43.5456 44.5152 41.1264 44.5152ZM54.2528 36.8096C54.2528 36.8096 53.6256 39.2736 51.6096 39.2736H47.1744C46.7264 36.3168 44.2176 34.032 41.1264 34.032C38.0352 34.032 35.4816 36.3168 35.0784 39.2736H32.3904V24.4H48.16C51.52 24.4 54.2976 27.1328 54.2976 30.5376V36.8096H54.2528Z" fill="#6FCF97"/>
</svg>
