<svg width="28" height="25" viewBox="0 0 28 25" fill="none" xmlns="http://www.w3.org/2000/svg">
<path d="M26.25 10.7511H5.495L11.8475 3.12109C12.1445 2.76371 12.2875 2.30297 12.2448 1.84023C12.2021 1.37748 11.9774 0.950635 11.62 0.653593C11.2626 0.35655 10.8019 0.213642 10.3391 0.256306C9.87639 0.298971 9.44954 0.523714 9.1525 0.881093L0.4025 11.3811C0.343631 11.4646 0.290989 11.5523 0.245 11.6436C0.245 11.7311 0.245 11.7836 0.1225 11.8711C0.0431789 12.0717 0.00164696 12.2853 0 12.5011C0.00164696 12.7168 0.0431789 12.9304 0.1225 13.1311C0.1225 13.2186 0.1225 13.2711 0.245 13.3586C0.290989 13.4498 0.343631 13.5376 0.4025 13.6211L9.1525 24.1211C9.31704 24.3186 9.52308 24.4775 9.75598 24.5864C9.98888 24.6953 10.2429 24.7515 10.5 24.7511C10.9089 24.7519 11.3052 24.6095 11.62 24.3486C11.7972 24.2017 11.9437 24.0213 12.051 23.8176C12.1584 23.614 12.2246 23.3913 12.2457 23.162C12.2668 22.9328 12.2425 22.7017 12.1742 22.4819C12.1059 22.2621 11.9949 22.0579 11.8475 21.8811L5.495 14.2511H26.25C26.7141 14.2511 27.1593 14.0667 27.4874 13.7385C27.8156 13.4103 28 12.9652 28 12.5011C28 12.037 27.8156 11.5918 27.4874 11.2637C27.1593 10.9355 26.7141 10.7511 26.25 10.7511Z" fill="#204B59"/>
</svg>
