<svg width="36" height="36" viewBox="0 0 36 36" fill="none" xmlns="http://www.w3.org/2000/svg">
<path d="M1.80039 14.9625V15.525H2.13789V16.0875H2.47539V15.525H2.81289V14.9625H3.15039V14.4H3.48789V13.8375H3.82539V13.275H4.16289V12.7125H3.71289V12.15H3.43164V11.5875H2.41914V12.15H3.09414V12.7125H2.75664V13.275H2.41914V13.8375H2.08164V13.275H1.80039C1.68789 13.725 1.57539 14.2312 1.46289 14.6812V14.9062H1.80039V14.9625Z" fill="white"/>
<path d="M5.68145 6.46875L5.5127 6.6375H5.68145V6.46875Z" fill="white"/>
<path d="M8.32481 4.44374H7.98731V5.00624H7.64981V5.56874H7.31231V6.13124H6.9748V6.69374H6.63731V6.13124H6.2998V5.84999L5.96231 6.18749V6.69374H6.2998V7.25624H6.63731V7.81874H6.2998V8.38124H5.96231V8.94374H5.6248V8.38124H5.34355V7.81874H5.0623V7.25624C4.9498 7.36874 4.8373 7.53749 4.7248 7.64999V7.81874H4.6123C4.4998 7.87499 4.44355 7.93124 4.38731 8.04374V8.32499H4.1623C4.10605 8.38124 4.10605 8.43749 4.0498 8.49374V8.83124H3.8248C3.7123 8.99999 3.5998 9.22499 3.4873 9.39374H3.76855V9.95624H4.10605V10.5187H4.44355V11.0812H4.78105V11.6437H5.0623V11.0812H5.39981V10.5187H5.7373V9.95624H6.07481V9.39374H6.4123V8.83124H6.74981V8.26874H7.08731V8.83124H7.31231V9.39374H7.64981V9.95624H7.98731V10.5187H8.32481V11.0812H8.66231V9.95624H8.32481V9.39374H8.66231V7.76249H8.32481V8.32499H7.98731V8.88749H7.64981V8.32499H7.31231V7.76249H6.9748V7.19999H7.31231V6.63749H7.64981V6.07499H7.98731V6.63749H8.32481V7.19999H8.66231V5.51249H8.32481V4.94999H8.66231V3.99374C8.54981 4.04999 8.43731 4.16249 8.32481 4.21874V4.44374ZM5.0623 9.95624H4.7248V8.83124H5.0623V9.95624Z" fill="white"/>
<path d="M1.4625 19.9125V19.35H1.8V18.7875H2.1375V18.225H2.475V17.6625H2.08125V17.1H1.8V16.5375H1.4625V15.975H1.2375C1.18125 16.7062 1.125 17.325 1.125 18C1.125 18.675 1.18125 19.2937 1.2375 19.9125H1.4625Z" fill="white"/>
<path d="M8.325 16.5937H7.9875V17.1562H7.65V17.7187H7.3125V18.2812H7.65V18.8437H7.9875V19.4062H8.325V19.9125H8.60625V16.0875H8.325V16.5937Z" fill="white"/>
<path d="M5.34336 6.80624C5.23086 6.91874 5.11836 7.08749 5.00586 7.19999H5.34336V6.80624Z" fill="white"/>
<path d="M5.5127 29.3625L5.68145 29.5312V29.3625H5.5127Z" fill="white"/>
<path d="M5.0625 28.8C5.175 28.9125 5.2875 29.0812 5.4 29.1937V28.8H5.0625Z" fill="white"/>
<path d="M8.32481 30.9937V30.4312H8.66231V28.7437H8.32481V29.3062H7.98731V29.8687H7.64981V29.3062H7.31231V28.7437H6.9748V28.1812H7.31231V27.6187H7.64981V27.0562H7.98731V27.6187H8.32481V28.1812H8.66231V26.4937H8.32481V25.9312H8.66231V24.8062H8.32481V25.3687H7.98731V25.9312H7.64981V26.4937H7.31231V27.0562H6.9748V27.6187H6.63731V27.0562H6.2998V26.4937H5.96231V25.9312H5.6248V25.3687H5.34355V24.8062H5.0623V24.2437H4.7248V24.8062H4.38731V25.3687H4.0498V25.9312H3.7123V26.4937H3.4873C3.5998 26.6625 3.7123 26.8875 3.8248 27.0562H4.0498V27.3937C4.10605 27.45 4.10605 27.5062 4.1623 27.5625H4.38731V27.8437C4.44355 28.0687 4.4998 28.125 4.6123 28.2375H4.7248V28.4062C4.8373 28.5187 4.9498 28.6875 5.0623 28.8V28.2375H5.39981V27.675H5.7373V27.1125H6.07481V27.675H6.4123V28.2375H6.74981V28.8H6.4123V29.3625H6.07481V29.8687L6.4123 30.2062V29.925H6.74981V29.3625H7.08731V29.925H7.31231V30.4875H7.64981V31.05H7.98731V31.6125H8.32481V31.8375C8.43731 31.8937 8.54981 32.0062 8.66231 32.0625V31.05L8.32481 30.9937ZM5.0623 27.1125H4.7248V25.9875H5.0623V27.1125Z" fill="white"/>
<path d="M8.32539 21.0375H7.98789V20.475H7.65039V19.9125H7.31289V20.475H6.97539V21.0375H6.69414V21.6H6.35664V22.1625H6.01914V22.725H5.68164V23.2312H6.01914V23.7937H6.35664V24.3562H7.31289V23.7937H6.69414V23.2312H6.97539V22.725H7.31289V22.1625H7.65039V22.725H7.98789V23.2312H8.32539V23.7937H8.60664V22.725H8.32539V22.1625H8.60664V21.6H8.32539V21.0375Z" fill="white"/>
<path d="M8.32539 12.7687H7.98789V13.275H7.65039V13.8375H7.31289V13.275H6.97539V12.7687H6.69414V12.2062H7.31289V11.6437H6.35664V12.2062H6.01914V12.7687H5.68164V13.275H6.01914V13.8375H6.35664V14.4H6.69414V14.9625H6.97539V15.525H7.31289V16.0875H7.65039V15.525H7.98789V14.9625H8.32539V14.4H8.60664V13.8375H8.32539V13.275H8.60664V12.2062H8.32539V12.7687Z" fill="white"/>
<path d="M2.08164 22.1625H2.41914V22.725H2.75664V23.2875H3.09414V23.85H2.41914V24.4125H3.37539V23.85H3.71289V23.2875H4.05039V22.725H3.71289V22.1625H3.43164V21.6H3.09414V21.0375H2.75664V20.475H2.41914V19.9125H2.08164V20.475H1.80039V21.0375H1.46289V21.2625C1.57539 21.7687 1.68789 22.2187 1.80039 22.6687H2.08164V22.1625Z" fill="white"/>
<path d="M5.68125 14.9625H5.34375V14.4H5.0625V13.8375H4.725V14.4H4.3875V14.9625H4.05V15.525H3.7125V16.0875H3.43125V16.65H3.09375V19.4625H3.43125V20.025H3.76875V20.5875H4.10625V21.15H4.44375V21.7125H4.78125V22.275H5.0625V21.7125H5.4V21.15H5.7375V20.5875H6.075V20.025H6.4125V19.4625H6.75V16.65H6.4125V16.0875H6.075V15.525H5.7375L5.68125 14.9625ZM3.7125 17.9437V18.2812H3.43125V17.7187H3.76875V17.9437H3.7125ZM6.01875 18.0562V17.7187H6.35625V18.2812H6.01875V18.0562ZM4.725 14.9625H5.0625V15.525H4.725V14.9625ZM5.0625 21.0375H4.725V20.475H5.0625V21.0375ZM5.68125 17.1562H5.34375V17.7187H5.0625V18.2812H5.4V18.8437H5.7375V19.9687H5.34375V19.4062H5.0625V18.8437H4.725V19.4062H4.3875V19.9687H4.05V18.8437H4.3875V18.2812H4.725V17.7187H4.3875V17.1562H4.05V16.0312H4.3875V16.5937H4.725V17.1562H5.0625V16.5937H5.4V16.0312H5.7375L5.68125 17.1562Z" fill="white"/>
<path d="M4.0502 8.49375C3.99395 8.60625 3.88145 8.71875 3.8252 8.83125H4.0502V8.49375Z" fill="#C8313E"/>
<path d="M4.38711 8.325V8.04375C4.33086 8.15625 4.27461 8.2125 4.16211 8.325H4.38711Z" fill="#C8313E"/>
<path d="M4.7248 7.7625V7.59375C4.66855 7.65 4.66855 7.70625 4.6123 7.7625H4.7248Z" fill="#C8313E"/>
<path d="M3.43066 17.9437V18.2812H3.71191V17.7188H3.43066V17.9437Z" fill="#C8313E"/>
<path d="M8.3252 9.45H8.66269V10.0125H8.3252V9.45Z" fill="#C8313E"/>
<path d="M5.34375 7.76251V8.32501H5.68125V8.88751H6.01875V8.32501H6.35625V7.76251H6.69375V7.20001H6.35625V6.63751H6.01875V6.13126L5.68125 6.46876V6.63751H5.5125L5.34375 6.80626V7.20001H5.0625V7.76251H5.34375Z" fill="#C8313E"/>
<path d="M8.3252 5.00626H8.66269V5.56876H8.3252V5.00626Z" fill="#C8313E"/>
<path d="M8.32461 6.63751H7.98711V6.13126H7.64961V6.63751H7.31211V7.20001H6.97461V7.76251H7.31211V8.32501H7.64961V8.88751H7.98711V8.32501H8.32461V7.76251H8.60586V7.20001H8.32461V6.63751Z" fill="#C8313E"/>
<path d="M6.69394 6.13125V6.69375H7.03145V6.13125H7.3127V5.56875H7.6502V5.00625H7.9877V4.44375H8.3252V4.21875C7.70645 4.66875 7.0877 5.11875 6.58145 5.625C6.5252 5.68125 6.46895 5.7375 6.35645 5.79375V6.075H6.69394V6.13125Z" fill="#C8313E"/>
<path d="M4.83711 8.8875H4.72461V9.95625H5.06211V8.8875H4.89336H4.83711Z" fill="#C8313E"/>
<path d="M5.34355 16.5938H5.0623V17.1563H4.7248V16.5938H4.3873V16.0875H4.0498V17.1563H4.3873V17.7188H4.7248V18.2813H4.3873V18.8438H4.0498V19.9125H4.3873V19.4062H4.7248V18.8438H5.0623V19.4062H5.34355V19.9125H5.68106V18.8438H5.34355V18.2813H5.0623V17.7188H5.34355V17.1563H5.68106V16.0875H5.34355V16.5938Z" fill="#C8313E"/>
<path d="M8.3252 13.275H8.66269V13.8375H8.3252V13.275Z" fill="#C8313E"/>
<path d="M8.3248 10.5188H7.9873V9.95625H7.64981V9.39375H7.3123V8.83125H6.9748V8.26875H6.6373V8.83125H6.2998V9.39375H5.96231V9.95625H5.6248V10.5188H5.34355V11.0813H5.0623V11.6438H4.7248V11.0813H4.3873V10.5188H4.0498V9.95625H3.7123V9.39375H3.4873C3.1498 9.95625 2.8123 10.575 2.53105 11.1938C2.2498 11.8688 2.0248 12.5438 1.7998 13.2188H2.08105V13.7813H2.41855V13.2188H2.75605V12.6563H3.09355V12.0938H2.41855V11.5313H3.3748V12.0938H3.7123V12.6563H4.0498V13.2188H3.7123V13.7813H3.43105V14.3438H3.09355V14.9063H2.75605V15.4688H2.41855V16.0313H2.08105V15.4688H1.7998V14.9063H1.4623V14.6813C1.3498 15.1313 1.29355 15.5813 1.2373 16.0313H1.4623V16.5938H1.7998V17.1563H2.1373V17.7188H2.4748V18.2813H2.08105V18.8438H1.7998V19.4063H1.4623V19.9688H1.2373C1.29355 20.4188 1.3498 20.8688 1.4623 21.3188V21.0938H1.7998V20.5313H2.1373V19.9688H2.4748V20.5313H2.8123V21.0938H3.1498V21.6563H3.4873V22.2188H3.8248V22.7813H4.1623V23.3438H3.7123V23.9063H3.43105V24.4688H2.41855V23.9063H3.09355V23.3438H2.75605V22.7813H2.41855V22.2188H2.08105V22.7813H1.7998C2.0248 23.4 2.2498 24.075 2.53105 24.75C2.8123 25.3688 3.1498 25.9875 3.4873 26.55H3.76855V25.9875H4.10605V25.425H4.44355V24.8625H4.78105V24.3H5.0623V24.8625H5.39981V25.425H5.7373V25.9875H6.0748V26.55H6.4123V27.1125H6.7498V27.675H7.08731V27.1125H7.3123V26.55H7.64981V25.9875H7.9873V25.425H8.3248V24.8625H8.6623V23.7375H8.3248V23.175H7.9873V22.6125H7.64981V22.05H7.3123V22.6125H6.9748V23.175H6.6373V23.7375H7.3123V24.3H6.35605V23.7375H6.01855V23.175H5.68106V22.6125H6.01855V22.05H6.35605V21.4875H6.69355V20.925H7.03105V20.3625H7.3123V19.8H7.64981V20.3625H7.9873V20.925H8.3248V21.4875H8.6623V19.8H8.3248V19.2375H7.9873V18.675H7.64981V18.1125H7.3123V17.55H7.64981V16.9875H7.9873V16.425H8.3248V15.8625H8.6623V14.175H8.3248V14.7375H7.9873V15.3H7.64981V15.8625H7.3123V15.3H6.9748V14.7375H6.6373V14.175H6.2998V13.6125H5.96231V13.05H5.6248V12.4875H5.96231V11.925H6.2998V11.3625H7.3123V11.925H6.6373V12.4875H6.9748V13.05H7.3123V13.6125H7.64981V13.05H7.9873V12.4875H8.3248V11.925H8.6623V10.8H8.3248V10.5188ZM6.01855 15.525V16.0875H6.35605V16.65H6.69355V19.4625H6.35605V20.025H6.01855V20.5875H5.68106V21.15H5.34355V21.7125H5.0623V22.275H4.7248V21.7125H4.3873V21.15H4.0498V20.5875H3.7123V20.025H3.43105V19.4625H3.09355V16.65H3.43105V16.0875H3.76855V15.525H4.10605V14.9625H4.44355V14.4H4.78105V13.8375H5.0623V14.4H5.39981V14.9625H5.7373V15.525H6.01855Z" fill="#C8313E"/>
<path d="M4.89336 15.525H5.06211V14.9625H4.72461V15.525H4.83711H4.89336Z" fill="#C8313E"/>
<path d="M4.0502 27.1125H3.8252C3.88145 27.225 3.99395 27.3375 4.0502 27.45V27.1125Z" fill="#C8313E"/>
<path d="M4.38711 27.675H4.16211C4.21836 27.7875 4.27461 27.8438 4.38711 27.9563V27.675Z" fill="#C8313E"/>
<path d="M4.7248 28.2375H4.6123C4.66855 28.2938 4.66855 28.35 4.7248 28.4063V28.2375Z" fill="#C8313E"/>
<path d="M8.3252 26.0437H8.66269V26.6062H8.3252V26.0437Z" fill="#C8313E"/>
<path d="M8.32461 27.675H7.98711V27.1125H7.64961V27.675H7.31211V28.2375H6.97461V28.8H7.31211V29.3625H7.64961V29.8688H7.98711V29.3625H8.32461V28.8H8.60586V28.2375H8.32461V27.675Z" fill="#C8313E"/>
<path d="M5.34375 28.8V29.1938L5.5125 29.3625H5.68125V29.5313L6.01875 29.8688V29.3625H6.35625V28.8H6.69375V28.2375H6.35625V27.675H6.01875V27.1125H5.68125V27.675H5.34375V28.2375H5.0625V28.8H5.34375Z" fill="#C8313E"/>
<path d="M8.3252 30.4313H8.66269V30.9938H8.3252V30.4313Z" fill="#C8313E"/>
<path d="M6.52481 30.375C7.08731 30.8813 7.6498 31.3875 8.26855 31.7813V31.5563H7.93106V30.9938H7.59355V30.4313H7.3123V29.8688H6.9748V29.3063H6.6373V29.8688H6.2998V30.15L6.52481 30.375Z" fill="#C8313E"/>
<path d="M4.83711 26.0437H4.72461V27.1125H5.06211V26.0437H4.89336H4.83711Z" fill="#C8313E"/>
<path d="M8.3252 22.1625H8.66269V22.725H8.3252V22.1625Z" fill="#C8313E"/>
<path d="M6.35606 18.0562V17.7188H6.01855V18.2812H6.35606V18.0562Z" fill="#C8313E"/>
<path d="M4.83711 20.475H4.72461V21.0375H5.06211V20.475H4.89336H4.83711Z" fill="#C8313E"/>
<path d="M8.60645 24.75V32.0063C11.3064 33.8063 14.5127 34.875 18.0002 34.875C22.4439 34.875 26.4377 33.1875 29.4752 30.375C31.1627 28.8 32.5689 26.8875 33.4689 24.75H8.60645Z" fill="#83BF4F"/>
<path d="M33.4689 24.75C34.3689 22.6688 34.8752 20.4188 34.8752 18C34.8752 15.5813 34.3689 13.3313 33.4689 11.25C32.5127 9.1125 31.1627 7.2 29.4752 5.625C26.4377 2.8125 22.4439 1.125 18.0002 1.125C14.5127 1.125 11.3064 2.19375 8.60645 3.99375V24.75H33.4689Z" fill="#C94747"/>
</svg>
