<svg width="15" height="7" viewBox="0 0 15 7" fill="none" xmlns="http://www.w3.org/2000/svg">
<path d="M14.9999 1.1619C15.0004 1.3113 14.9674 1.45891 14.9034 1.59389C14.8394 1.72887 14.7459 1.84778 14.6299 1.9419L8.62991 6.7719C8.45098 6.91898 8.22653 6.99939 7.99491 6.99939C7.76328 6.99939 7.53884 6.91898 7.35991 6.7719L1.35991 1.7719C1.15569 1.60216 1.02727 1.35825 1.00289 1.09383C0.978509 0.8294 1.06017 0.566118 1.22991 0.361902C1.39965 0.157685 1.64356 0.0292611 1.90799 0.00488138C2.17241 -0.0194983 2.43569 0.0621629 2.63991 0.231902L7.99991 4.7019L13.3599 0.381902C13.5067 0.259619 13.6854 0.181942 13.875 0.158062C14.0645 0.134183 14.257 0.1651 14.4295 0.247156C14.602 0.329212 14.7474 0.458972 14.8485 0.621082C14.9496 0.783192 15.0021 0.970868 14.9999 1.1619Z" fill="#204B59"/>
</svg>
