<svg width="17" height="17" viewBox="0 0 17 17" fill="none" xmlns="http://www.w3.org/2000/svg">
<path d="M15.6611 1.345C15.8516 1.14512 15.8441 0.82863 15.6442 0.638093C15.4443 0.447556 15.1278 0.455127 14.9373 0.655002L15.6611 1.345ZM1.36191 0.655002C1.17137 0.455127 0.854877 0.447556 0.655002 0.638093C0.455126 0.82863 0.447556 1.14512 0.638093 1.345L1.36191 0.655002ZM0.638093 15.655C0.447556 15.8549 0.455126 16.1714 0.655002 16.3619C0.854877 16.5524 1.17137 16.5449 1.36191 16.345L0.638093 15.655ZM15.6546 16.3615C15.8543 16.5523 16.1708 16.5451 16.3615 16.3454C16.5523 16.1457 16.5451 15.8292 16.3454 15.6385L15.6546 16.3615ZM14.9373 0.655002L7.78768 8.155L8.5115 8.845L15.6611 1.345L14.9373 0.655002ZM8.5115 8.155L1.36191 0.655002L0.638093 1.345L7.78768 8.845L8.5115 8.155ZM7.78768 8.155L0.638093 15.655L1.36191 16.345L8.5115 8.845L7.78768 8.155ZM7.8042 8.86153L15.6546 16.3615L16.3454 15.6385L8.49498 8.13847L7.8042 8.86153Z" fill="#4D4D4D"/>
</svg>
