<svg width="16" height="13" viewBox="0 0 16 13" fill="none" xmlns="http://www.w3.org/2000/svg">
<path d="M12.95 0.600006C13.5467 0.600006 14.119 0.837059 14.541 1.25902C14.9629 1.68097 15.2 2.25327 15.2 2.85001V10.05C15.2 10.6467 14.9629 11.219 14.541 11.641C14.119 12.063 13.5467 12.3 12.95 12.3H3.04999C2.45325 12.3 1.88095 12.063 1.459 11.641C1.03704 11.219 0.799988 10.6467 0.799988 10.05V2.85001C0.799988 2.25327 1.03704 1.68097 1.459 1.25902C1.88095 0.837059 2.45325 0.600006 3.04999 0.600006H12.95ZM14.3 4.16491L8.22859 7.73791C8.17119 7.77161 8.10703 7.79215 8.04073 7.79807C7.97443 7.80398 7.90765 7.79512 7.84519 7.77211L7.77139 7.73791L1.69999 4.16671V10.05C1.69999 10.408 1.84222 10.7514 2.09539 11.0046C2.34857 11.2578 2.69195 11.4 3.04999 11.4H12.95C13.308 11.4 13.6514 11.2578 13.9046 11.0046C14.1578 10.7514 14.3 10.408 14.3 10.05V4.16491ZM12.95 1.50001H3.04999C2.69195 1.50001 2.34857 1.64224 2.09539 1.89541C1.84222 2.14859 1.69999 2.49196 1.69999 2.85001V3.12181L7.99999 6.82801L14.3 3.12001V2.85001C14.3 2.49196 14.1578 2.14859 13.9046 1.89541C13.6514 1.64224 13.308 1.50001 12.95 1.50001Z" fill="#204B59"/>
</svg>
