<svg width="106" height="132" viewBox="0 0 106 132" fill="none" xmlns="http://www.w3.org/2000/svg">
<path d="M66 129C74.9742 125.4 86.6799 120.614 94.7145 117.318C100.335 115.011 104 109.536 104 103.46V55.2132C104 51.235 102.42 47.4196 99.6066 44.6066L60.0711 5.07106C56.1658 1.16582 49.8342 1.16583 45.9289 5.07107L6.39339 44.6066C3.58035 47.4197 2 51.235 2 55.2132V103.324C2 109.468 5.74647 114.991 11.455 117.262L38.9101 128.185C44.9579 130.591 51.7795 130.057 57.379 126.738L62 124C85.5 109 90.2169 89.2495 80.808 62.7441C79.3877 58.7433 74.9931 56.6513 70.9923 58.0715L63.5226 60.7231C52.4539 64.6523 43.9971 72.6514 39.2371 82.4409M39.2371 82.4409C37.5091 80.8171 35.556 79.3769 33.3917 78.1687C31.2436 76.9696 28.5302 77.7389 27.3311 79.887L26.9054 80.6496C19.8887 93.2196 26.296 109.536 37.9174 118.178C39.088 119.049 40.5122 117.866 40 116.5V116.5C35.9847 105.189 34.3729 92.4451 39.2371 82.4409Z" stroke="#204B59" stroke-width="4" stroke-linecap="round"/>
</svg>
