<svg width="36" height="36" viewBox="0 0 36 36" fill="none" xmlns="http://www.w3.org/2000/svg">
<path d="M17.9998 1.125C10.6311 1.125 4.3873 5.85 2.08105 12.375H33.9186C31.6123 5.85 25.3686 1.125 17.9998 1.125Z" fill="#F9F9F9"/>
<path d="M17.9998 34.875C25.3686 34.875 31.6123 30.2062 33.9186 23.625H2.08105C4.3873 30.2062 10.6311 34.875 17.9998 34.875Z" fill="#ED4C5C"/>
<path d="M2.08125 12.375C1.4625 14.1187 1.125 16.0312 1.125 18C1.125 19.9688 1.4625 21.8813 2.08125 23.625H33.9188C34.5375 21.8813 34.875 19.9688 34.875 18C34.875 16.0312 34.5375 14.1187 33.9188 12.375H2.08125Z" fill="#428BC1"/>
<path d="M19.0688 10.6875H7.875V18.45C7.875 23.625 13.275 25.2 13.5 25.3125C13.725 25.2 19.125 23.625 19.125 18.45V10.6875H19.0688Z" fill="#F9F9F9"/>
<path d="M9 11.8125V18.5063C9 21.6563 11.4188 23.3438 13.5 24.1875C15.5813 23.3438 18 21.6563 18 18.5063V11.8125H9Z" fill="#ED4C5C"/>
<path d="M12.9375 12.9375H14.0625V20.8125H12.9375V12.9375Z" fill="#F9F9F9"/>
<path d="M10.6875 16.3125H16.3125V17.4375H10.6875V16.3125Z" fill="#F9F9F9"/>
<path d="M11.8125 14.0625H15.1875V15.1875H11.8125V14.0625Z" fill="#F9F9F9"/>
<path d="M13.4996 19.6875C12.7684 19.6875 12.0934 20.025 11.6996 20.5875C11.4184 20.3625 11.0809 20.25 10.6871 20.25C10.2371 20.25 9.78711 20.4188 9.50586 20.7563C10.2934 22.5 11.9809 23.5687 13.4996 24.1875C15.0184 23.5687 16.7059 22.5 17.4934 20.7563C17.2121 20.4188 16.7621 20.25 16.3121 20.25C15.9184 20.25 15.5809 20.3625 15.2996 20.5875C14.9059 20.025 14.2309 19.6875 13.4996 19.6875Z" fill="#428BC1"/>
</svg>
