<svg width="300" height="364" viewBox="0 0 300 364" fill="none" xmlns="http://www.w3.org/2000/svg">
<path d="M150.471 208.382C153.604 218.61 156.891 228.859 162.811 238.078C165.419 242.627 169.104 246.469 173.542 249.265C177.924 251.137 182.47 252.6 187.12 253.636C188.477 254.073 187.592 256.124 186.234 255.687C181.373 254.121 176.094 253.38 171.573 250.791C167.422 247.915 163.968 244.146 161.466 239.762C155.351 230.319 152.595 219.404 149.826 208.718C149.696 208.24 150.424 207.97 150.554 208.448L150.471 208.382Z" fill="#204B59"/>
<path d="M112.397 186.976C114.391 197.825 118.393 208.212 124.199 217.604C126.921 222.401 129.898 227.051 133.117 231.531C134.686 233.712 136.385 235.796 138.206 237.772C140.275 239.968 142.61 241.832 144.862 243.8C145.634 244.416 144.863 245.98 143.926 245.401C139.13 242.184 134.986 238.091 131.711 233.336C128.317 228.588 125.25 223.615 122.532 218.452C119.698 213.609 117.27 208.54 115.275 203.297C113.458 198.021 112.319 192.536 111.886 186.976C111.869 186.934 111.862 186.888 111.865 186.843C111.869 186.799 111.883 186.755 111.906 186.716C111.929 186.678 111.961 186.645 111.999 186.621C112.037 186.596 112.08 186.581 112.125 186.576C112.169 186.571 112.215 186.577 112.257 186.592C112.3 186.607 112.338 186.632 112.369 186.665C112.4 186.698 112.424 186.737 112.437 186.78C112.451 186.823 112.454 186.869 112.447 186.913L112.397 186.976Z" fill="#204B59"/>
<path d="M92.4726 260.768C100.907 255.252 110.047 250.893 119.647 247.807C124.217 246.258 128.914 245.109 133.685 244.375C135.905 244.056 138.15 243.935 140.393 244.011C142.595 243.94 144.784 244.392 146.78 245.331C146.923 245.415 147.035 245.544 147.097 245.697C147.159 245.851 147.168 246.02 147.123 246.179C147.078 246.338 146.982 246.478 146.849 246.576C146.716 246.674 146.554 246.725 146.388 246.72C144.257 246.653 142.175 246.012 140.127 246.012C137.872 245.928 135.614 246.051 133.382 246.38C128.662 247.101 124.006 248.187 119.456 249.629C110.139 252.408 101.192 256.294 92.8066 261.205C92.6406 261.413 92.2901 260.997 92.5352 260.818L92.4726 260.768Z" fill="#204B59"/>
<path d="M61.5388 219.258C68.8137 216.755 76.4174 215.325 84.1105 215.013C87.6344 214.909 91.1604 215.179 94.6292 215.819C98.204 216.317 101.658 217.47 104.817 219.22C105.589 219.836 104.796 220.871 103.971 220.622C100.747 219.384 97.4507 218.344 94.1006 217.508C90.5858 216.849 87.0136 216.553 83.4401 216.623C76.1442 216.877 68.9018 217.947 61.8481 219.811C61.4239 219.915 61.181 219.279 61.6052 219.175L61.5388 219.258Z" fill="#204B59"/>
<path d="M82.8178 196.621C74.9995 190.38 67.1816 184.309 61.3146 176.052C55.8657 168.638 51.5936 159.067 52.5115 149.621C52.5786 147.547 53.2628 145.542 54.4767 143.861C55.6906 142.18 57.3792 140.901 59.3267 140.186C63.0323 139.093 66.3677 141.585 69.1239 143.819C76.267 149.643 80.9697 157.928 82.3016 167.036C83.6151 176.765 81.7078 186.68 83.6204 196.343C83.7594 197.066 82.5782 197.349 82.3851 196.65C80.1948 189.217 81.2701 181.156 81.1644 173.549C81.2415 165.095 78.4408 156.857 73.2219 150.188C70.754 146.838 67.5785 144.071 63.9217 142.084C59.1136 139.811 55.0537 144.127 54.2405 148.652C52.5971 157.553 56.6318 167.037 61.5224 174.209C67.3737 182.829 75.3137 189.473 83.0502 196.33C83.0897 196.345 83.1252 196.369 83.1537 196.4C83.1822 196.431 83.203 196.468 83.2143 196.509C83.2256 196.549 83.2271 196.592 83.2188 196.633C83.2104 196.674 83.1923 196.713 83.1661 196.746C83.1399 196.779 83.1062 196.805 83.0678 196.822C83.0295 196.839 82.9875 196.847 82.9454 196.845C82.9033 196.843 82.8623 196.831 82.8257 196.81C82.7891 196.79 82.758 196.76 82.7348 196.725L82.8178 196.621Z" fill="#204B59"/>
<path d="M91.1017 216.475C84.5119 213.666 77.5097 211.952 70.3722 211.399C66.6358 211.248 62.8951 211.504 59.2163 212.162C55.5773 212.662 52.134 214.102 49.2255 216.339C45.8658 219.308 43.1386 227.513 48.4595 230.127C51.4512 231.596 55.6686 230.503 58.6461 229.51C61.9351 228.317 65.0905 226.786 68.0616 224.941C75.2286 220.617 83.0439 217.467 91.212 215.61C91.9358 215.473 92.134 216.551 91.5021 216.829C87.3322 218.675 82.7982 219.651 78.5322 221.317C74.5845 223.005 70.7522 224.949 67.0597 227.137C63.8527 228.999 60.4141 230.431 56.8319 231.398C53.785 232.425 50.4659 232.315 47.4879 231.087C42.7871 228.424 43.969 221.47 46.4029 217.694C50.4251 211.544 59.3705 210.515 65.9788 210.275C74.7437 209.808 83.478 211.722 91.2541 215.814C91.3197 215.855 91.3683 215.918 91.391 215.992C91.4137 216.066 91.409 216.145 91.3777 216.215C91.3465 216.286 91.2908 216.342 91.2209 216.375C91.151 216.407 91.0716 216.414 90.9975 216.392L91.1017 216.475Z" fill="#204B59"/>
<path d="M131.504 246.038C122.975 243.5 113.905 243.453 105.363 245.902C96.8594 248.017 89.1043 252.422 82.9412 258.64C80.2805 261.588 76.9584 266.391 77.7427 270.625C78.367 274.119 82.5762 274.79 85.531 274.766C88.6809 274.802 91.7977 274.139 94.6573 272.826C98.8827 270.271 102.513 266.845 105.308 262.776C112.008 254.36 121.109 248.177 131.41 245.044C131.543 245.024 131.679 245.05 131.795 245.118C131.911 245.186 132 245.292 132.048 245.417C132.095 245.543 132.098 245.681 132.056 245.809C132.014 245.936 131.929 246.045 131.816 246.117C126.644 248.326 121.694 251.019 117.032 254.161C112.676 257.341 108.766 261.088 105.406 265.305C102.543 269.342 98.6845 272.569 94.2039 274.677C91.1144 275.923 87.7934 276.497 84.461 276.363C82.9874 276.439 81.5184 276.128 80.2013 275.459C78.8842 274.79 77.7652 273.787 76.9565 272.551C75.2837 269.173 77.3165 264.702 79.1073 261.775C84.0531 253.74 93.218 248.802 101.959 245.976C111.608 242.627 122.083 242.45 131.856 245.469C132.273 245.631 132.016 246.209 131.604 246.084L131.504 246.038Z" fill="#204B59"/>
<path d="M127.049 226.176C123.559 222.727 120.391 218.967 117.583 214.944C114.733 211.092 112.158 207.046 109.876 202.834C105.93 195.463 101.762 186.145 104.072 177.606C104.445 175.794 105.241 174.097 106.394 172.652C107.548 171.207 109.027 170.055 110.711 169.29C112.458 168.825 114.307 168.921 115.999 169.563C117.692 170.205 119.141 171.362 120.142 172.869C125.735 179.717 125.893 189.953 126.341 198.243C126.549 203.242 126.644 208.254 127.193 213.254C127.436 215.753 127.838 218.234 128.397 220.682C128.961 223.141 130.01 225.375 130.412 227.908C130.43 228.023 130.409 228.14 130.35 228.241C130.292 228.342 130.201 228.419 130.092 228.46C129.983 228.501 129.863 228.503 129.752 228.466C129.642 228.429 129.547 228.355 129.485 228.257C127.639 224.961 126.514 221.313 126.184 217.554C125.58 213.577 125.201 209.569 125.048 205.55C124.646 197.502 124.921 189.075 122.672 181.288C121.564 177.374 119.501 172.732 115.58 170.93C111.66 169.128 107.552 172.691 106.18 176.463C103.118 184.232 106.903 193.516 110.374 200.542C112.635 205.065 115.289 209.382 118.304 213.443C121.352 217.578 124.886 221.318 128.021 225.386C128.135 225.505 128.198 225.663 128.195 225.827C128.192 225.99 128.124 226.146 128.007 226.26C127.889 226.374 127.731 226.436 127.567 226.432C127.403 226.429 127.247 226.361 127.133 226.243L127.049 226.176Z" fill="#204B59"/>
<path d="M165.717 243.631C161.214 241.77 157.368 238.605 154.675 234.544C151.774 230.587 149.223 226.387 147.049 221.99C144.726 217.488 142.826 212.781 141.376 207.93C140.071 203.737 139.931 199.271 140.971 195.011C141.817 192.112 143.736 188.64 146.964 188.017C148.21 187.9 149.468 188.071 150.639 188.516C151.81 188.961 152.865 189.669 153.72 190.585C159.413 195.64 162.095 203.398 163.336 210.652C164.067 215.514 164.509 220.414 164.662 225.326C164.801 227.888 164.961 230.467 165.296 233.083C165.631 235.7 166.313 238.865 166.453 241.768C166.476 242.467 165.557 242.891 165.18 242.08C163.892 237.881 163.199 233.524 163.123 229.136C162.697 225.392 162.801 221.628 162.525 217.868C161.941 210.048 160.435 201.8 155.75 195.269C154.354 193.088 152.465 191.266 150.235 189.948C149.603 189.627 148.909 189.446 148.2 189.417C147.492 189.388 146.787 189.512 146.132 189.781C145.476 190.05 144.887 190.456 144.405 190.974C143.922 191.491 143.557 192.106 143.334 192.778C139.345 200.725 143.64 210.996 146.912 218.442C151.08 227.93 156.568 237.689 166.043 242.666C166.142 242.732 166.215 242.83 166.249 242.943C166.283 243.056 166.276 243.178 166.23 243.287C166.184 243.395 166.101 243.484 165.996 243.538C165.891 243.592 165.77 243.607 165.654 243.581L165.717 243.631Z" fill="#204B59"/>
<path d="M64.3028 158.625C69.797 174.569 78.1287 189.397 88.8955 202.392C99.5225 215.322 112.318 226.308 126.708 234.857C140.952 243.378 156.656 249.171 173.011 251.94C190.107 254.77 207.603 253.873 224.299 249.309C244.319 243.645 262.975 233.99 279.146 220.925C281.073 219.365 282.98 217.79 284.911 216.268C285.904 215.494 287.381 216.98 286.48 217.895C278.915 225.008 270.503 231.166 261.432 236.23C252.345 241.57 242.741 245.98 232.764 249.394C215.575 255.272 197.29 257.284 179.212 255.289C162.429 253.275 146.185 248.041 131.373 239.874C116.478 231.728 103.108 221.056 91.8646 208.336C80.5599 195.608 71.6766 180.925 65.654 165.014C64.9501 163.045 64.2739 161.042 63.6253 159.003C63.4534 158.492 64.2394 158.234 64.3862 158.692L64.3028 158.625Z" fill="#204B59"/>
<path d="M226.341 212.03C236.456 216.462 246.638 220.811 257.432 222.041C266.98 223.323 276.671 221.307 284.899 216.326C286.104 215.586 287.448 217.408 286.202 218.115C282.291 220.575 277.997 222.37 273.496 223.427C268.478 224.526 263.308 224.772 258.203 224.155C246.738 222.866 236.113 217.618 225.964 212.716C225.588 212.416 225.82 211.784 226.278 211.98L226.341 212.03Z" fill="#204B59"/>
<path d="M185.437 227.137C195.786 233.013 207.156 236.867 218.937 238.493C224.01 239.422 229.132 240.044 234.278 240.357C239.493 240.472 244.706 240.072 249.84 239.163C250.062 239.142 250.285 239.202 250.467 239.331C250.649 239.46 250.779 239.65 250.833 239.866C250.888 240.083 250.863 240.311 250.763 240.51C250.663 240.709 250.495 240.866 250.29 240.952C245.199 242.394 239.884 242.893 234.608 242.424C229.133 242.166 223.684 241.503 218.305 240.439C212.514 239.439 206.802 238.02 201.215 236.192C195.478 234.059 190.058 231.152 185.105 227.553C184.813 227.32 185.183 226.9 185.47 227.096L185.437 227.137Z" fill="#204B59"/>
<path d="M228.834 290.237C230.025 280.548 232.471 271.058 236.112 262.006C237.881 257.541 240.002 253.225 242.456 249.097C243.697 247.01 245.13 245.043 246.737 243.222C248.185 241.334 250.069 239.824 252.229 238.823C252.377 238.778 252.535 238.78 252.682 238.83C252.829 238.879 252.957 238.973 253.049 239.099C253.14 239.224 253.19 239.374 253.192 239.529C253.194 239.684 253.148 239.835 253.06 239.962C251.457 241.713 249.409 243.039 247.832 244.844C246.37 246.531 245.053 248.338 243.895 250.246C241.384 254.391 239.202 258.726 237.367 263.213C233.644 271.911 230.956 281.019 229.358 290.349C229.192 290.557 228.851 290.557 228.896 290.287L228.834 290.237Z" fill="#204B59"/>
<path d="M177.198 286.804C180.01 279.607 183.854 272.861 188.612 266.776C190.757 264.118 193.168 261.685 195.807 259.516C198.496 257.091 201.607 255.179 204.987 253.874C205.81 253.613 206.608 254.794 205.777 255.322C202.855 256.909 200.029 258.665 197.312 260.581C194.492 262.796 191.917 265.305 189.63 268.066C184.961 273.947 180.994 280.352 177.807 287.153C177.768 287.233 177.7 287.294 177.617 287.325C177.534 287.356 177.442 287.354 177.361 287.319C177.279 287.285 177.214 287.22 177.178 287.139C177.143 287.058 177.139 286.966 177.169 286.883L177.198 286.804Z" fill="#204B59"/>
<path d="M194.211 262.498C190.727 264.283 187.365 266.295 184.146 268.522C181.017 270.826 178.164 273.483 175.642 276.438C173.031 279.429 170.827 282.751 169.086 286.319C167.488 289.231 166.828 292.567 167.194 295.872C167.886 299.624 171.29 304.895 175.746 304.231C178.858 303.753 180.876 300.326 182.144 297.798C183.829 294.199 185.003 290.382 185.633 286.457C186.952 277.973 189.616 269.758 193.524 262.119C193.595 262.025 193.693 261.953 193.804 261.913C193.916 261.873 194.037 261.866 194.152 261.894C194.268 261.921 194.373 261.981 194.455 262.067C194.537 262.153 194.593 262.261 194.615 262.377C193.31 266.748 191.206 270.923 189.664 275.207C188.368 279.468 187.354 283.809 186.628 288.204C185.927 292.285 184.533 296.215 182.506 299.824C181.899 301.111 181.039 302.262 179.978 303.21C178.916 304.157 177.675 304.882 176.327 305.341C171.755 306.322 167.891 302.011 166.538 298.106C164.163 291.716 167.904 284.934 171.555 279.848C174.343 275.99 177.61 272.501 181.277 269.465C185.025 266.203 189.322 263.629 193.969 261.861C194.297 261.749 194.552 262.327 194.261 262.435L194.211 262.498Z" fill="#204B59"/>
<path d="M242.81 250.878C234.115 256.671 227.561 265.151 224.148 275.025C221.088 283.476 219.199 294.053 222.895 302.551C224.1 305.317 226.477 309.224 230.108 308.31C232.724 307.326 234.922 305.478 236.338 303.071C238.168 300.575 239.379 297.681 239.872 294.624C240.184 290.332 239.803 286.017 238.743 281.842C236.647 271.275 237.804 260.33 242.06 250.449C242.316 249.871 243.328 250.1 243.155 250.745C241.507 256.025 240.365 261.45 239.744 266.948C239.293 272.198 239.562 277.486 240.543 282.666C241.65 287.07 241.86 291.649 241.162 296.13C240.434 299.173 239.057 302.022 237.124 304.481C235.551 306.962 233.186 308.839 230.412 309.811C229.077 310.072 227.693 309.911 226.453 309.348C225.213 308.785 224.179 307.85 223.495 306.673C217.921 298.989 218.906 288.134 221.316 279.471C224.676 267.822 231.674 256.66 242.259 250.37C242.633 250.158 243.034 250.682 242.643 250.915L242.81 250.878Z" fill="#204B59"/>
<path d="M224.713 241.435C219.02 241.931 213.29 241.829 207.615 241.131C201.957 240.62 196.36 239.571 190.898 237.999C183.86 235.954 176.594 232.571 173.297 225.582C171.453 221.693 171.352 216.303 175.433 213.671C181.039 210.112 188.752 214.091 193.666 217.128C199.484 220.786 204.714 225.267 210.151 229.403C212.888 231.537 215.745 233.511 218.709 235.315C220.203 236.221 221.746 237.044 223.33 237.779C225.03 238.462 226.693 239.233 228.313 240.089C228.751 240.438 228.657 241.112 228.062 241.045C225.424 240.653 222.887 239.75 220.593 238.385C218.22 237.119 215.926 235.708 213.725 234.162C209.056 230.945 204.719 227.313 200.232 223.868C196.31 220.663 192.01 217.95 187.428 215.791C184.666 214.376 181.546 213.817 178.468 214.188C173.847 215.06 172.613 219.726 174.055 223.736C176.271 230.067 182.564 233.729 188.6 235.789C194.418 237.749 200.441 239.027 206.55 239.6C212.574 240.222 218.583 239.878 224.626 240.175C225.351 240.209 225.307 241.332 224.596 241.41L224.713 241.435Z" fill="#204B59"/>
<path d="M263.128 223.287C255.877 227.71 245.713 225.86 237.852 224.249C233.067 223.266 228.367 221.905 223.796 220.177C219.365 218.711 215.318 216.271 211.951 213.036C210.612 211.799 209.558 210.286 208.862 208.602C208.167 206.918 207.847 205.104 207.924 203.286C208.238 201.961 208.95 200.765 209.966 199.859C210.982 198.954 212.252 198.382 213.606 198.221C221.679 196.36 230.365 200.06 237.126 204.163C241.182 206.783 245.098 209.613 248.857 212.643C250.817 214.208 252.777 215.772 254.936 217.087C257.095 218.402 259.812 219.958 262.034 221.664C262.141 221.768 262.209 221.904 262.229 222.052C262.249 222.199 262.22 222.348 262.145 222.476C262.07 222.605 261.955 222.704 261.817 222.759C261.679 222.813 261.526 222.82 261.383 222.779C257.558 221.068 253.987 218.835 250.772 216.146C247.749 213.903 244.871 211.436 241.762 209.26C235.308 204.516 227.989 200.172 219.851 199.463C216.942 199.216 212.988 199.124 210.62 201.149C207.476 203.847 210.172 208.552 212.288 210.99C215.198 214.084 218.769 216.48 222.734 218.001C226.935 219.8 231.272 221.259 235.704 222.364C244.641 224.596 253.912 225.938 262.652 222.43C263.159 222.222 263.606 222.987 263.128 223.287Z" fill="#204B59"/>
<path d="M136.989 33.0281C134.786 69.8204 139.573 106.695 151.096 141.7C156.63 158.447 164.013 174.525 173.109 189.634C182.189 204.564 193.663 217.896 207.071 229.097C222.207 241.804 239.177 252.001 255.923 262.404C257.071 263.141 256.214 265.165 254.986 264.415C239.362 255.713 224.368 245.923 210.115 235.118C196.179 224.29 184.108 211.252 174.381 196.52C154.639 166.056 142.777 130.825 137.619 95.0488C134.585 74.4793 134.115 53.6117 136.22 32.925C136.305 32.4241 137.012 32.571 136.984 33.0545L136.989 33.0281Z" fill="#204B59"/>
<path d="M136.363 33.5188C134.717 28.9187 133.506 24.1738 132.748 19.3467C132.452 17.0227 132.441 14.671 132.715 12.3442C132.814 10.0341 133.54 7.79446 134.815 5.86587C135.189 5.29708 135.692 4.82511 136.284 4.48868C136.875 4.15224 137.538 3.96095 138.217 3.93051C138.897 3.90006 139.574 4.03132 140.193 4.31352C140.812 4.59572 141.355 5.0208 141.778 5.55389C144.571 8.73908 143.722 12.6359 142.675 16.2553C141.925 19.0843 140.942 21.8467 139.985 24.6135C139.029 27.3804 138.198 30.6839 137.048 33.6348C136.941 34.2676 136.033 33.8696 136.047 33.3026C136.27 31.142 136.784 29.0214 137.576 26.9987C138.272 24.8114 139.095 22.6728 139.869 20.4988C140.682 18.269 141.366 15.9944 141.918 13.6863C142.444 12.0029 142.486 10.2054 142.038 8.49967C141.088 5.62686 138.15 3.77319 135.846 6.50147C134.587 8.33704 133.883 10.4959 133.816 12.7206C133.597 14.8746 133.592 17.0451 133.803 19.1999C134.468 23.9595 135.483 28.6635 136.838 33.2739C136.784 33.5902 136.388 33.8486 136.288 33.4791L136.363 33.5188Z" fill="#204B59"/>
<path d="M195.47 255.661C201.575 256.482 207.773 256.276 213.811 255.053C216.798 254.483 219.731 253.655 222.576 252.578C225.46 251.548 227.863 250.003 230.559 248.805C231.144 248.552 231.493 249.37 231.057 249.703C228.672 251.407 226.034 252.727 223.241 253.613C220.304 254.707 217.279 255.546 214.198 256.122C207.983 257.295 201.605 257.318 195.381 256.188C195.311 256.177 195.249 256.137 195.208 256.08C195.167 256.022 195.15 255.95 195.162 255.88C195.174 255.81 195.213 255.748 195.271 255.707C195.329 255.666 195.4 255.649 195.47 255.661Z" fill="#204B59"/>
<path d="M224.969 243.736C229.908 238.065 232.994 231.016 233.81 223.538C234.806 217.659 235.207 210.812 232.073 205.481C229.943 202.055 221.743 195.595 218.99 201.447C216.931 205.926 218.76 211.605 219.907 216.03C221.054 220.455 222.612 225.655 224.075 230.459C225.765 234.796 226.33 239.491 225.719 244.107C225.674 244.213 225.596 244.3 225.495 244.356C225.395 244.411 225.279 244.43 225.166 244.411C225.053 244.392 224.95 244.335 224.873 244.25C224.797 244.165 224.751 244.056 224.744 243.942C224.778 238.783 223.903 233.66 222.16 228.805C220.588 223.847 219.271 218.824 218.011 213.783C216.943 209.534 215.689 203.98 218.16 199.951C221.363 194.798 228.801 199.041 231.638 202.451C235.941 207.438 236.128 214.656 235.399 220.878C234.454 228.854 232.313 239.095 225.328 244.014C225.108 244.193 224.749 243.916 224.987 243.63L224.969 243.736Z" fill="#204B59"/>
<path d="M225.313 208.43C227.591 214.235 228.741 220.422 228.701 226.659C228.702 229.616 228.446 232.567 227.938 235.48C227.568 238.491 226.714 241.423 225.41 244.163C225.141 244.633 224.276 244.459 224.409 243.994C225.04 241.389 226.093 238.692 226.641 235.938C227.233 232.822 227.525 229.656 227.511 226.485C227.613 220.41 226.676 214.363 224.741 208.605C224.606 208.284 225.125 208.1 225.234 208.417L225.313 208.43Z" fill="#204B59"/>
<path d="M199.503 224.018C204.609 219.875 208.379 214.315 210.34 208.036C212.181 202.924 213.775 196.876 211.853 191.587C210.598 188.12 204.152 181.062 200.93 186.32C198.565 190.204 199.381 195.467 199.698 199.671C200.016 203.874 200.531 208.192 201.029 212.452C201.784 216.442 201.497 220.56 200.196 224.407C200.174 224.532 200.104 224.645 200 224.719C199.896 224.792 199.767 224.822 199.641 224.801C199.515 224.779 199.403 224.709 199.33 224.605C199.256 224.501 199.226 224.372 199.247 224.246C200.037 219.876 200.098 215.405 199.429 211.015C198.871 206.473 198.497 201.962 198.211 197.412C197.95 193.354 197.592 187.951 200.579 184.714C204.302 180.653 210.257 185.811 212.145 189.385C215.016 194.509 214.001 200.819 212.335 206.178C210.212 212.95 206.678 221.491 199.791 224.718C199.527 224.836 199.3 224.417 199.546 224.242L199.503 224.018Z" fill="#204B59"/>
<path d="M205.515 193.171C206.58 198.635 206.603 204.252 205.583 209.725C205.086 212.372 204.364 214.972 203.426 217.496C202.649 220.046 201.445 222.446 199.866 224.595C199.78 224.68 199.668 224.734 199.548 224.748C199.427 224.761 199.306 224.733 199.204 224.668C199.101 224.604 199.024 224.506 198.984 224.392C198.944 224.277 198.945 224.153 198.985 224.039C199.975 221.711 201.338 219.583 202.254 217.216C203.254 214.654 204.011 212.004 204.517 209.301C205.579 204.047 205.724 198.648 204.943 193.345C205.001 193.003 205.419 192.938 205.497 193.276L205.515 193.171Z" fill="#204B59"/>
<path d="M156.905 161.315C161.371 158.686 165.039 154.892 167.517 150.339C170.209 145.805 172.807 140.388 172.252 134.87C171.867 130.899 168.639 126.122 164.248 128.849C162.535 130.052 161.361 131.878 160.974 133.935C160.486 136.985 160.209 140.064 160.145 143.151C159.934 146.478 159.964 149.819 159.752 153.146C159.733 156.182 158.948 159.165 157.47 161.817C157.139 162.331 156.469 161.648 156.611 161.292C158.988 154.617 158.464 147.477 159.014 140.546C159.41 135.813 159.326 129.588 164.432 127.28C168.369 125.479 171.782 128.525 172.997 132.067C174.738 137.786 172.486 143.886 169.832 148.833C167.178 153.78 163.045 160.104 157.181 161.768C156.917 161.724 156.641 161.433 156.91 161.288L156.905 161.315Z" fill="#204B59"/>
<path d="M166.445 134.754C166.681 139.696 165.973 144.639 164.357 149.316C163.553 151.671 162.541 153.95 161.334 156.126C160.291 158.29 158.876 160.253 157.154 161.926C156.775 162.242 156.126 161.752 156.396 161.283C157.578 159.259 159.147 157.518 160.308 155.464C161.425 153.481 162.383 151.413 163.172 149.278C164.916 144.655 165.828 139.759 165.865 134.818C165.923 134.476 166.398 134.393 166.419 134.749L166.445 134.754Z" fill="#204B59"/>
<path d="M144.726 124.918C150.646 122.788 155.799 118.94 159.524 113.865C163.341 109.088 167.71 101.692 163.475 95.8222C162.916 94.9402 162.072 94.2764 161.084 93.9412C160.095 93.606 159.022 93.6196 158.042 93.9798C156.495 94.8979 155.301 96.31 154.653 97.9888C153.214 101.315 152.143 104.79 151.462 108.35C150.782 111.083 150.15 113.85 149.418 116.574C148.796 119.848 147.345 122.908 145.203 125.46C144.842 125.833 144.039 125.453 144.348 124.908C147.305 119.281 149.347 113.219 150.398 106.95C151.093 102.808 152.53 98.8248 154.639 95.1931C155.093 94.3646 155.744 93.6602 156.534 93.1418C157.323 92.6234 158.228 92.3068 159.168 92.2198C160.109 92.1328 161.056 92.2781 161.927 92.6428C162.798 93.0076 163.566 93.5806 164.164 94.3118C168.705 99.5015 165.939 106.708 162.64 111.627C160.448 114.864 157.837 117.796 154.876 120.346C152.137 123.008 148.629 124.738 144.852 125.292C144.562 125.243 144.436 124.869 144.721 124.782L144.726 124.918Z" fill="#204B59"/>
<path d="M159.534 100.85C158.738 105.769 157.018 110.493 154.465 114.771C153.24 116.806 151.852 118.738 150.316 120.55C148.834 122.496 147.038 124.181 145 125.534C144.525 125.779 143.841 125.338 144.291 124.763C145.789 123.119 147.51 121.756 149.109 120.155C150.759 118.278 152.243 116.261 153.545 114.127C156.099 110.019 157.935 105.507 158.976 100.782C159.034 100.44 159.587 100.533 159.529 100.876L159.534 100.85Z" fill="#204B59"/>
<path d="M138.261 91.4151C143.09 89.6744 147.352 86.6451 150.584 82.655C153.973 78.646 157.59 73.2924 156.661 67.7383C156.574 66.7428 156.28 65.7765 155.798 64.9012C155.317 64.0258 154.658 63.2605 153.864 62.6541C151.904 61.5898 149.634 62.995 148.413 64.4425C145.698 67.6708 145.118 72.3728 144.36 76.3665C143.936 78.871 143.275 81.3353 142.64 83.8041C142.087 86.8516 140.744 89.7007 138.747 92.0669C138.359 92.4352 137.583 92.0596 137.892 91.5153C140.733 86.1579 142.633 80.352 143.509 74.3511C144.215 70.1858 145.324 64.9226 148.977 62.2329C149.715 61.6129 150.608 61.2043 151.559 61.0504C152.511 60.8965 153.486 61.003 154.382 61.3587C155.216 61.8737 155.938 62.551 156.505 63.3506C157.073 64.1502 157.474 65.0556 157.685 66.0133C159.335 71.4726 156.821 76.7147 153.554 81.1241C150.286 85.5335 144.599 91.5939 138.36 92.1099C138.07 92.0608 137.944 91.6869 138.23 91.5997L138.261 91.4151Z" fill="#204B59"/>
<path d="M151.905 69.2646C151.178 73.8645 149.565 78.2795 147.155 82.2639C145.987 84.2033 144.652 86.0369 143.165 87.744C141.841 89.4618 140.225 90.9324 138.391 92.088C137.916 92.3329 137.492 91.6373 137.8 91.2557C139.171 89.7251 140.971 88.5384 142.24 86.9636C143.796 85.263 145.188 83.4195 146.398 81.4575C148.759 77.6817 150.461 73.5313 151.43 69.1843C151.442 69.1144 151.481 69.052 151.539 69.011C151.597 68.9699 151.669 68.9535 151.739 68.9653C151.808 68.9771 151.871 69.0163 151.912 69.0741C151.953 69.1319 151.969 69.2037 151.957 69.2736L151.905 69.2646Z" fill="#204B59"/>
<path d="M135.919 55.6545C140.539 54.2885 144.714 51.7205 148.019 48.2125C151.53 44.7664 156.028 39.8063 155.577 34.4687C155.273 30.3492 150.401 25.8356 146.614 29.1535C142.827 32.4715 143.362 37.6334 142.551 41.7809C141.973 44.3104 141.252 46.805 140.391 49.2525C139.657 51.9205 138.246 54.3534 136.295 56.3148C135.846 56.7268 135.343 56.0178 135.634 55.579C138.842 50.5252 140.907 44.831 141.685 38.8951C142.395 34.7034 143.018 28.7883 147.582 26.9581C151.681 25.3202 155.654 29.2205 156.675 32.9462C158.115 38.2072 154.05 43.6475 150.701 47.2567C146.992 51.2385 141.843 56.0344 136.063 56.0856C135.773 56.0365 135.62 55.6581 135.932 55.5754L135.919 55.6545Z" fill="#204B59"/>
<path d="M150.764 34.2499C149.804 38.7162 148 42.958 145.449 46.7466C144.177 48.6762 142.728 50.4826 141.121 52.1423C139.69 53.8259 137.973 55.2428 136.049 56.3273C135.94 56.3627 135.824 56.3625 135.715 56.3267C135.607 56.291 135.513 56.2216 135.447 56.1286C135.382 56.0357 135.347 55.9241 135.349 55.8101C135.351 55.6962 135.389 55.5858 135.458 55.495C136.929 54.0086 138.615 52.8568 140.191 51.3883C141.727 49.83 143.128 48.1439 144.378 46.3483C147.021 42.6553 149.003 38.5316 150.237 34.1607C150.295 33.8179 150.848 33.9117 150.764 34.2499Z" fill="#204B59"/>
<path d="M159.945 168.962C154.491 171.564 147.503 170.109 141.955 168.464C135.979 166.74 130.561 163.475 126.244 158.995C123.134 155.756 122.49 150.44 126.973 147.972C132.472 144.945 137.197 150.166 141.071 153.371C147.245 158.512 152.701 164.698 160.066 168.25C160.172 168.295 160.259 168.374 160.314 168.474C160.369 168.574 160.389 168.691 160.37 168.804C160.351 168.917 160.294 169.02 160.209 169.097C160.124 169.173 160.015 169.219 159.901 169.226C154.541 167.911 150.438 163.338 146.521 159.746C144.186 157.533 141.609 155.469 139.12 153.366C136.631 151.263 134.661 148.977 131.812 148.521C130.732 148.305 129.613 148.402 128.586 148.8C127.559 149.197 126.666 149.879 126.012 150.766C125.39 151.766 125.115 152.943 125.231 154.115C125.346 155.286 125.844 156.387 126.648 157.247C130.437 161.674 135.374 164.969 140.915 166.769C146.974 169.146 153.587 169.74 159.973 168.479C160.042 168.454 160.118 168.459 160.183 168.49C160.249 168.522 160.3 168.578 160.324 168.647C160.348 168.716 160.344 168.791 160.313 168.857C160.281 168.923 160.225 168.974 160.156 168.998L159.945 168.962Z" fill="#204B59"/>
<path d="M134.204 156.954C137.757 160.046 141.777 162.557 146.113 164.395C148.322 165.34 150.602 166.107 152.932 166.689C155.167 167.258 157.49 167.461 159.71 168.109C160.106 168.176 160.139 168.778 159.59 168.821C157.23 168.953 154.865 168.654 152.613 167.937C150.243 167.34 147.931 166.531 145.706 165.519C141.266 163.473 137.238 160.631 133.821 157.133C133.659 156.97 133.897 156.685 134.086 156.852L134.204 156.954Z" fill="#204B59"/>
<path d="M145.944 130.521C140.283 133.224 133.032 131.561 127.309 129.832C121.586 128.103 115.303 125.683 111.781 120.72C110.463 119.108 109.824 117.045 109.998 114.969C110.173 112.893 111.148 110.967 112.717 109.597C117.576 106.027 122.542 111.261 126.07 114.11C129.598 116.959 132.656 119.7 135.872 122.632C138.907 125.497 142.342 127.906 146.069 129.783C146.175 129.828 146.262 129.906 146.317 130.007C146.372 130.107 146.392 130.223 146.373 130.336C146.354 130.449 146.297 130.553 146.212 130.629C146.127 130.706 146.018 130.751 145.904 130.759C140.312 129.377 136.126 124.492 131.964 120.749C129.335 118.351 126.596 116.125 123.848 113.95C122.005 111.877 119.556 110.437 116.849 109.836C111.838 109.502 110.487 115.402 112.334 119.051C114.829 123.84 121.112 126.423 126.136 128.115C132.371 130.575 139.172 131.229 145.761 130.002C145.83 129.978 145.905 129.982 145.971 130.013C146.037 130.045 146.088 130.101 146.112 130.17C146.136 130.239 146.132 130.315 146.101 130.38C146.069 130.446 146.013 130.497 145.944 130.521Z" fill="#204B59"/>
<path d="M118.852 116.087C122.728 119.569 127.033 122.54 131.662 124.929C133.869 126.092 136.169 127.071 138.537 127.856C140.977 128.649 143.612 128.933 145.977 129.849C146.064 129.897 146.134 129.971 146.178 130.061C146.221 130.151 146.236 130.252 146.219 130.351C146.202 130.449 146.155 130.54 146.085 130.611C146.014 130.682 145.923 130.729 145.825 130.745C143.378 130.724 140.959 130.232 138.7 129.294C136.081 128.436 133.546 127.344 131.123 126.031C126.512 123.434 122.307 120.172 118.645 116.35C118.435 116.152 118.743 115.771 118.949 115.995L118.852 116.087Z" fill="#204B59"/>
<path d="M138.49 97.5829C132.995 99.147 126.722 96.3486 121.923 93.8001C117.222 91.7536 113.311 88.2363 110.777 83.7759C109.236 80.3961 109.055 74.5889 113.538 73.3958C118.633 72.1165 122.179 77.897 124.853 81.1435C129.363 86.5177 133.101 92.6021 138.747 96.8671C139.203 97.2155 138.573 97.8952 138.2 97.6965C133.777 95.8083 130.953 91.0449 128.183 87.4026C126.507 85.139 124.677 82.9848 122.878 80.8088C121.403 78.483 119.418 76.5238 117.074 75.0796C116.304 74.6447 115.417 74.4642 114.539 74.5638C113.661 74.6634 112.836 75.038 112.183 75.6342C111.559 76.5448 111.172 77.5969 111.057 78.6951C110.942 79.7932 111.103 80.9027 111.525 81.9228C112.935 86.5551 117.362 89.6917 121.366 91.97C126.454 95.203 132.35 96.935 138.377 96.9672C138.667 97.0163 138.815 97.4211 138.503 97.5039L138.49 97.5829Z" fill="#204B59"/>
<path d="M117.47 81.2214C120.014 84.6399 123.03 87.68 126.427 90.251C129.942 92.7047 133.611 94.9297 137.412 96.912C137.481 96.969 137.529 97.0475 137.548 97.1349C137.567 97.2224 137.557 97.3139 137.518 97.3947C137.48 97.4755 137.415 97.5411 137.335 97.5809C137.255 97.6208 137.164 97.6326 137.076 97.6145C132.947 96.0966 129.106 93.887 125.718 91.08C122.279 88.4688 119.379 85.2146 117.179 81.4976C117.166 81.4794 117.157 81.4588 117.152 81.437C117.147 81.4152 117.146 81.3927 117.15 81.3707C117.154 81.3486 117.162 81.3275 117.174 81.3086C117.186 81.2897 117.201 81.2733 117.219 81.2603C117.238 81.2474 117.258 81.2382 117.28 81.2332C117.302 81.2282 117.324 81.2276 117.346 81.2313C117.368 81.235 117.389 81.243 117.408 81.2549C117.427 81.2668 117.444 81.2823 117.456 81.3005L117.47 81.2214Z" fill="#204B59"/>
<path d="M135.829 61.1445C130.275 61.9392 124.724 58.558 120.515 55.567C116.307 52.576 112.012 48.9738 110.436 44.0422C109.282 40.4567 109.819 33.9305 114.682 33.534C115.779 33.5645 116.854 33.8468 117.824 34.3591C118.795 34.8715 119.635 35.6002 120.279 36.489C122.123 38.9365 123.768 41.5277 125.199 44.2379C128.692 49.847 131.355 55.8846 135.985 60.5471C136.357 60.9085 135.977 61.7119 135.464 61.3809C131.5 59.028 129.365 54.3543 127.228 50.4938C125.904 48.0728 124.456 45.7394 123.009 43.406C121.797 41.1159 120.345 38.961 118.678 36.9772C116.931 35.1354 114.045 33.7786 112.136 36.2485C110.981 38.1035 110.603 40.3384 111.082 42.4702C111.96 47.2022 116.022 50.9005 119.699 53.666C124.275 57.4274 129.802 59.8469 135.668 60.6562C135.984 60.7097 135.935 61.1624 135.579 61.1834L135.829 61.1445Z" fill="#204B59"/>
<path d="M116.936 41.0213C118.803 45.1496 121.338 48.9416 124.438 52.245C125.89 53.8072 127.455 55.2598 129.121 56.5911C130.87 57.945 132.866 58.9611 134.628 60.2359C135.11 60.5888 134.467 61.185 134.112 61.0434C131.987 60.1978 130.019 59.0028 128.288 57.5077C126.48 56.1179 124.812 54.5545 123.307 52.8399C120.268 49.4064 117.908 45.4267 116.352 41.1121C116.238 40.8217 116.669 40.6777 116.813 40.9462L116.936 41.0213Z" fill="#204B59"/>
<path d="M139.508 10.1592C138.351 13.7861 137.712 17.5581 137.609 21.3634C137.463 23.3455 137.392 25.3674 137.404 27.3763C137.491 29.182 137.483 30.9911 137.38 32.7961C137.331 33.0861 136.83 33.1639 136.747 32.8516C136.382 30.9713 136.243 29.054 136.333 27.1406C136.338 25.1889 136.427 23.2242 136.591 21.2993C136.769 17.4163 137.483 13.5764 138.713 9.88905C138.943 9.33138 139.772 9.71591 139.542 10.2736L139.508 10.1592Z" fill="#204B59"/>
</svg>
