<svg width="317" height="338" viewBox="0 0 317 338" fill="none" xmlns="http://www.w3.org/2000/svg">
<path d="M98.8837 248.137C101.529 244.108 105.618 241.273 108.356 237.386C111.012 233.337 113.056 228.919 114.421 224.275C116.608 216.333 117.379 208.069 116.697 199.862C116.835 197.151 116.279 194.451 115.084 192.015C113.728 189.999 111.54 190.82 110.4 192.58C108.839 195.499 107.884 198.703 107.592 201.998C106.812 206.606 106.287 211.253 106.019 215.918C105.372 226.838 104.818 238.533 97.899 247.54C97.3365 248.239 98.5843 249.207 99.1468 248.509C104.465 241.823 106.24 233.42 107.07 225.098C107.504 216.549 108.407 208.03 109.775 199.58C110.003 198.445 111.342 191.644 113.464 192.577C114.186 192.911 114.429 194.364 114.605 195.035C114.923 196.464 115.11 197.919 115.163 199.382C115.888 206.887 115.4 214.46 113.72 221.812C112.443 226.93 110.357 231.813 107.54 236.277C104.852 240.454 100.726 243.574 98.415 247.929C98.3895 248.004 98.3909 248.086 98.4189 248.161C98.4469 248.235 98.4998 248.298 98.5686 248.338C98.6375 248.379 98.7182 248.394 98.7971 248.382C98.876 248.369 98.9482 248.33 99.0017 248.271L98.8837 248.137Z" fill="#204B59"/>
<path d="M98.3285 247.703C93.685 252.641 93.4774 259.228 92.5156 265.572C91.9894 269.046 91.4116 272.532 90.5999 275.97C89.6553 279.636 88.296 283.182 86.5483 286.542C86.2374 287.147 87.0356 287.875 87.4892 287.288C91.8831 282.029 92.7205 274.367 93.7709 267.835C94.8213 261.302 94.4092 253.719 98.8524 248.228C99.1208 247.882 98.6295 247.376 98.3285 247.703Z" fill="#204B59"/>
<path d="M97.6925 231.358C97.7325 236.431 96.9669 241.479 95.4243 246.314C94.6723 248.596 94.0741 250.926 93.6336 253.288C93.4573 254.415 93.3398 255.55 93.2816 256.688C93.096 257.701 93.1696 258.744 93.4956 259.72C93.536 259.79 93.5948 259.849 93.6656 259.889C93.7365 259.929 93.8169 259.949 93.8984 259.948C93.9799 259.946 94.0594 259.923 94.1287 259.88C94.198 259.837 94.2545 259.776 94.2922 259.704C94.5797 258.723 94.6764 257.697 94.5771 256.68C94.609 255.431 94.7319 254.214 94.8481 252.97C95.1566 250.482 95.7074 248.03 96.4925 245.648C97.9733 241.03 98.4832 236.157 97.9903 231.335C97.9813 231.301 97.9591 231.271 97.9286 231.254C97.898 231.236 97.8616 231.231 97.8273 231.24C97.7931 231.249 97.7637 231.271 97.7459 231.301C97.728 231.332 97.7229 231.368 97.7319 231.403L97.6925 231.358Z" fill="#204B59"/>
<path d="M98.1914 235.583C99.8175 217.542 105.172 197.395 96.0117 180.553C94.6901 178.142 90.6113 169.948 86.5651 172C83.5827 173.581 84.5726 177.677 85.3706 180.197C87.0871 185.592 88.1262 191.246 89.4619 196.768C90.9351 203.025 92.7183 209.202 94.1723 215.492C95.6818 222.082 96.8113 228.754 97.5553 235.473C97.5814 235.586 97.6452 235.686 97.7361 235.757C97.827 235.829 97.9396 235.867 98.0551 235.865C98.1707 235.864 98.2824 235.823 98.3718 235.75C98.4611 235.677 98.5227 235.575 98.5464 235.462C98.7901 225.006 95.6651 214.55 93.0697 204.534C91.7185 199.374 90.4615 193.942 89.2383 188.639C88.6235 186.292 88.1447 183.936 87.4007 181.623C86.6556 179.782 86.2019 177.836 86.0559 175.855C86.1172 174.929 86.5669 173.378 87.7198 173.352C88.8726 173.326 89.4394 174.225 89.9959 174.768C91.7605 176.686 93.2528 178.836 94.431 181.16C97.6504 187.233 99.4149 193.971 99.5858 200.843C100.106 212.422 97.34 223.897 97.834 235.483C97.8745 235.638 98.0689 235.642 98.0666 235.422L98.1914 235.583Z" fill="#204B59"/>
<path d="M80.4496 209.272C83.4178 216.723 85.8132 224.39 87.6153 232.205C88.2439 235.238 88.7434 238.305 89.3013 241.384C89.9629 245.07 90.8121 248.735 91.3962 252.441C91.8134 255.088 92.035 257.621 92.1926 260.226C92.1297 262.454 92.2425 264.682 92.53 266.892C92.6854 267.485 93.4685 267.418 93.6637 266.898C94.1357 264.971 94.2307 262.971 93.9437 261.008C93.8099 258.81 93.5918 256.607 93.2636 254.405C92.6895 250.421 91.6244 246.565 90.8559 242.576C89.8131 236.17 88.4017 229.83 86.6285 223.587C85.0127 218.614 83.1174 213.736 80.9517 208.975C80.8707 208.666 80.3224 208.892 80.4091 209.118L80.4496 209.272Z" fill="#204B59"/>
<path d="M82.709 213.367C81.8252 208.306 80.6573 203.319 79.9354 198.243C79.2135 193.167 78.8266 188.527 78.1846 183.65C77.6186 178.802 76.4555 174.042 74.7217 169.479C73.7545 166.362 72.2067 163.457 70.1595 160.915C68.7778 159.54 66.5382 159.107 65.6213 161.194C65.0114 163.293 64.9373 165.511 65.4057 167.646C65.9667 172.213 66.6568 176.746 67.5088 181.264C68.2819 186.218 69.4766 191.097 71.0798 195.848C72.5339 199.533 74.381 203.051 76.5891 206.341C78.6191 209.559 80.6434 212.86 82.9823 215.887C83.3173 216.323 83.9383 215.636 83.7145 215.309C80.5912 209.814 77.0433 204.596 74.2288 198.91C70.4942 191.398 69.2848 182.563 67.9398 174.37C67.3439 171.272 66.9209 168.143 66.6729 164.998C66.5248 163.985 66.573 162.952 66.815 161.956C67.4826 160.183 69.079 161.639 69.7638 162.673C70.5743 163.859 71.2425 165.137 71.7547 166.479C72.5242 168.152 73.3128 169.792 73.9408 171.558C75.3339 175.699 76.3045 179.97 76.8377 184.306C78.2061 194.065 78.7419 204.124 81.9787 213.531C82.002 213.62 82.0597 213.696 82.1392 213.742C82.2186 213.788 82.3133 213.801 82.4024 213.778C82.4915 213.755 82.5677 213.697 82.6142 213.618C82.6608 213.538 82.6738 213.444 82.6505 213.355L82.709 213.367Z" fill="#204B59"/>
<path d="M202.583 198.43C198.309 200.982 194.876 204.638 190.641 207.236C185.969 209.83 180.902 211.641 175.644 212.597C170.435 213.796 165.439 214.856 160.501 216.563C155.686 218.175 151.012 220.183 146.528 222.565C141.382 225.181 136.511 228.303 131.987 231.886C131.262 232.49 132.241 233.805 133.032 233.239C141.326 226.921 150.528 221.89 160.326 218.318C165.299 216.726 170.353 215.402 175.468 214.352C180.338 213.407 185.038 211.739 189.414 209.404C194.364 206.481 198.054 202.014 202.956 198.801C202.999 198.763 203.027 198.713 203.035 198.657C203.044 198.601 203.033 198.544 203.004 198.496C202.975 198.448 202.93 198.411 202.876 198.393C202.823 198.375 202.765 198.376 202.712 198.396L202.583 198.43Z" fill="#204B59"/>
<path d="M133.021 166.67C135.807 177.386 137.031 188.448 136.653 199.515C136.457 205.052 135.843 210.567 134.815 216.012C133.786 221.464 132.073 226.626 130.705 231.947C130.412 233.043 132.118 233.864 132.625 232.739C134.692 227.535 136.115 222.099 136.862 216.551C137.813 211.016 138.359 205.418 138.496 199.804C138.918 188.501 137.309 177.215 133.744 166.481C133.63 166.042 132.899 166.206 133.021 166.67Z" fill="#204B59"/>
<path d="M189.853 91.9405C184.474 124.123 174.125 155.28 159.176 184.299C144.138 213.355 125.675 240.512 104.179 265.192C98.0672 272.441 91.5881 279.373 84.7669 285.961C81.3249 289.306 77.6971 292.456 73.9009 295.395C70.2641 298.166 66.3641 300.566 62.5429 303.055C61.6488 303.648 62.1981 305.323 63.3012 304.897C70.8303 302.015 77.3836 296.357 83.3056 291.029C89.7454 285.191 95.8473 278.991 101.581 272.46C112.491 260.119 122.732 247.205 132.26 233.772C151.641 206.854 167.075 177.313 178.095 146.045C184.166 128.523 188.411 110.423 190.761 92.0336C190.834 91.5734 190.029 91.4534 189.956 91.9135L189.853 91.9405Z" fill="#204B59"/>
<path d="M195.633 203.944C199.494 201.514 203.192 198.832 206.702 195.918C210.28 193.133 213.747 190.241 217.05 187.143C222.308 182.127 228.764 176.412 230.609 169.12C230.92 167.881 231.096 166.235 229.435 166.009C227.539 166.141 225.73 166.856 224.255 168.055C219.433 171.322 215.089 175.243 211.347 179.705C204.673 186.697 199.204 194.742 195.161 203.516C194.687 204.55 196.251 205.463 196.719 204.403C199.797 197.281 203.888 190.638 208.867 184.682C211.394 181.678 214.083 178.768 216.793 175.936C218.368 174.214 220.072 172.616 221.892 171.155C223.47 169.903 225.158 168.797 226.935 167.849C227.6 167.407 228.366 167.14 229.162 167.073C230.245 167.203 229.56 168.595 229.445 169.314C227.535 176.044 221.548 181.334 216.811 186.02C213.55 189.15 210.133 192.115 206.574 194.903C202.893 197.825 198.853 200.426 195.369 203.572C195.323 203.606 195.293 203.656 195.284 203.713C195.276 203.769 195.29 203.827 195.324 203.873C195.358 203.919 195.409 203.949 195.465 203.958C195.522 203.966 195.58 203.952 195.626 203.918L195.633 203.944Z" fill="#204B59"/>
<path d="M187.555 212.427C197.236 213.861 207.033 210.468 215.744 206.616C225.634 202.206 235.125 196.275 245.637 193.081C248.661 192.289 253.741 190.6 255.287 194.606C256.833 198.611 251.68 201.918 249.037 203.741C239.955 209.868 228.993 211.553 218.259 212.738C213.203 213.149 208.121 213.086 203.078 212.552C197.995 211.768 192.856 211.399 187.713 211.448C187.093 211.611 186.798 212.487 187.532 212.654C192.294 213.565 197.114 214.145 201.958 214.389C206.888 214.905 211.852 215.034 216.803 214.773C222.3 214.345 227.758 213.514 233.134 212.288C238.751 211.094 244.118 208.932 248.995 205.902C252.212 203.846 256.614 201.15 257.302 197.028C257.518 195.718 257.276 194.374 256.617 193.221C255.958 192.069 254.923 191.178 253.684 190.698C252.078 190.133 250.337 190.069 248.693 190.516C245.796 191.184 242.956 192.084 240.204 193.208C234.869 195.294 229.746 197.876 224.631 200.484C218.871 203.575 212.906 206.27 206.779 208.55C200.676 210.697 194.243 211.756 187.774 211.681C187.412 211.775 187.256 212.34 187.658 212.4L187.555 212.427Z" fill="#204B59"/>
<path d="M194.03 212.165C189.33 210.811 184.353 210.726 179.607 211.917C176.962 212.362 174.324 212.832 171.539 213.479L167.56 214.521C166.219 214.729 164.922 215.161 163.725 215.801C163.59 215.89 163.485 216.019 163.426 216.17C163.368 216.322 163.359 216.487 163.4 216.644C163.441 216.801 163.53 216.941 163.655 217.044C163.781 217.148 163.935 217.209 164.097 217.22C165.35 217.149 166.586 216.891 167.762 216.453L171.741 215.411C174.325 214.734 176.691 214.28 179.193 213.817C181.6 213.296 184.033 212.907 186.482 212.653C188.964 212.549 191.451 212.711 193.898 213.136C194.502 213.226 194.525 212.366 194.03 212.165Z" fill="#204B59"/>
<path d="M161.113 231.233C170.162 234.79 180.75 235.049 190.188 234.396C200.166 233.602 210.067 232.032 219.801 229.701C222.773 228.923 227.533 228.751 229.789 231.358C230.324 232.139 230.578 233.078 230.509 234.022C230.44 234.966 230.053 235.86 229.411 236.557C227.941 238.28 225.943 239.471 223.727 239.947C219.192 241.38 214.519 242.336 209.785 242.799C204.372 243.164 198.936 242.971 193.564 242.223C188.273 241.613 183.062 240.446 178.017 238.742C172.908 236.894 168.114 234.273 163.805 230.969C163.093 230.466 162.257 231.595 162.878 232.176C170.222 239.129 180.839 242.138 190.722 243.602C196.213 244.51 201.779 244.898 207.344 244.762C212.611 244.42 217.827 243.516 222.902 242.065C226.855 241.03 230.976 239.262 232.096 234.999C232.303 234.273 232.354 233.511 232.245 232.764C232.136 232.017 231.869 231.302 231.462 230.666C231.056 230.03 230.518 229.487 229.886 229.074C229.253 228.661 228.54 228.387 227.793 228.269C223.639 226.959 219.48 228.159 215.505 229.007C210.044 230.189 204.516 231.223 198.973 231.986C192.786 232.893 186.534 233.285 180.283 233.159C173.879 232.886 167.511 232.064 161.249 230.701C161.207 230.677 161.16 230.662 161.112 230.659C161.064 230.656 161.015 230.663 160.97 230.681C160.925 230.7 160.885 230.728 160.852 230.763C160.819 230.799 160.795 230.842 160.782 230.889C160.768 230.935 160.765 230.984 160.773 231.032C160.781 231.08 160.8 231.125 160.828 231.164C160.857 231.204 160.893 231.236 160.936 231.26C160.979 231.283 161.026 231.296 161.074 231.298L161.113 231.233Z" fill="#204B59"/>
<path d="M164.608 231.613C161.687 229.979 158.427 229.04 155.082 228.87C151.621 228.47 148.12 228.551 144.68 229.114C141.336 229.681 138.08 230.682 134.995 232.091C131.718 233.239 128.801 235.229 126.539 237.862C126.079 238.533 126.863 239.1 127.514 238.847C128.883 238.1 130.193 237.25 131.432 236.305C132.816 235.416 134.26 234.623 135.754 233.932C138.741 232.567 141.892 231.594 145.129 231.036C148.306 230.495 151.536 230.334 154.75 230.556C156.504 230.674 158.248 230.917 159.966 231.285C161.418 231.701 162.89 232.043 164.376 232.308C164.738 232.213 164.824 231.805 164.557 231.627L164.608 231.613Z" fill="#204B59"/>
<path d="M134.044 168.36C134.323 161.202 133.948 154.078 133.735 146.939C133.711 140.605 133.236 134.281 132.314 128.015C131.721 124.658 130.742 121.381 129.397 118.249C128.374 115.925 126.774 112.871 124.027 112.295C121.281 111.719 118.601 114.35 117.453 116.608C116.374 119.142 116.022 121.926 116.438 124.647C117.563 132.619 119.892 140.374 123.345 147.648C126.344 154.774 129.78 161.675 133.179 168.641C133.341 169.26 134.444 168.834 134.29 168.35C132.376 162.732 129.56 157.46 127.26 152.053C123.883 144.977 121.166 137.605 119.146 130.03C117.903 125.284 116.406 116.827 122.194 114.153C124.882 112.925 126.77 116.125 127.809 118.196C129.229 121.194 130.253 124.363 130.858 127.624C131.898 133.75 132.441 139.95 132.483 146.164C132.732 153.652 132.787 161.136 133.573 168.566C133.572 168.646 133.603 168.724 133.66 168.781C133.716 168.839 133.793 168.872 133.874 168.873C133.955 168.873 134.033 168.842 134.09 168.786C134.148 168.729 134.181 168.652 134.182 168.572L134.044 168.36Z" fill="#204B59"/>
<path d="M140.677 170.178C139.348 174.006 138.384 177.95 137.798 181.959C137.041 185.761 136.906 189.659 137.398 193.503C137.493 193.865 138.049 193.774 138.044 193.334C138.025 185.526 139.244 177.764 141.657 170.335C141.82 169.796 140.988 169.573 140.793 170.093L140.677 170.178Z" fill="#204B59"/>
<path d="M140.051 174.532C142.45 169.984 145.091 165.565 147.961 161.297C150.773 156.837 152.879 151.971 154.206 146.871C155.453 141.534 156.285 136.109 156.694 130.644C157.58 125.595 157.436 120.419 156.271 115.428C155.595 112.849 153.786 108.471 150.583 108.262C148.418 108.112 147.486 110.562 146.992 112.262C146.266 115.072 145.854 117.954 145.763 120.854L145.216 131.417C144.852 137.935 144.554 144.492 143.976 151.038C143.287 157.688 142.253 164.298 140.879 170.842C140.859 170.977 140.889 171.115 140.963 171.23C141.038 171.344 141.151 171.427 141.283 171.464C141.415 171.501 141.555 171.488 141.678 171.428C141.801 171.369 141.898 171.266 141.951 171.14C143.493 166.291 144.469 161.281 144.861 156.209C145.485 151.001 145.798 145.765 146.085 140.534C146.497 133.039 146.571 125.522 147.244 118.178C147.202 115.534 147.817 112.92 149.034 110.57C151.21 107.491 154.033 113.423 154.602 115.066C155.954 119.653 156.276 124.482 155.544 129.208C155.161 134.449 154.431 139.659 153.361 144.804C152.14 150.427 149.96 155.8 146.918 160.688C144.237 165.001 140.888 169.296 139.453 174.358C139.52 174.616 139.801 174.846 139.947 174.56L140.051 174.532Z" fill="#204B59"/>
<path d="M129.261 178.461C130.761 184.822 132.416 191.142 133.419 197.605C134.316 204.23 134.81 210.904 134.897 217.589C134.92 217.711 134.985 217.821 135.081 217.901C135.177 217.98 135.297 218.023 135.421 218.023C135.546 218.023 135.666 217.98 135.762 217.901C135.858 217.822 135.923 217.712 135.947 217.59C136.261 210.995 135.891 204.385 134.84 197.867C134.036 191.159 132.396 184.579 129.959 178.278C129.851 177.865 129.14 177.996 129.261 178.461Z" fill="#204B59"/>
<path d="M131.676 183.149C129.917 178.012 128.539 172.752 127.555 167.413C126.331 162.266 124.68 157.231 122.619 152.359C120.483 147.459 117.904 142.765 114.914 138.333C113.125 135.011 110.721 132.058 107.83 129.631C106.062 128.467 103.371 128.207 102.757 130.711C102.505 133.144 102.928 135.598 103.98 137.806C106.812 145.456 110.718 152.666 115.579 159.219C118.045 162.626 120.627 165.947 122.952 169.445C125.866 173.922 128.512 178.568 130.875 183.358C130.983 183.771 131.79 183.477 131.65 183.155C128.683 175.752 124.697 168.798 119.806 162.495C115.485 156.738 111.673 150.615 108.415 144.198C106.893 141.285 105.675 138.223 104.779 135.061C104.347 133.41 103.435 129.293 106.451 130.901C107.933 131.808 109.196 133.03 110.15 134.481C111.307 136.053 112.419 137.663 113.531 139.274C116.204 143.24 118.537 147.424 120.507 151.782C122.803 156.842 124.616 162.108 125.924 167.509C126.995 172.994 128.682 178.341 130.954 183.448C131.076 183.912 131.901 183.586 131.755 183.238L131.676 183.149Z" fill="#204B59"/>
<path d="M182.364 171.941C176.353 174.488 170.619 177.643 165.253 181.357C163.062 183.002 161.053 184.877 159.262 186.95C157.29 188.854 155.812 191.209 154.957 193.812C154.853 194.363 155.559 194.95 156.026 194.414C156.743 193.378 157.381 192.289 157.934 191.157C158.725 189.896 159.611 188.696 160.584 187.569C162.356 185.556 164.315 183.714 166.433 182.068C171.44 178.316 176.803 175.065 182.446 172.361C182.782 172.273 182.504 171.739 182.311 171.845L182.364 171.941Z" fill="#204B59"/>
<path d="M179.56 174.412C187.448 169.429 194.662 163.454 201.025 156.634C206.977 150.532 211.81 143.435 215.304 135.666C216.327 133.248 218.229 125.748 222.402 127.66C226.575 129.571 225.449 136.344 224.494 139.654C222.021 148.241 214.338 154.857 207.272 159.822C202.928 162.795 198.39 165.475 193.689 167.845C188.541 170.651 183.008 172.685 177.267 173.882C176.234 174.153 176.639 175.701 177.693 175.508C182.967 174.409 188.066 172.591 192.845 170.106C197.617 167.77 202.226 165.117 206.643 162.165C214.038 157.085 221.947 150.383 225.119 141.724C226.723 137.921 226.875 133.663 225.547 129.758C224.317 126.855 221.302 125.357 218.616 127.438C217.41 128.439 216.475 129.727 215.897 131.183C214.969 133.438 214.125 135.699 213.041 137.885C210.826 142.387 208.135 146.64 205.015 150.572C201.406 155.017 197.426 159.149 193.118 162.922C188.626 166.856 183.889 170.384 179.298 174.15C179.065 174.211 179.426 174.64 179.587 174.515L179.56 174.412Z" fill="#204B59"/>
<path d="M197.274 132.614C195.173 135.455 192.918 138.18 190.521 140.778C187.907 143.339 185.099 145.696 182.124 147.829C179.379 149.891 176.877 152.257 174.665 154.882C172.502 157.251 170.816 160.013 169.7 163.018C169.673 163.08 169.658 163.146 169.656 163.213C169.654 163.281 169.665 163.348 169.69 163.41C169.714 163.473 169.75 163.531 169.796 163.579C169.843 163.628 169.898 163.667 169.96 163.695C170.021 163.722 170.088 163.737 170.155 163.739C170.222 163.74 170.29 163.729 170.352 163.705C170.415 163.681 170.473 163.644 170.522 163.598C170.571 163.552 170.61 163.496 170.637 163.435C171.537 162.124 172.168 160.635 173.003 159.287C173.975 157.742 175.069 156.275 176.272 154.902C178.577 152.306 181.129 149.939 183.892 147.834C186.665 145.787 189.254 143.504 191.631 141.011C193.857 138.469 195.922 135.792 197.816 132.996C198.052 132.631 197.464 132.178 197.195 132.524L197.274 132.614Z" fill="#204B59"/>
<path d="M194.351 137.9C204.961 125.694 214.239 111.99 214.785 95.3073C214.854 92.7255 214.446 88.532 211.75 87.1983C210.063 86.3445 208.804 87.9697 208.067 89.2655C206.971 91.4349 206.046 93.6862 205.302 95.999C203.777 100.278 202.523 104.648 201.549 109.083C200.434 113.786 199.461 118.506 198.261 123.204C197.062 127.901 195.221 132.683 193.576 137.469C193.35 138.19 194.398 138.605 194.786 137.979C196.613 134.711 197.981 131.209 198.852 127.57C199.894 123.851 200.663 120.039 201.413 116.259C202.872 108.817 204.795 101.473 207.168 94.2697C207.815 92.4187 208.384 89.844 209.97 88.519C211.048 87.5751 211.836 88.5816 212.43 89.5838C213.321 91.3402 213.668 93.3228 213.424 95.2777C213 102.866 210.992 110.284 207.53 117.055C203.428 124.147 198.879 130.973 193.913 137.491C193.715 137.791 194.095 138.188 194.429 137.88L194.351 137.9Z" fill="#204B59"/>
<path d="M165.237 146.821C164.803 150.253 164.114 153.65 163.176 156.981C162.24 160.258 161.102 163.506 160.432 166.851C159.887 170.133 159.518 173.441 159.328 176.761L158.865 181.955C158.492 183.714 158.461 185.528 158.774 187.299C158.889 187.737 159.597 187.91 159.831 187.435C160.335 185.989 160.563 184.461 160.502 182.932C160.631 181.106 160.728 179.261 160.804 177.339C160.906 173.62 161.273 169.913 161.903 166.246C162.6 163.003 163.596 159.848 164.352 156.618C165.092 153.371 165.557 150.068 165.742 146.744C165.661 146.434 165.272 146.426 165.251 146.872L165.237 146.821Z" fill="#204B59"/>
<path d="M164.951 152.795C164.411 150.731 166.134 148.35 166.859 146.479C167.584 144.607 168.312 142.432 168.945 140.419C170.131 136.501 171.04 132.504 171.666 128.459C173.212 120.366 173.566 112.092 172.717 103.899C172.577 101.139 171.518 98.5057 169.708 96.4168C168.424 95.0991 166.449 94.5139 165.11 95.9395C164.315 96.9459 163.873 98.1852 163.853 99.4665C163.639 101.677 163.593 103.901 163.717 106.118C163.932 110.417 164.547 114.666 164.846 118.971C165.17 123.793 165.016 128.685 164.99 133.543C164.965 138.402 164.596 143.846 164.729 148.994C164.871 149.535 165.703 149.759 165.812 149.123C166.273 145.239 166.438 141.325 166.308 137.416C166.316 133.334 166.245 129.162 166.254 125.191C166.243 117.558 164.64 110.066 164.662 102.452C164.662 100.66 164.479 98.062 165.895 96.6161C167.311 95.1702 168.492 96.5149 169.345 97.5595C171.196 100.344 172.126 103.638 172.005 106.979C172.213 110.871 172.099 114.773 171.664 118.646C171.336 122.454 170.898 126.262 170.336 130.021C169.644 134.069 168.669 138.064 167.42 141.976C166.8 143.931 166.088 145.853 165.37 147.751C164.915 148.515 164.617 149.361 164.492 150.241C164.367 151.121 164.418 152.016 164.641 152.876C164.689 153.056 164.999 152.975 164.951 152.795Z" fill="#204B59"/>
<path d="M189.765 100.04C192.25 93.1872 194.43 86.2211 196.999 79.3734C199.597 72.8858 201.535 66.1538 202.782 59.2795C203.748 52.6514 203.843 45.9264 203.065 39.2751C202.723 36.0215 202.208 32.7885 201.523 29.5899C201.182 27.4189 200.429 25.3331 199.306 23.4444C199.07 22.9587 198.718 22.5382 198.282 22.2196C197.846 21.9009 197.338 21.6939 196.803 21.6165C196.268 21.5391 195.722 21.5937 195.213 21.7755C194.703 21.9573 194.246 22.2609 193.881 22.6596C191.696 25.2164 190.283 28.3397 189.806 31.6659C189.144 35.7689 188.956 39.9341 189.247 44.0793C189.362 49.3693 189.588 54.6581 189.78 59.9278C189.976 66.6854 190.146 73.4496 189.979 80.1919C189.812 86.9342 189.278 93.3315 188.662 99.8332C188.604 100.455 189.609 100.605 189.726 99.9955C192.088 89.5084 191.753 78.3214 191.496 67.6381C191.268 57.9118 190.567 48.1716 190.585 38.436C190.469 34.6107 191.145 30.802 192.57 27.2482C193.19 25.8179 195.14 21.6683 197.269 23.2609C198.51 24.6318 199.313 26.3407 199.577 28.1698C200.287 31.0758 200.802 34.0262 201.116 37.0012C202.055 43.494 202.221 50.0754 201.613 56.6085C200.61 63.8257 198.755 70.8997 196.087 77.6827C193.195 84.8636 190.75 92.2153 188.764 99.6961C188.746 99.7605 188.742 99.8276 188.75 99.8938C188.758 99.9599 188.78 100.024 188.813 100.082C188.846 100.14 188.89 100.19 188.943 100.231C188.996 100.272 189.056 100.302 189.12 100.319C189.185 100.337 189.252 100.342 189.318 100.333C189.385 100.325 189.449 100.303 189.507 100.27C189.565 100.237 189.615 100.193 189.656 100.14C189.697 100.088 189.727 100.027 189.745 99.963L189.765 100.04Z" fill="#204B59"/>
<path d="M225.601 60.1673C218.208 69.0501 208.962 76.1302 201.274 84.7318C198.23 88.0408 195.622 91.7253 193.515 95.6953C191.714 99.3645 189.968 103.24 188.409 107.094C186.661 110.987 185.29 115.038 184.316 119.192C184.288 119.355 184.322 119.522 184.41 119.662C184.499 119.801 184.636 119.902 184.795 119.946C184.955 119.99 185.125 119.974 185.273 119.9C185.42 119.826 185.536 119.7 185.596 119.546C188.393 112.198 190.976 104.768 194.365 97.6779C198.667 88.6949 206.074 81.6555 213.209 74.7421C217.848 70.3661 222.217 65.7144 226.294 60.8126C226.601 60.4015 226.044 59.8581 225.731 60.2434L225.601 60.1673Z" fill="#204B59"/>
<path d="M218.493 69.0856C223.112 65.6926 227.529 62.0323 231.72 58.1236C235.948 54.5987 239.875 50.7302 243.463 46.5577C248.575 40.6211 251.892 33.3564 253.026 25.6116C253.344 23.2404 254.905 12.963 249.866 14.2826C248.162 14.96 246.733 16.1881 245.81 17.7709C244.536 19.495 243.355 21.2858 242.272 23.1355C239.913 27.2379 237.795 31.4742 235.93 35.8227C231.881 45.7103 227.317 55.38 222.256 64.7922C221.951 65.3132 222.687 65.6993 223.038 65.2489C228.079 58.6638 230.97 50.4087 234.146 42.823C237.173 34.7014 240.993 26.8963 245.55 19.5204C246.671 17.7932 248.179 15.2207 250.353 14.9821C251.505 14.8459 252.046 15.7517 252.283 16.7646C252.74 19.4739 252.64 22.2481 251.989 24.9185C250.844 32.1117 247.865 38.8913 243.339 44.6056C239.753 48.9448 235.785 52.9546 231.483 56.5868C226.991 60.5199 221.976 64.0386 218.006 68.3862C217.712 68.7389 218.249 69.3148 218.545 69.0721L218.493 69.0856Z" fill="#204B59"/>
<path d="M232.455 66.201C226.844 70.9233 220.097 73.6275 213.602 76.8722C210.654 78.257 207.844 79.916 205.207 81.8272C203.987 82.7637 202.833 83.7843 201.755 84.8815C200.625 85.8044 199.731 86.9836 199.149 88.3206C199.122 88.4035 199.121 88.4925 199.146 88.576C199.171 88.6594 199.221 88.7331 199.289 88.7872C199.358 88.8414 199.441 88.8733 199.528 88.8788C199.615 88.8843 199.702 88.8631 199.776 88.8179C200.908 87.8195 201.952 86.7253 202.896 85.5476C204.04 84.3803 205.271 83.3021 206.58 82.3224C209.322 80.3208 212.213 78.5314 215.229 76.9699C221.389 74.0716 227.216 70.5122 232.605 66.3545C232.812 66.3004 232.491 65.916 232.318 66.0991L232.455 66.201Z" fill="#204B59"/>
<path d="M230.295 68.3929C236.951 65.0234 242.732 60.4221 248.933 56.3722C254.499 53.1954 259.154 48.6443 262.453 43.1557C263.64 41.4113 264.211 39.3217 264.074 37.2181C263.953 36.7552 263.741 36.3209 263.451 35.9402C263.161 35.5596 262.798 35.2401 262.383 35.0001C261.969 34.7602 261.511 34.6046 261.036 34.5422C260.561 34.4799 260.078 34.512 259.615 34.6369C258.276 35.1115 257.062 35.8817 256.063 36.8902C254.729 38.0051 253.466 39.2014 252.28 40.4723C249.876 43.0425 247.615 45.7421 245.506 48.5588C242.926 51.9911 240.423 55.4032 237.792 58.8491C235.16 62.295 232.486 64.8422 229.751 67.7912C229.277 68.3012 229.903 69.2125 230.507 68.7786C235.439 65.3644 239.201 59.8031 242.571 55.0614C246.263 49.633 250.401 44.52 254.941 39.7753C256.397 38.3742 260.671 34.0296 262.504 37.0228C263.533 38.738 261.866 41.5453 260.987 42.9333C257.767 48.0139 253.394 52.2662 248.223 55.3454C242.067 59.4659 236.24 63.9967 229.888 67.8931C229.818 67.9333 229.767 67.9997 229.746 68.0776C229.725 68.1555 229.736 68.2385 229.776 68.3084C229.816 68.3782 229.883 68.4292 229.961 68.4502C230.039 68.4711 230.122 68.4603 230.192 68.42L230.295 68.3929Z" fill="#204B59"/>
<path d="M177.393 94.7626C180.798 105.062 182.486 115.851 182.389 126.699C182.389 127.333 183.408 127.535 183.537 126.867C184.311 122.115 184.228 117.263 183.292 112.542C182.188 106.399 180.456 100.387 178.124 94.5989C178.002 94.1346 177.253 94.3308 177.4 94.7884L177.393 94.7626Z" fill="#204B59"/>
<path d="M177.658 94.0868C175.059 86.181 171.008 78.8288 165.712 72.406C160.171 65.5873 154.042 59.4741 150.32 51.3795C149.231 48.9081 147.105 43.9518 148.903 41.3306C150.702 38.7094 154.411 42.6448 155.696 44.0724C161.055 50.2221 165.314 57.2471 168.287 64.8402C171.979 74.4427 174.916 84.3186 177.072 94.3782C177.2 94.8683 177.891 94.6598 177.821 94.1819C176.044 84.0387 173.203 74.1111 169.346 64.5627C166.464 56.7004 162.2 49.4157 156.754 43.0511C155.173 41.2322 152.819 38.5685 150.147 38.9099C147.475 39.2512 146.599 42.127 146.761 44.5379C147.238 48.5126 148.606 52.3283 150.762 55.7019C153.188 59.7381 156.027 63.5119 159.234 66.963C162.904 70.8726 166.299 75.0307 169.396 79.4078C172.497 84.0848 175.13 89.0549 177.258 94.2466C177.332 94.5304 177.804 94.4344 177.723 94.1248L177.658 94.0868Z" fill="#204B59"/>
<path d="M175.435 83.1739C175.638 80.3642 175.609 77.6153 175.838 74.7988C176.066 71.9823 176.453 68.8211 176.895 65.8663C177.711 60.4425 178.676 55.0624 178.994 49.6315C179.45 44.0106 178.804 38.3556 177.091 32.9837C176.015 29.9299 174.858 25.9327 172.263 23.828C170.55 22.3471 168.47 22.3129 167.782 24.5332C167.196 27.1886 167.173 29.9364 167.713 32.6004C168.248 37.1741 168.971 41.7261 169.558 46.2862C170.189 51.331 170.852 56.3948 171.509 61.4328C172.373 67.6845 172.96 74.0364 174.199 80.2449C174.23 80.3456 174.295 80.4323 174.383 80.4903C174.471 80.5482 174.576 80.5738 174.681 80.5627C174.786 80.5515 174.883 80.5043 174.957 80.4291C175.031 80.3539 175.076 80.2555 175.085 80.1506C174.817 75.1211 174.006 70.1237 173.337 65.1441C172.763 60.6355 172.132 56.1148 171.507 51.6198C170.882 47.1248 170.173 42.1004 169.558 37.3271C169.219 34.6595 168.853 31.9986 168.761 29.4316C168.737 28.3904 168.244 23.5575 170.169 24.2662C171.685 25.1151 172.832 26.4932 173.392 28.1361C174.121 29.7147 174.766 31.331 175.322 32.9782C177.036 38.1321 177.719 43.5724 177.335 48.9908C177.028 54.7774 176.021 60.5267 175.201 66.2545C174.012 71.8846 173.837 77.6806 174.686 83.3702C174.717 83.4173 174.761 83.4536 174.814 83.474C174.866 83.4943 174.924 83.4975 174.978 83.4833C175.032 83.469 175.081 83.438 175.117 83.3946C175.152 83.3512 175.174 83.2976 175.177 83.2416L175.435 83.1739Z" fill="#204B59"/>
<path d="M231.177 270.17C219.144 281.092 204.87 289.226 189.371 293.99C173.766 298.786 157.366 300.352 141.167 298.594C136.555 298.087 131.982 297.28 127.477 296.177C122.975 295.323 118.605 293.884 114.478 291.895C113.762 291.51 114.017 290.085 114.989 290.306C118.844 291.202 122.539 292.718 126.397 293.719C130.249 294.717 134.152 295.505 138.091 296.08C146.045 297.242 154.103 297.547 162.129 296.99C178.157 295.99 193.829 291.74 208.201 284.497C216.298 280.427 223.887 275.404 230.808 269.535C231.153 269.233 231.627 269.917 231.331 270.113L231.177 270.17Z" fill="#204B59"/>
<path d="M132.393 295.458C149.271 300.75 165.543 308.333 183.404 308.937C199.463 309.397 216.653 304.028 228.338 292.569C233.912 287.088 238.158 279.624 237.102 271.567C236.045 263.511 228.519 257.534 220.59 256.154C203.922 253.044 189.536 264.479 177.66 274.588C166.22 284.257 153.23 294.671 137.755 296.361C135.901 296.525 134.038 296.517 132.187 296.34C132.077 296.314 131.979 296.251 131.911 296.161C131.842 296.07 131.807 295.959 131.812 295.846C131.816 295.732 131.86 295.623 131.935 295.538C132.011 295.453 132.113 295.397 132.225 295.38C140.321 294.863 148.214 292.579 155.353 288.687C162.721 284.449 169.63 279.45 175.967 273.774C182.321 267.873 189.388 262.798 197.002 258.67C203.928 255.061 211.745 253.553 219.494 254.332C227.101 255.304 234.604 259.906 237.481 267.293C240.359 274.681 238.036 282.577 233.682 288.679C228.488 295.434 221.68 300.767 213.894 304.183C206.439 307.753 198.382 309.875 190.152 310.435C172.355 311.507 155.562 305.097 138.986 299.045C136.648 298.187 134.331 297.339 131.989 296.325C131.422 296.06 131.827 295.246 132.403 295.437L132.393 295.458Z" fill="#204B59"/>
<path d="M156.205 298.115C157.965 296.353 159.328 294.233 160.202 291.899C160.725 290.779 161.069 289.601 161.434 288.433C161.729 287.799 161.868 287.118 162.079 286.444C162.211 285.766 162.432 285.107 162.736 284.486C162.766 284.384 162.836 284.299 162.929 284.248C163.022 284.197 163.131 284.186 163.233 284.216C163.334 284.246 163.419 284.315 163.469 284.409C163.519 284.502 163.53 284.612 163.5 284.713C163.38 285.445 163.167 286.159 162.868 286.838C162.592 287.43 162.495 288.079 162.282 288.7C161.878 289.988 161.407 291.255 160.872 292.494C159.963 294.824 158.415 296.851 156.408 298.339C156.339 298.487 156.093 298.192 156.156 298.221L156.205 298.115Z" fill="#204B59"/>
<path d="M160.065 297.135C161.68 294.795 163.084 292.315 164.26 289.725C164.853 288.462 165.371 287.166 165.813 285.843C166.237 284.549 166.461 283.135 166.958 281.848C167.155 281.426 167.743 281.648 167.652 282.172C167.38 283.57 166.958 284.934 166.395 286.243C165.889 287.602 165.341 288.942 164.731 290.253C163.528 292.843 162.043 295.292 160.304 297.556C160.196 297.788 159.846 297.496 159.996 297.283L160.065 297.135Z" fill="#204B59"/>
<path d="M171.518 297.378C173.011 294.832 175.011 292.573 176.546 290.047C177.961 287.654 179.254 285.191 180.42 282.667C182.99 277.753 184.616 272.401 185.213 266.89C185.256 266.139 186.415 266.344 186.371 267.096C185.812 272.749 184.125 278.237 181.411 283.232C180.147 285.919 178.725 288.53 177.153 291.05C175.767 293.562 174.031 295.863 171.998 297.885C171.775 298.089 171.392 297.757 171.542 297.492L171.518 297.378Z" fill="#204B59"/>
<path d="M174.98 296.264C177.877 291.31 181.071 286.598 183.483 281.367C184.651 278.851 185.681 276.273 186.569 273.646C187.764 270.914 188.42 267.978 188.5 265C188.464 264.417 189.407 264.316 189.432 264.92C189.347 267.405 188.851 269.861 187.965 272.186C187.03 275.164 185.932 278.088 184.677 280.946C182.432 286.595 179.3 291.85 175.402 296.512C175.313 296.702 174.944 296.505 175.044 296.345L174.98 296.264Z" fill="#204B59"/>
<path d="M184.122 294.272C185.328 293.055 186.634 291.943 188.026 290.945C189.5 289.653 190.901 288.279 192.222 286.829C194.731 284.063 196.945 281.041 198.828 277.814C200.7 274.702 202.239 271.4 203.418 267.964C204.008 266.116 204.491 264.237 204.864 262.334C205.284 260.445 205.41 258.472 205.935 256.632C206.122 256.231 206.722 256.15 206.766 256.66C206.768 258.559 206.523 260.451 206.037 262.289C204.005 271.648 199.536 280.309 193.088 287.386C191.861 288.729 190.566 290.006 189.206 291.212C187.849 292.641 186.246 293.811 184.475 294.668C184.404 294.705 184.323 294.715 184.246 294.696C184.169 294.677 184.102 294.631 184.057 294.566C184.012 294.5 183.992 294.421 184.002 294.342C184.011 294.263 184.049 294.19 184.108 294.137L184.122 294.272Z" fill="#204B59"/>
<path d="M189.228 292.869C200.561 283.461 207.767 269.97 209.288 255.313C209.406 255.059 209.81 255.016 209.818 255.328C209.98 262.557 206.687 269.899 203.461 276.217C200.236 282.536 195.846 289.264 189.506 293.205C189.465 293.218 189.421 293.218 189.379 293.205C189.338 293.192 189.302 293.166 189.276 293.132C189.25 293.097 189.235 293.055 189.234 293.011C189.233 292.968 189.246 292.925 189.27 292.889L189.228 292.869Z" fill="#204B59"/>
<path d="M202.616 287.53C207.856 283.668 212.426 278.964 216.14 273.609C217.983 270.932 219.593 268.101 220.953 265.148C221.622 263.711 222.282 262.295 222.733 260.833C223.184 259.37 223.671 257.667 224.361 256.188C224.403 256.106 224.472 256.041 224.556 256.005C224.641 255.969 224.735 255.963 224.823 255.989C224.911 256.014 224.987 256.07 225.038 256.146C225.089 256.222 225.112 256.314 225.104 256.405C224.636 259.661 223.609 262.812 222.068 265.72C220.691 268.694 219.042 271.534 217.142 274.205C213.287 279.642 208.389 284.253 202.736 287.766C202.677 287.893 202.463 287.639 202.596 287.572L202.616 287.53Z" fill="#204B59"/>
<path d="M214.693 281.657C218.053 278.613 221.061 275.198 223.658 271.478C224.952 269.525 226.108 267.485 227.118 265.371C228.103 263.258 228.857 261.036 229.835 259.047C229.878 258.998 229.936 258.963 230 258.949C230.064 258.935 230.131 258.943 230.19 258.97C230.25 258.998 230.298 259.045 230.329 259.103C230.36 259.161 230.371 259.227 230.36 259.292C229.937 261.45 229.221 263.54 228.233 265.505C227.221 267.621 226.043 269.653 224.71 271.582C222.099 275.527 218.844 279.003 215.083 281.864C215.014 282.012 214.725 281.698 214.847 281.6L214.693 281.657Z" fill="#204B59"/>
<path d="M237.635 278.274C229.474 281.392 220.869 283.169 212.154 283.536C211.687 283.549 211.617 282.822 212.084 282.808C220.772 282.469 229.377 280.93 237.655 278.232L237.635 278.274Z" fill="#204B59"/>
<path d="M234.05 285.969C224.377 289.3 214.029 290.118 203.977 288.344C203.88 288.309 203.799 288.241 203.747 288.152C203.695 288.063 203.676 287.958 203.694 287.856C203.711 287.754 203.763 287.661 203.841 287.593C203.919 287.525 204.018 287.487 204.121 287.485C209.139 288.112 214.206 288.268 219.257 287.952C224.199 287.537 229.108 286.782 233.949 285.69C233.986 285.677 234.027 285.678 234.062 285.695C234.098 285.711 234.125 285.741 234.139 285.778C234.152 285.815 234.15 285.856 234.133 285.892C234.117 285.927 234.087 285.955 234.05 285.969Z" fill="#204B59"/>
<path d="M224.13 297.812C221.372 298.638 218.492 298.96 215.626 298.764C212.5 298.774 209.361 298.7 206.239 298.481C203.085 298.271 199.951 297.842 196.858 297.197C195.385 296.899 193.929 296.522 192.498 296.065C190.844 295.552 189.344 294.596 187.641 294.188C187.557 294.149 187.493 294.078 187.461 293.991C187.43 293.904 187.434 293.808 187.473 293.724C187.513 293.64 187.583 293.575 187.67 293.543C187.757 293.511 187.853 293.515 187.937 293.554C189.44 294.379 191.054 294.984 192.729 295.35C194.132 295.798 195.544 296.173 196.985 296.484C199.906 297.104 202.867 297.521 205.846 297.731C208.927 297.984 212.003 298.028 215.069 298.093C218.09 298.297 221.127 298.14 224.114 297.625C224.114 297.625 224.262 297.694 224.114 297.625L224.13 297.812Z" fill="#204B59"/>
<path d="M218.612 300.593C206.734 302.218 194.654 300.549 183.682 295.765C183.545 295.668 183.446 295.525 183.403 295.361C183.36 295.198 183.376 295.024 183.447 294.871C183.519 294.717 183.642 294.594 183.794 294.522C183.947 294.449 184.12 294.433 184.283 294.476C195.028 299.322 206.834 301.345 218.596 300.354C218.722 300.412 218.778 300.567 218.612 300.593Z" fill="#204B59"/>
<path d="M194.729 309.069C190.311 307.999 186.052 306.361 182.057 304.193C178.869 302.579 174.699 300.764 173.035 297.416C172.684 296.687 173.873 296.057 174.286 296.764C176.281 300.061 180.146 301.759 183.451 303.453C187.177 305.396 191.082 307.009 194.887 308.783C194.938 308.806 194.976 308.848 194.995 308.901C195.014 308.953 195.012 309.011 194.988 309.061C194.964 309.112 194.922 309.151 194.87 309.17C194.818 309.189 194.76 309.187 194.71 309.163L194.729 309.069Z" fill="#204B59"/>
<path d="M189.665 309.282C185.706 307.862 181.885 306.081 178.25 303.963C175.194 302.339 172.57 300.005 170.598 297.155C170.285 296.675 171.061 296.162 171.323 296.644C173.204 299.712 175.909 302.185 179.128 303.78C182.564 305.741 186.16 307.469 189.754 309.092L189.675 309.261L189.665 309.282Z" fill="#204B59"/>
<path d="M169.442 308.092C166.984 307.131 164.64 305.9 162.452 304.423C160.225 303.046 158.339 301.182 156.933 298.969C156.869 298.834 156.855 298.68 156.894 298.536C156.932 298.391 157.021 298.264 157.144 298.179C157.267 298.094 157.416 298.055 157.565 298.07C157.713 298.085 157.851 298.153 157.954 298.261C158.707 299.308 159.523 300.307 160.398 301.253C161.301 302.127 162.27 302.931 163.295 303.657C165.338 305.15 167.54 306.408 169.643 307.825C169.812 307.903 169.632 308.18 169.505 308.121L169.442 308.092Z" fill="#204B59"/>
<path d="M160.915 305.636C157.973 304.171 155.582 301.794 154.095 298.856C154.064 298.796 154.045 298.73 154.04 298.663C154.034 298.595 154.042 298.528 154.063 298.463C154.083 298.399 154.116 298.339 154.16 298.287C154.203 298.235 154.256 298.192 154.316 298.161C154.376 298.13 154.442 298.111 154.509 298.105C154.576 298.099 154.644 298.107 154.708 298.127C154.772 298.147 154.831 298.18 154.883 298.224C154.934 298.267 154.977 298.32 155.007 298.38C156.447 301.145 158.522 303.523 161.063 305.319C161.089 305.346 161.107 305.38 161.113 305.418C161.12 305.455 161.115 305.494 161.098 305.528C161.082 305.563 161.056 305.592 161.023 305.611C160.991 305.63 160.953 305.639 160.915 305.636Z" fill="#204B59"/>
</svg>
