<svg width="187" height="209" viewBox="0 0 187 209" fill="none" xmlns="http://www.w3.org/2000/svg">
<path d="M74.5211 117.667C70.3368 119.459 66.1034 121.206 61.4819 121.815C59.2874 122.217 57.0268 122.075 54.8991 121.401C53.0871 120.492 51.363 119.417 49.749 118.19C49.234 117.869 48.8111 118.72 49.3261 119.041C51.1699 120.191 52.861 121.702 54.9441 122.46C57.0188 123.019 59.1922 123.106 61.304 122.714C66.0523 122.107 70.356 120.005 74.5886 117.969C74.7798 117.88 74.6677 117.569 74.4765 117.658L74.5211 117.667Z" fill="#204B59"/>
<path d="M91.9349 124.158C87.8619 126.49 83.3872 128.043 78.741 128.737C76.4343 129.17 74.1058 129.48 71.7655 129.665C70.6261 129.754 69.4822 129.774 68.3401 129.726C67.0579 129.657 65.8108 129.41 64.5527 129.219C64.1407 129.137 63.8442 129.817 64.2897 129.963C66.6523 130.637 69.121 130.86 71.5654 130.617C74.0406 130.416 76.4989 130.046 78.9233 129.511C81.2755 129.102 83.5893 128.498 85.8409 127.706C88.0548 126.847 90.1498 125.711 92.0755 124.324C92.0937 124.318 92.1103 124.308 92.124 124.294C92.1376 124.281 92.1479 124.264 92.1541 124.246C92.1603 124.228 92.1623 124.209 92.1597 124.19C92.1572 124.171 92.1504 124.152 92.1397 124.136C92.129 124.121 92.1147 124.107 92.098 124.098C92.0814 124.088 92.0627 124.083 92.0435 124.081C92.0244 124.08 92.0052 124.083 91.9875 124.091C91.9697 124.098 91.954 124.11 91.9414 124.124L91.9349 124.158Z" fill="#204B59"/>
<path d="M73.4301 150.903C72.9055 146.647 71.8113 142.48 70.1769 138.513C69.4251 136.602 68.5079 134.761 67.4359 133.009C66.9296 132.2 66.3526 131.437 65.7116 130.729C65.1299 129.994 64.3815 129.407 63.5281 129.016C63.4616 128.993 63.3892 128.992 63.3223 129.014C63.2554 129.036 63.1977 129.08 63.1583 129.138C63.119 129.196 63.1002 129.266 63.1049 129.336C63.1096 129.406 63.1376 129.473 63.1844 129.525C63.7916 130.199 64.5719 130.7 65.1346 131.365C65.7815 132.075 66.3617 132.842 66.8678 133.658C67.9302 135.39 68.8562 137.201 69.6375 139.075C71.2937 142.866 72.4885 146.841 73.1964 150.914C73.1744 151.025 73.4059 151.025 73.3967 150.896L73.4301 150.903Z" fill="#204B59"/>
<path d="M95.4155 149.551C94.2304 146.5 92.6064 143.636 90.5944 141.051C89.6603 139.877 88.6039 138.806 87.4432 137.855C86.2994 136.83 84.976 136.024 83.5396 135.479C83.1276 135.397 83.0088 135.939 83.3165 136.138C84.6043 136.846 85.8477 137.631 87.0397 138.49C88.2192 139.451 89.2968 140.531 90.2556 141.711C92.1771 144.152 93.819 146.799 95.1507 149.603C95.2335 149.769 95.5071 149.673 95.4243 149.507L95.4155 149.551Z" fill="#204B59"/>
<path d="M96.926 136.418C101.102 137.244 105.222 138.117 109.517 137.755C113.422 137.489 117.706 136.247 120.523 133.355C121.178 132.763 121.642 131.99 121.855 131.134C122.067 130.278 122.019 129.377 121.717 128.548C121.054 127.044 119.328 126.645 117.845 126.363C113.99 125.642 110.006 126.39 106.681 128.459C103.159 130.705 100.461 134.048 96.796 136.081C96.5227 136.235 96.7553 136.696 97.0355 136.567C100.052 135.237 102.376 132.673 104.877 130.618C107.603 128.27 111.049 126.917 114.65 126.781C116.416 126.663 118.188 126.934 119.838 127.576C121.897 128.515 121.61 131.019 120.363 132.527C117.922 135.506 113.732 136.8 110.058 137.181C105.65 137.648 101.31 136.893 96.9568 136.263C96.9411 136.254 96.9236 136.249 96.9057 136.248C96.8878 136.248 96.8699 136.251 96.8536 136.259C96.8373 136.266 96.823 136.277 96.8119 136.291C96.8008 136.305 96.7933 136.322 96.7898 136.339C96.7863 136.357 96.7871 136.375 96.792 136.392C96.7969 136.41 96.8058 136.425 96.818 136.438C96.8303 136.452 96.8454 136.462 96.8623 136.468C96.8791 136.474 96.8972 136.476 96.915 136.474L96.926 136.418Z" fill="#204B59"/>
<path d="M88.1988 139.18C90.9217 140.55 93.4023 142.354 95.5424 144.522C96.6179 145.694 97.5624 146.98 98.3592 148.356C99.1961 149.676 99.6741 151.19 99.7462 152.75C99.7045 154.657 97.7873 157.797 95.4765 156.786C94.1774 156.218 93.3739 154.547 92.8788 153.307C92.3629 151.91 91.9936 150.465 91.7768 148.992C91.2131 145.476 90.0899 142.071 88.4496 138.907C88.2953 138.634 87.8908 138.866 87.9739 139.148C88.5196 141.009 89.4479 142.751 90.0782 144.595C90.6142 146.341 91.0352 148.12 91.3386 149.921C91.6146 151.475 92.0938 152.985 92.7637 154.415C93.2668 155.687 94.2143 156.735 95.4313 157.366C97.588 158.161 99.5229 155.867 100.081 154.039C100.975 151.043 98.852 147.853 97.1145 145.64C94.8587 142.664 91.8375 140.352 88.3718 138.949C88.3405 138.939 88.3066 138.941 88.2764 138.954C88.2462 138.967 88.2217 138.99 88.2074 139.019C88.1931 139.049 88.19 139.083 88.1987 139.114C88.2073 139.146 88.2271 139.173 88.2545 139.191L88.1988 139.18Z" fill="#204B59"/>
<path d="M67.4949 134.174C70.6624 136.248 73.1694 139.182 74.7198 142.63C76.3687 145.975 77.0674 149.705 76.7401 153.415C76.513 155.089 75.8649 157.488 74.2736 158.397C72.9668 159.154 71.5926 157.97 70.7888 157.004C69.9119 155.99 69.271 154.795 68.9121 153.505C68.5817 151.43 68.6976 149.31 69.252 147.284C70.1465 142.795 69.6555 138.139 67.8438 133.932C67.8138 133.883 67.768 133.846 67.7141 133.827C67.6601 133.808 67.6012 133.808 67.5473 133.827C67.4933 133.846 67.4476 133.883 67.4178 133.932C67.388 133.98 67.3759 134.038 67.3834 134.094C68.0867 136.382 68.5713 138.73 68.8308 141.108C68.9944 143.397 68.8507 145.697 68.4035 147.947C67.8784 149.986 67.8893 152.126 68.4353 154.161C68.8791 155.507 69.6047 156.744 70.5638 157.79C70.9437 158.29 71.4485 158.681 72.0277 158.926C72.6069 159.17 73.2401 159.258 73.8639 159.181C75.4209 158.797 76.3152 156.908 76.7746 155.522C78.0266 151.708 77.1138 147.373 75.6309 143.757C74.0686 139.702 71.249 136.249 67.5833 133.903C67.4161 133.812 67.2988 134.055 67.4526 134.154L67.4949 134.174Z" fill="#204B59"/>
<path d="M75.1721 130.166C77.2516 130.352 79.3437 130.349 81.4222 130.156C83.4566 130.024 85.4789 129.749 87.4743 129.334C90.9535 128.591 95.126 127.385 97.2658 124.289C97.7522 123.67 98.0852 122.946 98.2379 122.174C98.3905 121.402 98.3586 120.605 98.1446 119.848C97.8158 119.152 97.2766 118.578 96.6031 118.204C95.9296 117.831 95.1558 117.678 94.3908 117.767C90.6294 117.83 87.26 120.591 84.4432 122.722C82.7617 124.028 81.107 125.374 79.3317 126.569C78.4531 127.177 77.5363 127.728 76.5871 128.219C75.6335 128.711 74.6192 128.983 73.6859 129.549C73.6434 129.574 73.6111 129.614 73.5945 129.66C73.5778 129.707 73.5778 129.758 73.5944 129.805C73.611 129.851 73.6432 129.891 73.6856 129.917C73.728 129.942 73.778 129.953 73.8271 129.946C75.405 129.64 76.8995 129.004 78.2116 128.078C79.6697 127.182 81.0761 126.204 82.4241 125.15C85.1497 123.07 87.8122 120.665 90.9603 119.257C92.5365 118.542 94.6116 117.937 96.2741 118.716C97.9366 119.495 97.9071 121.808 97.0584 123.291C95.375 126.419 91.3186 127.74 88.0821 128.542C85.9914 129.05 83.8599 129.374 81.7121 129.509C79.5312 129.655 77.3451 129.534 75.1618 129.633C75.0921 129.628 75.0235 129.652 74.971 129.697C74.9186 129.743 74.8865 129.808 74.882 129.878C74.8775 129.947 74.9008 130.016 74.9468 130.068C74.9929 130.12 75.0579 130.152 75.1276 130.157L75.1721 130.166Z" fill="#204B59"/>
<path d="M58.8788 122.396C60.7206 123.348 62.8054 123.728 64.8646 123.488C66.9472 123.343 69.013 123.018 71.0387 122.517C73.1397 122.035 75.1909 121.359 77.1656 120.498C78.8866 119.77 80.3762 118.589 81.4748 117.081C82.1842 116.009 82.7855 114.432 82.1012 113.212C81.7968 112.775 81.3959 112.413 80.9294 112.155C80.463 111.897 79.9434 111.749 79.4108 111.722C76.2044 111.261 72.9468 112.521 70.2489 114.11C68.4684 115.208 66.7547 116.411 65.1166 117.71C64.2458 118.369 63.3639 119.025 62.4217 119.635C61.4796 120.245 60.2637 120.893 59.2819 121.645C59.0487 121.83 59.1633 122.245 59.5303 122.144C61.2485 121.409 62.8546 120.437 64.3016 119.257C65.6347 118.367 66.8294 117.299 68.1268 116.356C70.8283 114.398 73.922 112.621 77.3313 112.349C78.4233 112.204 79.5345 112.317 80.5752 112.679C80.8532 112.797 81.1027 112.973 81.3066 113.195C81.5105 113.417 81.6639 113.68 81.7566 113.967C81.8492 114.254 81.8789 114.557 81.8434 114.856C81.808 115.155 81.7083 115.442 81.5513 115.699C80.0646 119.179 75.5477 120.605 72.2294 121.587C68.0013 122.839 63.3228 123.737 59.1026 122.025C59.0542 122.011 59.0025 122.014 58.9563 122.034C58.9101 122.054 58.8725 122.09 58.8498 122.135C58.8272 122.18 58.8211 122.231 58.8325 122.28C58.8438 122.329 58.872 122.372 58.9122 122.403L58.8788 122.396Z" fill="#204B59"/>
<path d="M114.358 131.997C107.668 134.591 100.561 135.957 93.3813 136.029C86.2606 136.128 79.176 134.988 72.4453 132.661C65.7637 130.373 59.5676 126.862 54.1754 122.308C48.5596 117.531 44.0451 111.599 40.9419 104.921C37.2828 96.8599 35.2953 88.1458 35.0989 79.3024C35.0761 78.2479 35.0645 77.1955 35.0284 76.1499C35.0069 75.6149 34.1186 75.543 34.0689 76.087C33.8355 80.4994 34.1453 84.9242 34.9914 89.2624C35.7525 93.6819 36.9577 98.0142 38.5888 102.194C41.4008 109.393 45.7694 115.888 51.3835 121.214C56.648 126.113 62.811 129.954 69.5335 132.523C76.2721 135.125 83.4123 136.538 90.6341 136.697C97.8753 136.874 105.086 135.727 111.911 133.313C112.744 133 113.581 132.67 114.421 132.321C114.635 132.236 114.502 131.91 114.313 131.988L114.358 131.997Z" fill="#204B59"/>
<path d="M52.4945 94.0166C48.2756 91.9475 44.0655 89.8339 40.7007 86.6644C37.6614 83.914 35.6546 80.2112 35.013 76.1698C34.9224 75.5749 33.961 75.6386 34.0739 76.2379C34.3486 78.1845 34.9447 80.0726 35.838 81.8255C36.8594 83.7579 38.1996 85.5053 39.8023 86.9944C43.3702 90.3656 47.9941 92.3764 52.3751 94.3276C52.5756 94.3673 52.7174 94.1184 52.5279 94.0232L52.4945 94.0166Z" fill="#204B59"/>
<path d="M58.8215 111.458C54.0693 109.709 49.6939 107.074 45.9293 103.692C44.2342 102.299 42.6248 100.806 41.1098 99.2196C39.6397 97.5567 38.3378 95.7531 37.2228 93.8352C37.1685 93.7574 37.0881 93.7016 36.9961 93.6778C36.9041 93.654 36.8067 93.6639 36.7215 93.7057C36.6362 93.7475 36.5689 93.8183 36.5316 93.9054C36.4943 93.9925 36.4895 94.0901 36.5181 94.1805C37.4478 96.2311 38.7457 98.0951 40.3476 99.6804C41.9352 101.388 43.6475 102.977 45.4705 104.432C47.3862 106.039 49.4165 107.505 51.5451 108.819C53.8142 110.097 56.2476 111.059 58.7776 111.68C58.9335 111.711 58.9685 111.475 58.8259 111.436L58.8215 111.458Z" fill="#204B59"/>
<path d="M26.3975 114.691C29.2186 111.642 31.6302 108.24 33.5715 104.571C34.5364 102.769 35.3562 100.894 36.0231 98.963C36.3606 97.9863 36.6061 96.9803 36.7564 95.9579C36.9722 94.9688 36.9451 93.9421 36.6774 92.9652C36.6512 92.9048 36.6068 92.854 36.5504 92.8198C36.4939 92.7857 36.4283 92.7699 36.3625 92.7746C36.2967 92.7793 36.234 92.8044 36.1832 92.8463C36.1323 92.8882 36.0958 92.9448 36.0787 93.0084C35.95 94.0099 36.0818 95.0398 35.9287 96.0481C35.7819 96.9863 35.5565 97.9105 35.2548 98.811C34.5976 100.765 33.7884 102.666 32.8346 104.494C31.0309 108.094 28.8098 111.469 26.2168 114.551C26.1948 114.662 26.2886 114.773 26.364 114.684L26.3975 114.691Z" fill="#204B59"/>
<path d="M41.6964 130.525C43.2625 127.635 44.3986 124.532 45.0689 121.315C45.3434 119.888 45.4717 118.436 45.4516 116.983C45.501 115.443 45.2677 113.907 44.7631 112.45C44.6219 112.111 44.0189 112.176 44.0757 112.591C44.3625 113.977 44.5684 115.377 44.692 116.786C44.7469 118.311 44.6389 119.837 44.3701 121.338C43.7416 124.471 42.7501 127.52 41.4157 130.424C41.4005 130.458 41.3992 130.497 41.4119 130.532C41.4247 130.568 41.4506 130.597 41.4843 130.614C41.5179 130.631 41.5569 130.635 41.593 130.624C41.6292 130.613 41.6598 130.589 41.6787 130.556L41.6964 130.525Z" fill="#204B59"/>
<path d="M44.9213 118.32C45.2983 119.943 45.5681 121.588 45.7288 123.246C45.8395 124.895 45.7602 126.552 45.4924 128.184C45.2378 129.853 44.7638 131.482 44.0828 133.028C43.5753 134.347 42.6729 135.478 41.4982 136.267C40.0891 137.073 37.4413 137.415 36.4332 135.784C35.7335 134.642 36.2925 133.045 36.7659 131.939C37.4723 130.402 38.39 128.972 39.4925 127.689C41.8868 124.93 43.8246 121.808 45.2332 118.44C45.2443 118.391 45.2407 118.339 45.2231 118.292C45.2054 118.245 45.1744 118.204 45.1338 118.174C45.0932 118.144 45.0447 118.126 44.9943 118.123C44.9438 118.12 44.8936 118.131 44.8497 118.156C43.7877 119.781 43.009 121.611 42.0407 123.289C41.0122 124.881 39.8801 126.403 38.6516 127.846C37.5178 129.195 36.6238 130.727 36.008 132.377C35.7568 132.928 35.6189 133.524 35.6025 134.129C35.5861 134.734 35.6916 135.337 35.9126 135.901C36.8498 137.655 39.3118 137.727 40.9528 137.094C43.6813 136.11 44.8574 133.031 45.5073 130.448C45.995 128.482 46.2312 126.463 46.2105 124.437C46.2405 122.323 45.8967 120.22 45.1948 118.224C45.1411 118.087 44.8831 118.163 44.9279 118.287L44.9213 118.32Z" fill="#204B59"/>
<path d="M35.3472 99.3378C35.8533 103.754 34.8981 108.213 32.6271 112.035C30.7215 115.35 27.8038 118.87 24.0273 120.004C22.7974 120.372 20.875 120.672 20.1746 119.242C19.7755 118.121 19.7723 116.899 20.1656 115.778C20.4736 114.498 21.0815 113.309 21.9394 112.31C23.2483 111.029 24.7554 109.968 26.4028 109.165C30.4123 106.943 33.6512 103.561 35.6925 99.4638C35.8099 99.2216 35.4575 98.9557 35.2956 99.1891C34.0326 101.175 32.5835 103.036 30.9676 104.749C29.3857 106.337 27.5935 107.703 25.6407 108.807C23.9057 109.657 22.3601 110.846 21.0958 112.304C20.3067 113.377 19.7595 114.607 19.4915 115.91C19.1176 117.103 19.157 118.387 19.6034 119.555C19.885 120.061 20.3177 120.466 20.8412 120.714C21.3646 120.963 21.9525 121.042 22.5229 120.941C26.5508 120.641 29.8075 117.339 31.9605 114.176C34.8228 109.885 36.5272 104.544 35.6634 99.3772C35.6295 99.1975 35.3491 99.2112 35.3808 99.4021L35.3472 99.3378Z" fill="#204B59"/>
<path d="M43.3867 102.624C44.7893 104.61 46.3966 106.444 48.182 108.096C49.9024 109.794 51.7808 111.324 53.7919 112.667C56.3895 114.392 59.4849 115.824 62.6612 114.975C64.4317 114.506 66.2108 113.058 65.945 111.009C65.5615 108.21 62.1501 106.797 59.8132 106.035C57.0264 105.149 54.1339 104.68 51.2965 104.05C49.8514 103.747 48.4249 103.361 47.0243 102.893C46.3197 102.657 45.6286 102.381 44.9544 102.069C44.2655 101.704 43.5581 101.375 42.8351 101.084C42.6012 101.038 42.4082 101.253 42.5934 101.428C43.4453 102.178 44.4358 102.754 45.5092 103.124C46.5727 103.548 47.6611 103.906 48.7684 104.196C51.096 104.83 53.4676 105.241 55.8194 105.752C57.9383 106.146 60.001 106.799 61.961 107.694C63.1798 108.203 64.2185 109.063 64.9434 110.165C65.9296 111.906 64.7521 113.589 63.0532 114.222C60.3871 115.241 57.4685 114.202 55.1411 112.807C52.9064 111.455 50.8362 109.849 48.972 108.021C47.1154 106.235 45.5765 104.188 43.8199 102.306C43.61 102.08 43.257 102.402 43.4268 102.655L43.3867 102.624Z" fill="#204B59"/>
<path d="M38.7316 85.1561C39.2863 88.7275 42.6791 91.5218 45.3622 93.6333C46.9958 94.9183 48.7293 96.0715 50.5463 97.0819C52.2397 98.1191 54.1445 98.764 56.1202 98.9691C56.89 99.0645 57.6713 98.9914 58.4095 98.7548C59.1478 98.5182 59.8252 98.1238 60.3947 97.5991C60.7392 97.1333 60.9321 96.5732 60.9473 95.9943C60.9625 95.4154 60.7993 94.8457 60.4797 94.3619C58.8667 91.2273 55.2784 89.4214 52.0882 88.3519C50.1229 87.7536 48.1275 87.2588 46.1102 86.8695C45.0636 86.6624 44.0169 86.4554 42.9966 86.1151C41.9763 85.7748 40.7242 85.3195 39.5594 85.066C39.4964 85.06 39.4332 85.0751 39.3799 85.109C39.3265 85.143 39.2861 85.1937 39.265 85.2532C39.244 85.3127 39.2434 85.3775 39.2635 85.4374C39.2836 85.4973 39.3232 85.5487 39.376 85.5836C40.9829 86.3566 42.6892 86.9038 44.4462 87.2096C46.0053 87.5757 47.5974 87.8329 49.1588 88.2456C52.4729 89.0395 55.8948 90.2241 58.3608 92.6735C59.24 93.5513 60.3562 94.8106 60.3486 96.136C60.3354 97.8989 58.0661 98.3155 56.6927 98.2977C54.8881 98.2019 53.1283 97.6999 51.545 96.8294C49.8068 95.9586 48.1413 94.9501 46.5647 93.8135C43.3846 91.5229 40.4018 88.879 39.141 85.0756C39.0692 84.8537 38.6976 84.9186 38.7316 85.1561V85.1561Z" fill="#204B59"/>
<path d="M143.552 105.364C128.03 107.597 112.225 106.869 96.9762 103.219C89.6796 101.464 82.602 98.9014 75.8746 95.5783C69.2235 92.2554 63.1654 87.8613 57.943 82.572C52.0208 76.6031 47.0981 69.7679 42.0959 63.0351C41.7428 62.5741 40.9148 63.0092 41.2763 63.5033C45.5175 69.8207 50.1977 75.8323 55.2825 81.4936C60.3657 87.0202 66.3201 91.6779 72.9096 95.282C86.5236 102.577 101.881 106.363 117.232 107.286C126.061 107.846 134.926 107.309 143.623 105.686C143.832 105.632 143.745 105.338 143.541 105.367L143.552 105.364Z" fill="#204B59"/>
<path d="M143.366 105.646C145.375 106.182 147.429 106.527 149.503 106.678C150.499 106.722 151.496 106.644 152.473 106.445C153.449 106.321 154.373 105.935 155.146 105.326C155.374 105.147 155.556 104.917 155.678 104.655C155.8 104.392 155.858 104.104 155.847 103.815C155.835 103.526 155.756 103.243 155.614 102.991C155.473 102.738 155.273 102.523 155.032 102.363C153.583 101.291 151.961 101.789 150.463 102.36C149.29 102.778 148.154 103.292 147.014 103.796C145.875 104.299 144.503 104.768 143.293 105.36C143.028 105.427 143.229 105.798 143.469 105.772C144.377 105.601 145.258 105.308 146.088 104.901C146.991 104.529 147.869 104.105 148.763 103.7C149.68 103.276 150.62 102.906 151.579 102.591C152.275 102.308 153.035 102.227 153.774 102.357C155.026 102.658 155.916 103.838 154.84 104.911C154.106 105.51 153.216 105.885 152.275 105.991C151.369 106.161 150.449 106.239 149.528 106.226C147.486 106.112 145.456 105.848 143.453 105.436C143.321 105.47 143.225 105.647 143.386 105.676L143.366 105.646Z" fill="#204B59"/>
<path d="M47.0893 88.4282C46.5258 85.869 46.3942 83.2336 46.6998 80.6307C46.836 79.3438 47.0835 78.0711 47.4396 76.8268C47.7746 75.5675 48.3451 74.4943 48.7577 73.3089C48.8446 73.052 48.4852 72.9329 48.3594 73.1294C47.721 74.2009 47.2547 75.3657 46.9774 76.5815C46.6173 77.8653 46.3681 79.1776 46.2328 80.5039C45.9547 83.1809 46.1703 85.8859 46.8689 88.4847C46.8764 88.5139 46.8951 88.539 46.9211 88.5543C46.9471 88.5697 46.9781 88.5741 47.0073 88.5666C47.0365 88.5591 47.0616 88.5403 47.0769 88.5144C47.0923 88.4884 47.0968 88.4574 47.0893 88.4282V88.4282Z" fill="#204B59"/>
<path d="M51.1039 75.5C53.3342 73.2055 56.2141 71.6484 59.3559 71.0382C61.8135 70.4084 64.7028 69.9965 67.0739 71.1372C68.6014 71.9192 71.6302 75.1679 69.2459 76.5418C67.4197 77.5731 64.9469 76.9981 63.0302 76.6679C61.1135 76.3378 58.8537 75.8608 56.7652 75.4103C54.8664 74.847 52.8556 74.7729 50.9201 75.1951C50.8769 75.2177 50.8425 75.2542 50.8226 75.2987C50.8028 75.3432 50.7985 75.3931 50.8106 75.4403C50.8227 75.4875 50.8504 75.5292 50.8893 75.5586C50.9281 75.5881 50.9758 75.6036 51.0245 75.6025C53.2106 75.406 55.4141 75.5961 57.5338 76.1639C59.6915 76.6552 61.8679 77.0362 64.0497 77.3924C65.889 77.6955 68.2887 78.031 69.9098 76.841C71.9814 75.3009 69.9197 72.2972 68.3739 71.2148C66.1075 69.5661 63.0403 69.7419 60.4276 70.2707C57.0791 70.9529 52.8125 72.2224 50.9734 75.3575C50.905 75.4571 51.0355 75.5997 51.148 75.4887L51.1039 75.5Z" fill="#204B59"/>
<path d="M66.062 74.1079C63.5202 73.3469 60.8563 73.0777 58.2131 73.3149C56.9595 73.419 55.7172 73.6314 54.5002 73.9496C53.2363 74.2132 52.0231 74.6787 50.9073 75.328C50.7177 75.4588 50.8218 75.8193 51.0146 75.7465C52.0969 75.387 53.203 74.8453 54.3517 74.5157C55.6519 74.1547 56.9839 73.9195 58.3291 73.8132C60.9013 73.5555 63.4984 73.7392 66.0082 74.3563C66.1492 74.4023 66.2086 74.1759 66.0704 74.1409L66.062 74.1079Z" fill="#204B59"/>
<path d="M60.3637 85.6008C61.9403 83.2897 64.1646 81.4949 66.7576 80.4418C68.8601 79.4805 71.3686 78.5912 73.6788 79.2195C75.1932 79.6293 78.4135 82.1131 76.2978 83.6645C74.7344 84.8045 72.4737 84.6446 70.6803 84.6583C68.887 84.672 67.0379 84.6061 65.2138 84.5456C63.4954 84.3661 61.7596 84.6331 60.1745 85.3207C60.1219 85.3342 60.0767 85.368 60.0491 85.4148C60.0214 85.4615 60.0134 85.5172 60.0269 85.5698C60.0404 85.6224 60.0742 85.6674 60.1209 85.6951C60.1676 85.7227 60.2234 85.7306 60.2761 85.7172C62.1012 85.2282 63.9946 85.0443 65.8796 85.1729C67.8252 85.2492 69.7511 85.2485 71.6906 85.2091C73.4204 85.1765 75.7241 85.1376 76.9909 83.7568C78.5814 82.0349 76.1841 79.6922 74.602 79.0181C72.3281 77.9815 69.6885 78.6345 67.4753 79.5303C64.6784 80.6695 61.1818 82.4692 60.0569 85.5034C60.0161 85.6195 60.2015 85.7011 60.2671 85.5904L60.3637 85.6008Z" fill="#204B59"/>
<path d="M73.2316 81.9629C70.8771 81.7041 68.4947 81.8926 66.21 82.5186C65.1053 82.8228 64.0285 83.2205 62.9913 83.7073C61.9374 84.1271 60.9621 84.7222 60.107 85.4674C60.0737 85.5068 60.0548 85.5563 60.0534 85.6078C60.0519 85.6593 60.0681 85.7097 60.0991 85.7509C60.1301 85.792 60.1742 85.8214 60.2241 85.8342C60.274 85.8471 60.3268 85.8426 60.3739 85.8215C61.3257 85.3194 62.1801 84.6662 63.1513 84.1943C64.2024 83.6802 65.2993 83.2655 66.4277 82.9557C68.6179 82.3195 70.9018 82.0677 73.1779 82.2114C73.3211 82.1747 73.3339 81.9954 73.1875 81.9742L73.2316 81.9629Z" fill="#204B59"/>
<path d="M88.4542 101.448C89.4113 99.4623 90.8903 97.7732 92.7333 96.5615C94.5607 95.26 96.7662 93.9672 99.1255 94.008C100.823 94.0307 102.962 95.2308 101.961 97.189C101.511 97.9575 100.779 98.5201 99.9197 98.7564C98.644 99.0712 97.3482 99.2975 96.0414 99.4336C94.6382 99.6406 93.2205 99.7458 91.8173 99.9529C90.5306 100.068 89.2937 100.507 88.2211 101.227C88.0151 101.385 88.3284 101.645 88.4742 101.572C91.2207 100.329 94.2667 100.299 97.1859 99.8208C99.1789 99.4861 101.821 99.3018 102.619 97.0553C103.244 95.3228 101.832 93.9832 100.287 93.5928C97.8012 93.0566 95.2943 94.2271 93.2903 95.5269C91.2863 96.8268 88.7508 98.8026 88.2522 101.348C88.2804 101.458 88.4134 101.565 88.4652 101.446L88.4542 101.448Z" fill="#204B59"/>
<path d="M99.38 96.4657C97.276 96.5399 95.2053 97.0148 93.2792 97.8649C92.309 98.2891 91.3784 98.7986 90.4984 99.3873C89.6177 99.9058 88.8352 100.575 88.1865 101.365C88.066 101.536 88.2965 101.794 88.4861 101.663C89.3023 101.09 89.9852 100.364 90.8153 99.7989C91.6165 99.2552 92.4598 98.7761 93.3372 98.3664C95.2358 97.4636 97.2794 96.9041 99.3731 96.7138C99.5164 96.6771 99.5345 96.473 99.3828 96.4767L99.38 96.4657Z" fill="#204B59"/>
<path d="M104.317 105.327C105.011 102.742 106.46 100.421 108.481 98.6628C110.371 96.8756 113.353 94.762 115.992 96.3505C116.385 96.5564 116.697 96.8907 116.874 97.298C117.051 97.7052 117.083 98.1608 116.965 98.5889C116.63 99.2772 116.073 99.8332 115.384 100.167C114.025 100.895 112.589 101.472 111.104 101.886C109.969 102.271 108.818 102.637 107.689 103.043C106.323 103.422 105.076 104.146 104.07 105.144C103.925 105.31 104.114 105.637 104.334 105.487C106.615 104.035 109.114 102.955 111.735 102.288C113.467 101.847 115.105 101.097 116.57 100.075C116.906 99.8528 117.181 99.5521 117.373 99.1989C117.565 98.8458 117.667 98.4511 117.671 98.0493C117.675 97.6475 117.58 97.251 117.394 96.8946C117.209 96.5382 116.939 96.2327 116.608 96.0049C114.247 94.263 111.289 95.69 109.32 97.2625C108.025 98.3061 106.874 99.5166 105.897 100.862C104.865 102.118 104.255 103.666 104.153 105.287C104.185 105.408 104.348 105.449 104.374 105.324L104.317 105.327Z" fill="#204B59"/>
<path d="M113.999 98.1994C111.942 98.7103 109.999 99.6063 108.275 100.84C107.456 101.431 106.686 102.088 105.972 102.803C105.199 103.5 104.548 104.321 104.046 105.233C103.959 105.443 104.17 105.717 104.398 105.506C105.042 104.813 105.559 104.035 106.181 103.301C106.919 102.535 107.722 101.835 108.581 101.207C110.233 99.9795 112.081 99.0414 114.048 98.4334C114.191 98.3967 114.132 98.1655 113.988 98.2022L113.999 98.1994Z" fill="#204B59"/>
<path d="M118.751 106.886C119.318 104.777 120.452 102.863 122.03 101.351C123.61 99.7727 125.753 98.0502 128.14 98.248C128.566 98.25 128.986 98.3405 129.374 98.5138C129.762 98.687 130.11 98.9393 130.395 99.2543C130.915 100.048 130.4 101.06 129.829 101.629C128.556 102.894 126.583 103.306 124.916 103.768C123.869 104.036 122.848 104.404 121.823 104.76C120.551 105.102 119.39 105.772 118.457 106.703C118.315 106.88 118.501 107.196 118.721 107.046C120.893 105.652 123.287 104.641 125.801 104.058C127.542 103.611 129.735 102.956 130.746 101.312C130.983 100.977 131.125 100.584 131.156 100.175C131.188 99.7662 131.108 99.3565 130.926 98.9892C130.678 98.6538 130.365 98.3715 130.006 98.1592C129.647 97.9468 129.249 97.8087 128.836 97.7529C126.463 97.2463 124.329 98.4973 122.574 100.038C120.82 101.579 118.451 104.205 118.453 106.868C118.484 106.989 118.647 107.03 118.674 106.905L118.751 106.886Z" fill="#204B59"/>
<path d="M127.661 100.318C125.736 100.789 123.921 101.629 122.317 102.791C121.536 103.355 120.805 103.986 120.134 104.676C119.452 105.298 118.886 106.035 118.461 106.854C118.374 107.064 118.684 107.219 118.834 107.075C119.435 106.44 119.875 105.635 120.498 105.041C121.164 104.321 121.896 103.666 122.686 103.084C124.203 101.949 125.903 101.081 127.712 100.517C127.741 100.509 127.766 100.49 127.782 100.464C127.797 100.438 127.801 100.407 127.794 100.378C127.786 100.349 127.768 100.324 127.742 100.309C127.716 100.293 127.685 100.289 127.655 100.296L127.661 100.318Z" fill="#204B59"/>
<path d="M133.996 106.616C134.412 104.609 135.354 102.748 136.724 101.223C138.062 99.6127 140.006 97.5302 142.285 97.5328C144.043 97.5166 146.128 99.4228 144.855 101.146C143.582 102.868 141.374 102.824 139.645 103.314C138.592 103.648 137.56 104.042 136.553 104.494C135.447 104.899 134.466 105.583 133.703 106.48C133.544 106.685 133.862 106.873 134.038 106.734C136.068 105.196 138.409 104.119 140.899 103.579C142.651 103.13 145.137 102.658 145.752 100.658C146.302 98.8621 144.508 97.3152 142.892 97.0136C140.61 96.5891 138.447 98.5047 137.035 100.052C135.478 101.765 133.626 104.117 133.808 106.57C133.839 106.691 134.005 106.743 134.029 106.607L133.996 106.616Z" fill="#204B59"/>
<path d="M142.548 99.5661C140.688 100.131 138.953 101.045 137.437 102.261C136.664 102.868 135.949 103.546 135.302 104.286C134.638 104.952 134.098 105.731 133.706 106.585C133.695 106.632 133.699 106.681 133.718 106.726C133.737 106.77 133.77 106.808 133.812 106.833C133.853 106.857 133.902 106.868 133.95 106.863C133.999 106.858 134.044 106.838 134.08 106.806C134.658 106.129 135.087 105.374 135.654 104.654C136.261 103.948 136.926 103.294 137.643 102.701C139.116 101.45 140.795 100.464 142.604 99.7864C142.748 99.7496 142.688 99.5184 142.548 99.5661V99.5661Z" fill="#204B59"/>
<path d="M85.1042 100.429C84.1937 102.834 85.0574 105.745 85.9506 108.039C86.8923 110.512 88.4681 112.695 90.5201 114.367C92.0031 115.571 94.2799 115.656 95.168 113.668C96.2578 111.23 93.8773 109.411 92.3813 107.882C89.9835 105.445 87.1682 103.35 85.4018 100.353C85.3793 100.31 85.3428 100.276 85.2982 100.256C85.2537 100.236 85.2038 100.232 85.1565 100.244C85.1093 100.256 85.0675 100.284 85.038 100.322C85.0085 100.361 84.993 100.409 84.994 100.458C85.7407 102.684 87.8246 104.262 89.4861 105.796C90.5067 106.707 91.4727 107.727 92.4523 108.708C93.4319 109.689 94.4709 110.444 94.7646 111.636C94.8942 112.086 94.8927 112.564 94.7604 113.014C94.6281 113.463 94.3705 113.866 94.0176 114.174C93.6156 114.473 93.1262 114.631 92.6252 114.624C92.1243 114.617 91.6399 114.444 91.2472 114.133C89.2362 112.683 87.6648 110.706 86.7061 108.421C85.484 105.936 84.999 103.153 85.3083 100.401C85.3161 100.37 85.3118 100.339 85.2961 100.312C85.2804 100.285 85.2547 100.266 85.2247 100.258C85.1946 100.25 85.1627 100.254 85.1359 100.27C85.109 100.286 85.0895 100.311 85.0817 100.341L85.1042 100.429Z" fill="#204B59"/>
<path d="M91.1044 110.919C89.6678 109.522 88.4611 107.907 87.5287 106.133C87.0502 105.23 86.6444 104.29 86.3152 103.322C85.9954 102.395 85.827 101.417 85.4741 100.499C85.4318 100.334 85.1752 100.341 85.1765 100.575C85.2035 101.58 85.414 102.572 85.7975 103.502C86.1344 104.486 86.5591 105.437 87.0664 106.345C88.0909 108.155 89.4382 109.763 91.0419 111.088C91.1167 111.151 91.2292 111.04 91.1515 110.966L91.1044 110.919Z" fill="#204B59"/>
<path d="M101.898 105.009C100.952 107.504 101.913 110.52 102.848 112.886C103.783 115.251 105.031 117.83 107.26 119.148C107.99 119.65 108.887 119.848 109.761 119.701C110.635 119.553 111.418 119.072 111.943 118.358C113.285 116.172 110.891 114.251 109.558 112.856C108.226 111.461 106.955 110.261 105.599 109.001C104.277 107.815 103.134 106.444 102.207 104.93C102.184 104.887 102.148 104.852 102.103 104.833C102.059 104.813 102.009 104.808 101.961 104.821C101.914 104.833 101.872 104.86 101.843 104.899C101.813 104.938 101.798 104.986 101.799 105.034C102.582 107.357 104.801 108.959 106.535 110.591C107.645 111.621 108.685 112.704 109.704 113.792C110.648 114.501 111.345 115.488 111.696 116.615C112.014 118.727 109.56 119.509 107.948 118.854C105.829 117.966 104.512 115.393 103.618 113.322C102.354 110.766 101.837 107.905 102.125 105.068C102.132 105.038 102.128 105.006 102.112 104.979C102.097 104.953 102.071 104.933 102.041 104.925C102.011 104.918 101.979 104.922 101.952 104.938C101.925 104.953 101.906 104.979 101.898 105.009V105.009Z" fill="#204B59"/>
<path d="M108.974 115.986C107.361 114.465 105.95 112.745 104.773 110.866C104.202 109.972 103.706 109.031 103.289 108.055C102.867 107.048 102.654 105.941 102.182 104.971C102.158 104.935 102.125 104.908 102.085 104.893C102.045 104.878 102.002 104.875 101.961 104.886C101.919 104.896 101.882 104.919 101.855 104.952C101.828 104.984 101.811 105.025 101.807 105.067C101.902 106.103 102.197 107.112 102.674 108.037C103.13 109.116 103.683 110.153 104.325 111.134C105.589 112.997 107.12 114.665 108.87 116.083C108.962 116.165 109.113 116.021 109.01 115.941L108.974 115.986Z" fill="#204B59"/>
<path d="M116.127 107.006C115.658 109.391 117.066 111.952 118.316 113.897C119.349 115.818 120.979 117.352 122.96 118.269C124.447 118.803 126.916 118.675 127.263 116.732C127.626 114.526 125.05 113.227 123.579 112.208C121.141 110.485 118.429 109.115 116.422 106.872C116.258 106.691 115.992 106.982 116.089 107.133C117.046 108.942 119.165 109.971 120.807 111.017C121.826 111.647 122.804 112.347 123.791 113.033C124.829 113.577 125.73 114.349 126.425 115.292C126.636 115.603 126.744 115.973 126.733 116.348C126.722 116.724 126.592 117.087 126.362 117.385C125.998 117.682 125.566 117.883 125.104 117.971C124.643 118.058 124.166 118.029 123.719 117.886C121.705 117.452 120.219 115.685 119.111 114.068C117.561 112.025 116.619 109.587 116.392 107.032C116.361 106.911 116.184 106.862 116.16 106.998L116.127 107.006Z" fill="#204B59"/>
<path d="M123.807 115.341C122.268 114.383 120.872 113.212 119.662 111.862C118.498 110.458 117.425 108.981 116.45 107.44C116.423 107.413 116.389 107.395 116.351 107.39C116.313 107.385 116.275 107.392 116.242 107.412C116.209 107.431 116.183 107.461 116.169 107.496C116.155 107.531 116.153 107.57 116.164 107.607C116.953 109.304 118.026 110.855 119.336 112.192C120.564 113.558 122.046 114.673 123.7 115.474C123.708 115.479 123.717 115.482 123.727 115.483C123.736 115.485 123.746 115.484 123.755 115.482C123.764 115.479 123.773 115.475 123.78 115.47C123.788 115.464 123.794 115.457 123.799 115.449C123.804 115.44 123.807 115.431 123.809 115.422C123.81 115.413 123.81 115.403 123.807 115.394C123.805 115.385 123.801 115.376 123.795 115.368C123.789 115.361 123.782 115.354 123.774 115.349L123.807 115.341Z" fill="#204B59"/>
<path d="M131.672 106.848C131.531 109.231 133.16 111.466 134.577 113.144C135.994 114.823 137.673 116.517 139.82 117.011C141.381 117.374 144.129 116.916 144.125 114.84C144.074 114.376 143.916 113.93 143.665 113.536C143.413 113.143 143.074 112.813 142.675 112.571C141.572 111.876 140.415 111.27 139.215 110.759C136.714 109.475 134.06 108.56 131.919 106.761C131.753 106.616 131.426 106.806 131.584 107.011C132.722 108.609 134.779 109.349 136.491 110.119C137.565 110.595 138.605 111.126 139.646 111.658C140.659 112.091 141.624 112.63 142.524 113.267C143.367 113.943 144.044 115.118 143.064 116.015C142.318 116.57 141.384 116.809 140.463 116.682C138.426 116.476 136.714 114.885 135.412 113.423C133.656 111.616 132.435 109.358 131.884 106.899C131.851 106.767 131.66 106.804 131.664 106.956L131.672 106.848Z" fill="#204B59"/>
<path d="M140.871 114.147C139.055 113.501 137.357 112.561 135.847 111.363C135.134 110.803 134.462 110.19 133.839 109.531C133.203 108.837 132.702 108.027 132.099 107.325C131.933 107.133 131.703 107.426 131.775 107.572C132.209 108.443 132.785 109.235 133.48 109.916C134.133 110.634 134.855 111.286 135.635 111.863C137.198 113.031 138.969 113.891 140.853 114.398C140.98 114.436 141.026 114.249 140.907 114.197L140.871 114.147Z" fill="#204B59"/>
<path d="M153.16 103.488C151.663 104.106 150.086 104.51 148.477 104.688C147.641 104.82 146.787 104.922 145.934 104.988C145.166 105.015 144.399 105.082 143.637 105.189C143.516 105.22 143.501 105.436 143.636 105.46C144.446 105.548 145.264 105.539 146.072 105.434C146.899 105.362 147.729 105.255 148.54 105.118C150.18 104.905 151.783 104.467 153.303 103.815C153.531 103.698 153.339 103.36 153.111 103.477L153.16 103.488Z" fill="#204B59"/>
</svg>
