<svg width="135" height="136" viewBox="0 0 135 136" fill="none" xmlns="http://www.w3.org/2000/svg">
<path d="M100.468 91.7439C99.034 90.6782 98.0727 89.1036 96.6929 88.0069C95.2514 86.9366 93.6603 86.0852 91.9709 85.4801C89.0783 84.4995 86.0363 84.0365 82.9841 84.1122C81.9839 84.003 80.9724 84.1504 80.045 84.5405C79.2699 84.9991 79.5267 85.8263 80.1534 86.2863C81.2004 86.9267 82.3655 87.3491 83.5789 87.528C85.2675 87.9159 86.9761 88.2103 88.6969 88.4098C92.7247 88.8841 97.0413 89.3409 100.226 92.0955C100.472 92.3187 100.858 91.8778 100.611 91.6545C98.2515 89.5424 95.1793 88.7046 92.1171 88.2182C88.9625 87.8738 85.829 87.3563 82.7307 86.668C82.3157 86.5594 79.8273 85.9175 80.2182 85.1522C80.3576 84.8919 80.9004 84.8334 81.1524 84.7829C81.6881 84.6957 82.2307 84.6578 82.7733 84.6696C85.5666 84.563 88.3591 84.9062 91.0442 85.6863C92.911 86.2692 94.6732 87.1464 96.2647 88.2847C97.753 89.3698 98.8191 90.9638 100.381 91.9129C100.408 91.9239 100.439 91.9252 100.467 91.9164C100.495 91.9077 100.52 91.8895 100.536 91.8648C100.552 91.8402 100.56 91.8107 100.557 91.7812C100.554 91.7518 100.541 91.7242 100.52 91.7031L100.468 91.7439Z" fill="#204B59"/>
<path d="M100.296 91.9401C102.023 93.7649 104.457 93.9835 106.784 94.476C108.058 94.7454 109.337 95.0343 110.591 95.4087C111.928 95.8372 113.211 96.4166 114.417 97.1357C114.634 97.2638 114.921 96.9841 114.713 96.8035C112.862 95.0642 110.044 94.5894 107.649 94.0601C105.253 93.5307 102.438 93.5201 100.501 91.7574C100.379 91.6507 100.181 91.8216 100.296 91.9401V91.9401Z" fill="#204B59"/>
<path d="M94.2326 91.8238C96.1111 91.9181 97.9629 92.3101 99.7192 92.9851C100.548 93.3125 101.397 93.5841 102.262 93.7979C102.675 93.8874 103.093 93.9553 103.513 94.0014C103.884 94.0918 104.271 94.087 104.639 93.9874C104.666 93.9739 104.689 93.9534 104.706 93.9281C104.722 93.9027 104.731 93.8734 104.733 93.8432C104.734 93.813 104.727 93.7831 104.712 93.7565C104.698 93.7299 104.677 93.7077 104.651 93.6922C104.294 93.5647 103.916 93.5068 103.538 93.5217C103.076 93.483 102.628 93.4113 102.17 93.3416C101.256 93.1738 100.36 92.9172 99.4958 92.5754C97.8185 91.928 96.026 91.6344 94.2305 91.7131C94.2177 91.7157 94.2064 91.7233 94.1991 91.7342C94.1919 91.7451 94.1892 91.7585 94.1918 91.7714C94.1944 91.7843 94.202 91.7956 94.2129 91.8029C94.2238 91.8101 94.2372 91.8128 94.25 91.8102L94.2326 91.8238Z" fill="#204B59"/>
<path d="M95.8069 91.73C89.1648 90.74 81.8232 88.3249 75.3926 91.3528C74.472 91.7901 71.3516 93.1234 72.024 94.6651C72.5448 95.803 74.0821 95.5247 75.032 95.2835C77.0655 94.7643 79.1807 94.5014 81.2531 94.1258C83.6009 93.7152 85.9252 93.1881 88.2846 92.7853C90.7561 92.3684 93.2496 92.0939 95.7528 91.9631C95.795 91.9559 95.8334 91.9344 95.8617 91.9023C95.8901 91.8702 95.9066 91.8294 95.9086 91.7865C95.9106 91.7437 95.8979 91.7015 95.8727 91.6669C95.8475 91.6322 95.8112 91.6073 95.7699 91.5961C91.9051 91.2809 87.9679 92.2125 84.2051 92.9576C82.2664 93.3467 80.2289 93.6951 78.2398 94.0337C77.3577 94.2107 76.4756 94.3373 75.6033 94.5629C74.9059 94.799 74.176 94.9251 73.4397 94.9365C73.0984 94.8939 72.534 94.6941 72.5491 94.2668C72.5641 93.8396 72.9091 93.6491 73.1222 93.4549C73.8699 92.843 74.6979 92.337 75.5832 91.9509C77.9004 90.89 80.432 90.3819 82.9791 90.4665C87.276 90.5232 91.4636 91.7937 95.7624 91.8602C95.8206 91.8485 95.8263 91.7766 95.7449 91.7728L95.8069 91.73Z" fill="#204B59"/>
<path d="M85.6871 97.7305C88.5087 96.7923 91.3977 96.0706 94.3291 95.5718C95.4651 95.4044 96.611 95.2855 97.7626 95.1453C99.1411 94.9797 100.516 94.7443 101.9 94.6078C102.889 94.5104 103.831 94.4829 104.799 94.4806C105.622 94.5518 106.449 94.558 107.273 94.4991C107.496 94.4544 107.488 94.1631 107.3 94.0796C106.596 93.8635 105.858 93.7853 105.126 93.8493C104.309 93.8515 103.489 93.8848 102.667 93.9589C101.18 94.0857 99.73 94.3969 98.2371 94.5955C95.8439 94.8437 93.467 95.2297 91.1182 95.7516C89.2427 96.2427 87.3964 96.8392 85.588 97.5383C85.4717 97.5617 85.5437 97.7694 85.629 97.7422L85.6871 97.7305Z" fill="#204B59"/>
<path d="M87.2512 96.9824C85.3589 97.2006 83.4881 97.5256 81.5939 97.6836C79.6996 97.8415 77.9739 97.8849 76.1553 98.0176C74.3485 98.1228 72.5618 98.4508 70.8356 98.9944C69.6614 99.2853 68.5528 99.7956 67.5679 100.499C67.0294 100.98 66.8208 101.8 67.5735 102.184C68.3374 102.455 69.1567 102.53 69.9568 102.403C71.6591 102.294 73.3517 102.136 75.0423 101.918C76.8926 101.738 78.7241 101.401 80.5171 100.91C81.9123 100.451 83.2541 99.8428 84.5193 99.0963C85.7538 98.4142 87.0193 97.736 88.1896 96.9355C88.3582 96.8208 88.1175 96.5762 87.9916 96.652C85.8907 97.6898 83.8831 98.8907 81.7181 99.81C78.8574 101.031 75.5613 101.288 72.5 101.61C71.3406 101.764 70.1735 101.853 69.0042 101.877C68.6259 101.91 68.2447 101.87 67.8814 101.759C67.2393 101.474 67.8127 100.914 68.2099 100.683C68.6666 100.408 69.1538 100.189 69.6616 100.028C70.2974 99.7791 70.9215 99.5226 71.5883 99.3281C73.1509 98.9016 74.7526 98.6343 76.3691 98.5302C80.0102 98.2337 83.7448 98.2518 87.2961 97.2562C87.3295 97.2495 87.3589 97.2298 87.3777 97.2014C87.3966 97.173 87.4034 97.1382 87.3967 97.1047C87.39 97.0712 87.3703 97.0418 87.3419 97.0229C87.3135 97.004 87.2788 96.9971 87.2454 97.0038L87.2512 96.9824Z" fill="#204B59"/>
<path d="M84.3022 52.2939C85.1551 53.9307 86.4342 55.2799 87.3045 56.9032C88.1642 58.6883 88.7256 60.6025 88.9661 62.5693C89.2977 64.5229 89.5827 66.3949 90.1081 68.259C90.6014 70.0759 91.244 71.849 92.0291 73.56C92.8865 75.5207 93.9374 77.3907 95.1662 79.1422C95.3739 79.4237 95.8816 79.0895 95.6894 78.7846C93.5293 75.5789 91.8654 72.0649 90.7539 68.3617C90.2717 66.487 89.8905 64.5877 89.6119 62.672C89.3669 60.8495 88.8507 59.0737 88.0806 57.4039C87.1054 55.5089 85.5314 54.0471 84.4475 52.1637C84.4347 52.1472 84.4165 52.1357 84.3961 52.1313C84.3756 52.1269 84.3543 52.1298 84.3358 52.1395C84.3173 52.1492 84.3029 52.1652 84.2949 52.1845C84.287 52.2039 84.2861 52.2254 84.2925 52.2454L84.3022 52.2939Z" fill="#204B59"/>
<path d="M71.0508 77.3564C75.0768 76.5556 79.1974 76.3409 83.2853 76.7189C85.3305 76.9103 87.3583 77.2562 89.3516 77.7538C91.3473 78.2522 93.2211 78.9973 95.1608 79.618C95.5603 79.7499 95.901 79.1361 95.4955 78.9246C93.6139 78.0474 91.6324 77.4038 89.5951 77.008C87.5668 76.5367 85.507 76.2142 83.432 76.0431C79.2574 75.6436 75.0457 75.9963 70.9962 77.0845C70.8315 77.1176 70.8763 77.3914 71.0508 77.3564Z" fill="#204B59"/>
<path d="M44.6147 54.7142C56.41 57.3975 67.7191 61.8982 78.138 68.0555C88.5683 74.2462 98.2224 81.6641 106.894 90.1511C109.446 92.569 111.872 95.1162 114.164 97.7826C115.328 99.1285 116.415 100.539 117.421 102.007C118.369 103.413 119.173 104.908 120.012 106.376C120.212 106.719 120.844 106.552 120.71 106.135C119.806 103.286 117.853 100.739 116.008 98.4325C113.986 95.9234 111.822 93.5316 109.529 91.2688C105.196 86.9655 100.636 82.8974 95.8696 79.0817C86.3239 71.3294 75.7225 64.9815 64.3865 60.2302C58.0319 57.606 51.4243 55.6456 44.6687 54.3802C44.5 54.3433 44.4382 54.6385 44.6069 54.6754L44.6147 54.7142Z" fill="#204B59"/>
<path d="M86.1932 54.9849C85.3769 53.5033 84.4641 52.0771 83.4608 50.7154C82.5073 49.3311 81.5113 47.9857 80.4358 46.6966C78.6925 44.6425 76.7161 42.1303 74.0568 41.2903C73.6049 41.1487 72.9998 41.048 72.8802 41.6578C72.8884 42.3625 73.1139 43.0475 73.5259 43.619C74.6316 45.4741 75.9894 47.1665 77.5602 48.6474C80.0043 51.2678 82.8644 53.4651 86.0247 55.1501C86.3972 55.348 86.7689 54.7886 86.3867 54.5926C83.8167 53.3003 81.4463 51.643 79.349 49.6721C78.2913 48.6723 77.2722 47.6143 76.2823 46.5504C75.6789 45.9306 75.124 45.2654 74.6224 44.5605C74.1933 43.9495 73.8201 43.3009 73.5075 42.6228C73.3581 42.3672 73.2758 42.0779 73.2681 41.782C73.3395 41.3838 73.84 41.6672 74.1038 41.7253C76.5536 42.577 78.3825 44.9068 80.0151 46.7608C81.1034 48.0353 82.1273 49.3636 83.0827 50.7408C84.0846 52.1659 84.9607 53.7172 86.0498 55.0743C86.0614 55.0921 86.0796 55.1045 86.1003 55.1089C86.121 55.1132 86.1426 55.1092 86.1604 55.0976C86.1781 55.086 86.1905 55.0678 86.1948 55.047C86.1992 55.0263 86.1951 55.0046 86.1835 54.9869L86.1932 54.9849Z" fill="#204B59"/>
<path d="M89.1594 58.157C89.8985 54.6048 88.8535 50.9057 87.6151 47.5989C86.1958 43.8436 84.2047 40.203 83.2487 36.2436C83.0207 35.1076 82.505 33.191 84.0208 32.705C85.5366 32.2189 86.6496 34.1974 87.2672 35.2148C89.3397 38.7078 89.7277 42.8014 89.9353 46.7999C89.9784 48.6798 89.8459 50.5594 89.5395 52.4144C89.1402 54.2788 88.8931 56.1728 88.8006 58.0775C88.8474 58.3106 89.1655 58.4386 89.2428 58.1706C89.6825 56.4276 90.0008 54.656 90.1954 52.8686C90.4925 51.0548 90.6469 49.2204 90.6572 47.3822C90.6169 45.3386 90.4269 43.3005 90.0888 41.2845C89.7674 39.1798 89.083 37.1469 88.0662 35.2767C87.3747 34.0418 86.4713 32.3545 84.9605 32.0114C84.4803 31.9033 83.9777 31.9639 83.537 32.1829C83.0963 32.4019 82.7442 32.7661 82.5399 33.2143C82.2962 33.7965 82.2353 34.4394 82.3653 35.0573C82.55 36.1442 82.8221 37.2144 83.179 38.2575C83.8364 40.2769 84.6818 42.2283 85.5369 44.1778C86.557 46.3762 87.426 48.6417 88.1381 50.9584C88.8013 53.2636 89.0551 55.6674 88.8878 58.06C88.9151 58.196 89.1207 58.2658 89.1516 58.1182L89.1594 58.157Z" fill="#204B59"/>
<path d="M89.2015 55.7548C88.5996 57.4654 88.4609 59.3054 88.7997 61.0877C88.9073 62.0762 89.0246 63.0627 89.2041 64.1074L89.5042 65.6026C89.5521 66.1035 89.6844 66.5926 89.8954 67.0493C89.9253 67.1015 89.9709 67.143 90.0256 67.1679C90.0804 67.1928 90.1416 67.1998 90.2005 67.188C90.2594 67.1762 90.3132 67.1461 90.3541 67.102C90.395 67.0579 90.421 67.002 90.4285 66.9423C90.4294 66.477 90.3603 66.0142 90.2235 65.5694L89.9234 64.0741C89.7285 63.1032 89.6113 62.2177 89.494 61.2817C89.3528 60.3798 89.2613 59.4709 89.2198 58.5591C89.2347 57.638 89.3482 56.7213 89.5584 55.8246C89.6047 55.6032 89.2867 55.5761 89.2015 55.7548V55.7548Z" fill="#204B59"/>
<path d="M95.5509 68.3484C97.062 65.0755 97.3858 61.1623 97.3474 57.655C97.2679 53.9451 96.8998 50.2468 96.2466 46.5938C96.0225 45.4772 96.0615 43.7119 97.0748 42.9328C97.3754 42.7517 97.7285 42.678 98.0764 42.7237C98.4244 42.7694 98.7467 42.9319 98.9908 43.1846C99.5968 43.7659 99.9949 44.5308 100.123 45.3611C100.556 47.0708 100.809 48.8209 100.879 50.5829C100.898 52.5942 100.709 54.6019 100.317 56.5742C99.9772 58.5193 99.4331 60.4229 98.6938 62.2532C97.9001 64.1045 96.8267 65.8223 95.5112 67.3463C95.3097 67.5988 95.7095 67.9327 95.9381 67.7151C98.6695 65.1468 100.011 61.2818 100.766 57.6558C101.22 55.6428 101.484 53.5913 101.553 51.5285C101.54 49.5718 101.317 47.6219 100.89 45.7124C100.591 44.2268 100.026 42.6637 98.472 42.1574C98.2077 42.065 97.9269 42.0298 97.6481 42.0541C97.3693 42.0784 97.0988 42.1618 96.8546 42.2986C96.6104 42.4355 96.3981 42.6227 96.2316 42.8479C96.0651 43.0732 95.9482 43.3313 95.8888 43.6051C95.3144 45.1143 95.6689 46.6794 95.8972 48.1689C96.2173 50.2156 96.4811 52.2838 96.6441 54.3519C96.8468 56.6614 96.8575 58.9836 96.6763 61.2946C96.4376 63.6589 95.9962 65.9981 95.357 68.2863C95.3471 68.3013 95.3408 68.3184 95.3385 68.3363C95.3363 68.3541 95.338 68.3722 95.3438 68.3893C95.3495 68.4063 95.359 68.4219 95.3716 68.4347C95.3842 68.4475 95.3995 68.4574 95.4164 68.4634C95.4333 68.4694 95.4514 68.4716 95.4693 68.4696C95.4871 68.4676 95.5043 68.4616 95.5195 68.452C95.5347 68.4425 95.5475 68.4296 95.557 68.4143C95.5665 68.399 95.5724 68.3818 95.5742 68.3639L95.5509 68.3484Z" fill="#204B59"/>
<path d="M95.7667 67.0627C95.099 68.1087 94.6815 69.2952 94.5466 70.5296C94.3238 71.802 94.2788 73.0994 94.4128 74.3845C94.5509 75.6344 94.8514 76.861 95.3065 78.0332C95.6608 79.271 96.3347 80.3935 97.2604 81.2873C97.4991 81.4717 97.7257 81.194 97.6459 80.9474C97.3988 80.4248 97.1125 79.9217 96.7893 79.4426C96.49 78.9112 96.2278 78.3597 96.0043 77.7922C95.5634 76.6572 95.2709 75.4699 95.134 74.26C95.0023 73.0725 95.0121 71.8736 95.1634 70.6886C95.2447 70.0419 95.3724 69.4019 95.5454 68.7737C95.7307 68.2455 95.8888 67.7081 96.0189 67.1636C95.9916 67.0276 95.8422 66.9869 95.7706 67.0821L95.7667 67.0627Z" fill="#204B59"/>
<path d="M71.6979 77.0143C69.0547 76.757 66.4099 76.7424 63.7631 76.6676C61.4183 76.5402 59.0675 76.58 56.7285 76.7866C55.4733 76.9338 54.2393 77.2255 53.0511 77.656C52.1691 77.9845 51.0043 78.5112 50.7319 79.5153C50.4595 80.5194 51.3758 81.5678 52.1868 82.0414C53.1016 82.4952 54.1243 82.6852 55.1404 82.5899C58.1153 82.3451 61.0356 81.65 63.8019 80.5283C66.5039 79.5718 69.132 78.4484 71.7835 77.3405C72.0161 77.2939 71.8819 76.8764 71.6997 76.923C69.579 77.5103 67.5673 78.4393 65.5165 79.1741C62.8251 80.2719 60.0381 81.1187 57.191 81.7036C55.4075 82.0616 52.2453 82.4336 51.3803 80.2336C50.9837 79.2123 52.2085 78.5826 52.9974 78.2425C54.1375 77.7816 55.3325 77.4705 56.5526 77.3168C58.8422 77.0639 61.1487 76.9962 63.4494 77.1144C66.2261 77.1833 68.9971 77.3241 71.764 77.193C71.7938 77.195 71.8232 77.1851 71.8457 77.1654C71.8683 77.1458 71.8821 77.1179 71.8841 77.088C71.8861 77.0582 71.8762 77.0287 71.8565 77.0061C71.8369 76.9836 71.8091 76.9697 71.7793 76.9677L71.6979 77.0143Z" fill="#204B59"/>
<path d="M72.5138 74.5981C73.9018 75.1726 75.341 75.6142 76.8119 75.9171C78.2028 76.2794 79.6429 76.4133 81.0762 76.3137C81.2119 76.2865 81.1904 76.0787 81.0275 76.071C78.1373 75.9101 75.2905 75.2917 72.5929 74.2388C72.397 74.167 72.2965 74.47 72.4847 74.5535L72.5138 74.5981Z" fill="#204B59"/>
<path d="M74.1119 74.9237C72.48 73.9378 70.9015 72.8655 69.3834 71.7114C67.7932 70.5746 66.0375 69.6903 64.1784 69.0896C62.23 68.5131 60.24 68.0885 58.2263 67.8197C56.3765 67.3829 54.4578 67.3248 52.5855 67.6489C51.6162 67.8434 49.957 68.4189 49.8108 69.5997C49.7089 70.3979 50.5954 70.7957 51.2142 71.0149C52.2386 71.344 53.2962 71.5586 54.3676 71.6546L58.2655 72.0844C60.6701 72.3593 63.0902 72.6109 65.5008 72.9654C67.9472 73.3636 70.3715 73.8885 72.7639 74.5378C72.8135 74.5482 72.8651 74.5401 72.9091 74.515C72.9531 74.4899 72.9864 74.4496 73.0028 74.4017C73.0192 74.3537 73.0175 74.3014 72.9981 74.2546C72.9787 74.2078 72.9428 74.1696 72.8973 74.1474C71.1358 73.4724 69.3025 73.0032 67.4338 72.7491C65.5196 72.4061 63.5881 72.1776 61.6586 71.9589C58.8933 71.6452 56.1125 71.4559 53.4091 71.0491C52.4295 71.0077 51.4752 70.7238 50.6317 70.2228C49.5391 69.3512 51.7952 68.4337 52.4155 68.2587C54.1422 67.857 55.9364 67.8417 57.6702 68.2142C59.6015 68.4689 61.514 68.8509 63.3953 69.3579C65.4503 69.9308 67.392 70.853 69.1355 72.0844C70.6743 73.1694 72.1919 74.5011 74.0346 75.1413C74.1315 75.1218 74.2226 75.0228 74.1197 74.9626L74.1119 74.9237Z" fill="#204B59"/>
<path d="M75.3338 79.0017C77.7203 78.5833 80.0951 78.1067 82.509 77.8747C84.9803 77.6853 87.4609 77.6461 89.9372 77.7575C89.9828 77.7516 90.025 77.7299 90.0563 77.6962C90.0877 77.6625 90.1064 77.6189 90.1091 77.5729C90.1118 77.5268 90.0984 77.4813 90.0712 77.4441C90.044 77.4069 90.0047 77.3804 89.9601 77.3691C87.5257 77.1107 85.0714 77.1057 82.6364 77.3542C80.1365 77.5076 77.6656 77.973 75.2812 78.7395C75.1261 78.7707 75.1593 79.0367 75.3338 79.0017Z" fill="#204B59"/>
<path d="M77.1208 78.2086C75.1818 78.7494 73.2055 79.146 71.208 79.3954C69.2769 79.7376 67.3777 80.2404 65.5302 80.8986C63.6709 81.5838 61.8778 82.4372 60.1733 83.4484C58.9053 84.0391 57.7606 84.8652 56.8 85.8829C56.3313 86.5123 56.1772 87.5028 57.0908 87.784C57.9858 87.9295 58.9033 87.8257 59.743 87.484C62.6355 86.6002 65.3879 85.3098 67.9179 83.6515C69.2317 82.8121 70.5164 81.928 71.8613 81.1429C73.5809 80.1604 75.3574 79.2811 77.1812 78.5096C77.3363 78.4785 77.2449 78.1736 77.1228 78.2184C74.3188 79.1573 71.6594 80.4831 69.2214 82.1576C66.9974 83.6331 64.6495 84.912 62.2041 85.98C61.0931 86.4807 59.9337 86.8657 58.7441 87.129C58.1237 87.2535 56.5805 87.5026 57.2406 86.4207C57.608 85.8917 58.0876 85.4505 58.6451 85.1288C59.2517 84.7343 59.8718 84.3574 60.4919 83.9804C62.0174 83.0767 63.6161 82.3031 65.2711 81.6677C67.1936 80.927 69.1816 80.369 71.2087 80.0013C73.2619 79.7229 75.2772 79.2134 77.2161 78.4824C77.3906 78.4474 77.2875 78.1348 77.1557 78.1814L77.1208 78.2086Z" fill="#204B59"/>
<path d="M74.063 59.2073C74.8761 61.4867 75.9205 63.6767 77.1797 65.7429C77.7415 66.5893 78.3924 67.373 79.121 68.0804C79.7832 68.8514 80.6231 69.4491 81.5679 69.8215C81.7696 69.872 82.002 69.6233 81.8137 69.4389C81.4456 69.1512 81.0565 68.8917 80.6495 68.6625C80.1997 68.3426 79.7748 67.9889 79.3784 67.6045C78.6716 66.9052 78.032 66.1408 77.4682 65.3214C76.1873 63.3877 75.0994 61.3326 74.22 59.1858C74.1947 59.0596 73.9912 59.151 74.0261 59.2247L74.063 59.2073Z" fill="#204B59"/>
<path d="M74.9172 60.2983C73.2425 57.2716 71.1862 54.473 68.7991 51.9712C66.6688 49.6371 64.146 47.6956 61.3456 46.2352C60.4726 45.8044 57.7378 44.9393 58.5351 43.4359C59.3325 41.9325 61.815 42.4948 63.0195 42.9196C66.1444 44.0196 68.4276 47.0056 70.1134 49.7277C71.1201 51.3996 72.0145 53.1367 72.7906 54.9275C73.7183 56.8933 74.3522 58.985 74.6718 61.1354C74.7498 61.5238 75.3313 61.407 75.2825 61.0128C74.9893 59.037 74.4263 57.1108 73.6092 55.2884C72.8472 53.4721 71.9645 51.709 70.9669 50.0109C69.2461 47.1646 66.9356 44.0931 63.7988 42.7329C62.4258 42.0573 60.8534 41.9093 59.3794 42.317C58.2785 42.7096 57.6591 43.7935 58.3717 44.8322C58.7162 45.3003 59.1727 45.6741 59.6991 45.9193C60.5139 46.3113 61.3325 46.6722 62.1182 47.1205C63.737 48.0371 65.2533 49.1245 66.6413 50.364C68.2089 51.7953 69.6525 53.3572 70.9564 55.033C72.3154 56.7803 73.5194 58.6092 74.8145 60.3896C74.8321 60.477 74.9987 60.3526 74.956 60.2905L74.9172 60.2983Z" fill="#204B59"/>
<path d="M59.8284 52.8426C60.8348 53.6816 61.7949 54.5746 62.7047 55.5177C63.5965 56.5405 64.4085 57.6302 65.1337 58.7775C65.8378 59.8378 66.6597 60.8147 67.5836 61.6896C68.4139 62.5412 69.4001 63.2246 70.4883 63.7024C70.5105 63.7139 70.5347 63.7209 70.5596 63.723C70.5844 63.7251 70.6094 63.7223 70.6332 63.7147C70.6569 63.7071 70.679 63.6949 70.698 63.6788C70.7171 63.6627 70.7328 63.643 70.7442 63.6208C70.7556 63.5986 70.7626 63.5743 70.7647 63.5495C70.7668 63.5246 70.7639 63.4995 70.7564 63.4757C70.7488 63.4519 70.7366 63.4298 70.7205 63.4107C70.7044 63.3916 70.6847 63.3759 70.6625 63.3645C70.1968 63.0034 69.6594 62.7375 69.1782 62.3998C68.6273 62.0065 68.1081 61.5704 67.6257 61.0953C66.7143 60.1863 65.8932 59.1908 65.1738 58.123C64.4759 57.0528 63.6866 56.0453 62.8148 55.1118C61.922 54.2335 60.9757 53.4115 59.9814 52.6503C59.8514 52.5552 59.6713 52.7631 59.7936 52.8698L59.8284 52.8426Z" fill="#204B59"/>
<path d="M61.7221 54.0382C57.4327 49.8489 52.5601 46.12 46.3974 45.559C45.4433 45.4778 43.8824 45.5386 43.3308 46.5078C42.9785 47.1138 43.5529 47.6147 44.0167 47.9155C44.796 48.3677 45.6094 48.7583 46.4494 49.0837C48.0001 49.7401 49.5906 50.298 51.2113 50.7541C52.9278 51.2681 54.654 51.7297 56.3667 52.2748C58.0794 52.8199 59.8098 53.6039 61.5459 54.316C61.8078 54.4149 61.9838 54.0361 61.7607 53.8789C60.5905 53.1326 59.3235 52.5508 57.9953 52.1499C56.6414 51.6843 55.2469 51.3178 53.8641 50.959C51.1413 50.2586 48.4646 49.3891 45.8495 48.3557C45.1783 48.0763 44.2376 47.8106 43.7813 47.1951C43.4552 46.7758 43.8446 46.5057 44.2284 46.3075C44.8976 46.0152 45.6388 45.9298 46.3571 46.062C49.1566 46.3822 51.8588 47.2848 54.2903 48.712C56.827 50.3829 59.2555 52.2132 61.5613 54.1917C61.668 54.2712 61.823 54.1391 61.7162 54.0091L61.7221 54.0382Z" fill="#204B59"/>
<path d="M64.3972 65.0056C65.6583 65.2402 66.9004 65.5682 68.1133 65.9869C69.3062 66.404 70.4836 66.8949 71.7075 67.2149C72.9102 67.4873 74.1266 67.695 75.3515 67.837L77.2636 68.1198C77.9068 68.2958 78.5776 68.3464 79.2396 68.2687C79.4044 68.2356 79.4837 67.9773 79.3129 67.8803C78.7885 67.6625 78.228 67.5455 77.6606 67.5352C76.9876 67.448 76.307 67.3725 75.5972 67.3029C74.2229 67.1854 72.8587 66.9697 71.515 66.6576C70.3299 66.3298 69.1835 65.8933 68.0042 65.5442C66.8185 65.2003 65.6059 64.9571 64.3795 64.8172C64.2632 64.8406 64.2517 64.9843 64.4165 65.0017L64.3972 65.0056Z" fill="#204B59"/>
<path d="M66.6022 65.2399C65.8267 65.3955 64.9826 64.7064 64.3055 64.3979C63.6285 64.0893 62.839 63.7731 62.1077 63.4956C60.683 62.9725 59.2234 62.5499 57.7398 62.231C54.7776 61.485 51.7229 61.176 48.6721 61.3137C47.6477 61.3061 46.6503 61.6414 45.8382 62.2663C45.3229 62.7132 45.0638 63.4318 45.5626 63.9579C45.918 64.2739 46.3672 64.4641 46.841 64.4993C47.6546 64.626 48.4766 64.6906 49.2999 64.6926C50.8957 64.7056 52.4816 64.5691 54.0813 64.5511C55.8729 64.5349 57.6803 64.6974 59.4778 64.8113C61.2754 64.9252 63.2825 65.1789 65.1906 65.2404C65.3941 65.1995 65.4947 64.8966 65.2619 64.8423C63.834 64.5883 62.3891 64.4428 60.9394 64.4069C59.4289 64.3161 57.8834 64.2526 56.4135 64.1638C53.5882 64.0036 50.781 64.4357 47.9634 64.2639C47.3003 64.2253 46.3347 64.2373 45.83 63.682C45.3253 63.1268 45.8484 62.7188 46.2533 62.4254C47.3238 61.8003 48.563 61.5269 49.7971 61.6435C51.2418 61.6504 52.6836 61.7765 54.1079 62.0206C55.51 62.224 56.9102 62.4682 58.2891 62.7571C59.7724 63.1004 61.23 63.547 62.6513 64.0936C63.3612 64.3652 64.0576 64.6699 64.7443 64.9764C65.0173 65.1612 65.3242 65.2898 65.6471 65.3551C65.97 65.4203 66.3026 65.4207 66.6256 65.3564C66.6934 65.3428 66.67 65.2263 66.6022 65.2399V65.2399Z" fill="#204B59"/>
<path d="M47.611 54.921C45.128 53.8537 42.5967 52.8972 40.1175 51.7989C37.7723 50.6977 35.3223 49.8359 32.8049 49.2264C30.3725 48.7263 27.8855 48.5464 25.407 48.6911C24.1955 48.7477 22.9879 48.8687 21.7892 49.0536C20.9784 49.1331 20.1902 49.3667 19.467 49.7419C19.2822 49.8188 19.119 49.9398 18.9916 50.0944C18.8643 50.249 18.7768 50.4325 18.7366 50.6289C18.6964 50.8253 18.7049 51.0285 18.7612 51.2209C18.8176 51.4133 18.9201 51.589 19.0598 51.7327C19.9591 52.5963 21.0847 53.1866 22.3055 53.4346C23.8099 53.7681 25.3474 53.9272 26.8879 53.9088C28.8483 53.9799 30.8106 54.0103 32.7651 54.0523C35.2704 54.1252 37.7776 54.2079 40.2695 54.4148C42.7613 54.6217 45.1175 54.9568 47.5106 55.3249C47.7395 55.3598 47.8166 54.9908 47.5936 54.9346C43.763 53.8348 39.6153 53.7178 35.6557 53.5833C32.051 53.4583 28.4309 53.5082 24.828 53.292C23.4097 53.2526 22.0146 52.9206 20.7299 52.3166C20.2139 52.0566 18.72 51.2453 19.3553 50.4916C19.8893 50.062 20.5391 49.8015 21.2218 49.7433C22.3126 49.5429 23.4157 49.4159 24.5235 49.3634C26.9468 49.1558 29.3863 49.2358 31.7912 49.6016C34.4408 50.1279 37.0191 50.9666 39.4721 52.1002C42.0677 53.325 44.7361 54.3883 47.4621 55.2842C47.4855 55.2921 47.5103 55.2953 47.535 55.2936C47.5596 55.2919 47.5837 55.2854 47.6058 55.2744C47.628 55.2634 47.6477 55.2481 47.664 55.2294C47.6802 55.2108 47.6926 55.1891 47.7005 55.1656C47.7084 55.1422 47.7115 55.1174 47.7098 55.0927C47.7081 55.068 47.7016 55.0438 47.6906 55.0217C47.6796 54.9995 47.6643 54.9797 47.6457 54.9634C47.6271 54.9471 47.6054 54.9347 47.582 54.9268L47.611 54.921Z" fill="#204B59"/>
<path d="M33.6244 40.7998C36.753 43.7272 39.1745 47.3016 42.1927 50.332C43.3519 51.53 44.6595 52.5744 46.0835 53.4398C47.4028 54.185 48.7996 54.9147 50.1924 55.5745C51.5957 56.3055 53.0657 56.9001 54.5822 57.3499C54.6418 57.3637 54.7044 57.3548 54.7579 57.325C54.8113 57.2952 54.8519 57.2466 54.8716 57.1886C54.8913 57.1306 54.8888 57.0673 54.8647 57.011C54.8405 56.9547 54.7963 56.9094 54.7407 56.8838C52.0812 55.6904 49.3868 54.5747 46.8356 53.1676C43.6034 51.3821 41.1573 48.4894 38.7521 45.6996C37.2323 43.8887 35.6047 42.1714 33.8781 40.557C33.7326 40.4347 33.5195 40.629 33.6553 40.7532L33.6244 40.7998Z" fill="#204B59"/>
<path d="M36.7719 43.6224C35.6155 41.8396 34.3558 40.1262 32.9993 38.491C31.7856 36.8505 30.4383 35.3134 28.9712 33.8957C26.884 31.876 24.2665 30.4921 21.4245 29.9056C20.5537 29.737 16.7835 28.9382 17.1635 30.8315C17.3775 31.477 17.8013 32.032 18.3672 32.408C18.978 32.9166 19.6153 33.3922 20.2766 33.8328C21.7443 34.7942 23.2666 35.6691 24.8359 36.4528C28.4084 38.1643 31.8891 40.0617 35.2638 42.1373C35.4501 42.2615 35.6088 41.9973 35.4497 41.8575C33.1208 39.8503 30.1277 38.6027 27.3885 37.2637C24.4477 35.9687 21.6411 34.3871 19.0092 32.5418C18.3941 32.0895 17.4744 31.4762 17.4328 30.6664C17.4072 30.2372 17.7541 30.0565 18.1341 29.9903C19.1467 29.8797 20.1713 29.9764 21.1456 30.2747C23.7833 30.8534 26.2284 32.1018 28.246 33.8998C29.7749 35.3203 31.1736 36.8751 32.4254 38.5456C33.7844 40.2929 34.9788 42.2248 36.5025 43.7875C36.6267 43.904 36.8515 43.7175 36.768 43.6029L36.7719 43.6224Z" fill="#204B59"/>
<path d="M36.005 38.3928C37.632 40.5712 38.4877 43.1266 39.5489 45.6003C39.998 46.721 40.5516 47.7969 41.2022 48.8137C41.5226 49.2857 41.8755 49.7346 42.2584 50.1572C42.5756 50.5955 42.9928 50.9516 43.4752 51.1958C43.5052 51.2076 43.5382 51.2099 43.5696 51.2024C43.601 51.1949 43.6294 51.178 43.6509 51.1539C43.6724 51.1298 43.686 51.0996 43.6899 51.0675C43.6938 51.0354 43.6878 51.0029 43.6727 50.9743C43.3276 50.5338 42.945 50.1239 42.5294 49.7493C42.122 49.3008 41.7495 48.8218 41.415 48.3165C40.7332 47.2584 40.1331 46.1498 39.6201 45.0002C38.6799 42.6577 37.4879 40.4246 36.065 38.3404C36.0494 38.2627 35.9002 38.3735 35.9643 38.4414L36.005 38.3928Z" fill="#204B59"/>
<path d="M36.7696 39.2392C35.6657 36.7034 34.0871 34.4648 32.7216 32.0824C31.6655 29.9542 30.0813 28.1331 28.1208 26.794C27.5007 26.3172 26.7396 26.0612 25.9581 26.0666C25.7842 26.1015 25.6189 26.1705 25.4717 26.2697C25.3246 26.3689 25.1985 26.4963 25.1008 26.6445C25.0031 26.7928 24.9356 26.9589 24.9023 27.1334C24.869 27.308 24.8706 27.4874 24.9068 27.6613C25.0537 28.1669 25.3126 28.6329 25.6644 29.0243C26.0483 29.5421 26.4639 30.0355 26.9088 30.5018C27.8083 31.4467 28.7588 32.3417 29.756 33.1827C30.9708 34.2115 32.1798 35.2112 33.3986 36.2594C34.6173 37.3077 35.5026 38.3522 36.5352 39.4277C36.7138 39.6141 37.0645 39.4022 36.9169 39.1693C35.7594 37.2704 33.782 35.7583 32.0995 34.4092C30.1698 32.9257 28.3665 31.2842 26.7081 29.5017C26.2208 28.9329 24.7048 27.2575 25.852 26.6434C26.509 26.2994 27.5122 26.9768 28.007 27.332C29.8181 28.633 31.2979 30.343 32.3262 32.3234C33.7189 34.6902 35.2704 36.9443 36.5759 39.3791C36.5893 39.4059 36.6127 39.4263 36.6411 39.4357C36.6695 39.4452 36.7004 39.443 36.7271 39.4296C36.7539 39.4162 36.7742 39.3927 36.7836 39.3643C36.793 39.3358 36.7908 39.3048 36.7774 39.2781L36.7696 39.2392Z" fill="#204B59"/>
<path d="M45.3914 59.3865C49.2765 58.3478 53.306 57.9553 57.319 58.2248C57.5536 58.2383 57.6502 57.8654 57.4058 57.8033C55.6636 57.4147 53.8662 57.3411 52.0985 57.5858C49.8015 57.8622 47.539 58.3738 45.3465 59.1127C45.172 59.1477 45.2285 59.4292 45.4011 59.3845L45.3914 59.3865Z" fill="#204B59"/>
<path d="M45.1466 59.274C42.1646 60.0659 39.3563 61.4071 36.8652 63.2289C34.2223 65.133 31.8278 67.2701 28.7518 68.4733C27.8137 68.8232 25.9335 69.5035 25.0021 68.7814C24.0706 68.0594 25.6069 66.7713 26.163 66.3263C28.5544 64.4753 31.2461 63.0502 34.1204 62.1132C37.7538 60.9532 41.4723 60.0786 45.2418 59.4973C45.426 59.4603 45.3637 59.2001 45.1853 59.2157C41.3929 59.6553 37.6574 60.493 34.0405 61.7151C31.0685 62.6127 28.2806 64.0342 25.8077 65.9128C25.1006 66.4588 24.064 67.2728 24.1329 68.2691C24.2017 69.2653 25.2472 69.6514 26.1431 69.6433C27.6244 69.5522 29.0661 69.1282 30.3611 68.4028C31.9071 67.5915 33.365 66.622 34.7113 65.5096C36.2372 64.2352 37.8493 63.068 39.5359 62.0161C41.3337 60.969 43.2298 60.1013 45.1972 59.4254C45.3038 59.404 45.2784 59.2273 45.1621 59.2507L45.1466 59.274Z" fill="#204B59"/>
<path d="M41.0601 59.8618C40.0246 59.7262 39.0065 59.678 37.969 59.5327C36.9315 59.3874 35.7698 59.1762 34.6857 58.9494C32.6958 58.5306 30.7253 58.0574 28.7221 57.8232C26.6516 57.5332 24.5447 57.6507 22.5196 58.1691C21.3662 58.5016 19.8619 58.8439 19.0271 59.7589C18.4421 60.3612 18.3847 61.1302 19.1916 61.4329C20.1618 61.7066 21.1783 61.7743 22.1759 61.6318C23.8802 61.5322 25.5806 61.3626 27.281 61.2436C29.1617 61.1186 31.0501 60.982 32.9289 60.8473C35.2613 60.662 37.6249 60.5815 39.9495 60.2564C39.9874 60.2471 40.0209 60.2249 40.0442 60.1937C40.0676 60.1624 40.0793 60.1239 40.0774 60.0849C40.0756 60.0458 40.0602 60.0087 40.0339 59.9797C40.0077 59.9508 39.9722 59.9319 39.9336 59.9262C38.0663 59.9172 36.1993 60.1101 34.3418 60.2506C32.6608 60.3658 30.974 60.5023 29.2969 60.6369C27.6198 60.7715 25.745 60.9256 23.9651 61.0505C22.9704 61.1189 21.9777 61.1969 21.0257 61.1759C20.6398 61.1624 18.8405 61.2407 19.1442 60.5435C19.491 60.0008 20.0257 59.6057 20.6458 59.434C21.2458 59.1981 21.8579 58.9943 22.4795 58.8236C24.4239 58.3004 26.4521 58.1644 28.4493 58.4234C30.5844 58.6615 32.6907 59.1579 34.793 59.5843C36.8511 60.1458 38.9926 60.335 41.1166 60.1433C41.1347 60.1331 41.1491 60.1173 41.1578 60.0983C41.1664 60.0794 41.1689 60.0582 41.1648 60.0377C41.1607 60.0173 41.1502 59.9986 41.1349 59.9845C41.1196 59.9703 41.1003 59.9613 41.0796 59.9589L41.0601 59.8618Z" fill="#204B59"/>
<path d="M110.74 45.8984C114.267 50.7831 116.673 56.3786 117.788 62.2858C118.909 68.2334 118.808 74.3403 117.491 80.2359C117.113 81.914 116.627 83.5653 116.034 85.1794C115.533 86.8029 114.822 88.3533 113.919 89.7916C113.747 90.0395 113.233 89.8867 113.355 89.5379C113.844 88.1545 114.556 86.8559 115.084 85.4758C115.611 84.0979 116.062 82.6924 116.437 81.2652C117.194 78.3828 117.64 75.4265 117.767 72.4466C118.061 66.5002 117.143 60.5501 115.069 54.9559C113.904 51.8042 112.367 48.8004 110.491 46.0082C110.394 45.8684 110.666 45.7219 110.726 45.8392L110.74 45.8984Z" fill="#204B59"/>
<path d="M115.972 83.3385C118.62 77.3389 122.087 71.6575 123.048 65.1022C123.881 59.2044 122.614 52.6493 118.876 47.8703C117.087 45.5901 114.512 43.7171 111.5 43.7732C108.488 43.8292 105.975 46.355 105.139 49.2193C103.304 55.2313 106.922 61.0046 110.155 65.7979C113.245 70.4126 116.544 75.6289 116.527 81.4004C116.511 82.09 116.431 82.7764 116.289 83.4509C116.275 83.4905 116.247 83.5239 116.211 83.5454C116.175 83.5669 116.133 83.5752 116.091 83.5688C116.05 83.5625 116.011 83.5419 115.983 83.5106C115.955 83.4793 115.939 83.4392 115.937 83.3973C116.081 80.3931 115.566 77.3906 114.427 74.5994C113.17 71.7097 111.615 68.9576 109.785 66.388C107.874 63.8031 106.297 60.9894 105.091 58.0137C104.047 55.3125 103.815 52.3703 104.422 49.5475C105.095 46.785 107.101 44.2113 109.941 43.4565C112.782 42.7017 115.595 43.8844 117.663 45.7405C119.937 47.9337 121.621 50.6622 122.557 53.6722C123.564 56.5666 124.013 59.6225 123.879 62.678C123.538 69.2792 120.482 75.201 117.567 81.0577C117.154 81.8836 116.746 82.7022 116.275 83.5232C116.154 83.7214 115.871 83.5384 115.965 83.334L115.972 83.3385Z" fill="#204B59"/>
<path d="M117.936 74.6753C117.359 73.9542 116.635 73.3643 115.811 72.9456C115.42 72.7069 115 72.5315 114.585 72.3487C114.364 72.2136 114.118 72.1344 113.879 72.0287C113.634 71.9521 113.401 71.8435 113.185 71.7058C113.148 71.6903 113.12 71.6612 113.105 71.6248C113.09 71.5883 113.09 71.5476 113.106 71.5115C113.121 71.4754 113.15 71.447 113.187 71.4324C113.223 71.4178 113.264 71.4182 113.3 71.4337C113.565 71.5082 113.819 71.6159 114.057 71.7542C114.263 71.8803 114.498 71.9432 114.718 72.0473C115.176 72.2493 115.623 72.475 116.058 72.7236C116.879 73.1548 117.562 73.8088 118.027 74.6097C118.078 74.6412 117.96 74.7198 117.973 74.6978L117.936 74.6753Z" fill="#204B59"/>
<path d="M117.735 73.2127C116.939 72.5209 116.084 71.9011 115.178 71.3607C114.737 71.0902 114.281 70.8455 113.812 70.628C113.353 70.4182 112.841 70.2773 112.388 70.0409C112.24 69.9509 112.346 69.7437 112.536 69.7987C113.039 69.9568 113.525 70.1685 113.983 70.4303C114.463 70.6728 114.935 70.93 115.392 71.2092C116.297 71.7594 117.137 72.4076 117.9 73.142C117.981 73.1915 117.859 73.3085 117.787 73.2443L117.735 73.2127Z" fill="#204B59"/>
<path d="M118.298 69.0032C117.421 68.3477 116.672 67.5177 115.805 66.8475C114.981 66.2274 114.127 65.6492 113.246 65.1151C111.542 63.9649 109.637 63.1445 107.631 62.6968C107.356 62.6498 107.48 62.2316 107.755 62.2786C109.815 62.7183 111.767 63.5668 113.495 64.7734C114.433 65.3503 115.336 65.9821 116.199 66.6653C117.067 67.2801 117.843 68.0148 118.504 68.8472C118.57 68.938 118.432 69.0651 118.34 68.9992L118.298 69.0032Z" fill="#204B59"/>
<path d="M118.03 67.6817C116.325 66.4096 114.721 65.038 112.893 63.933C112.015 63.3985 111.108 62.9123 110.176 62.4766C109.219 61.9234 108.165 61.5604 107.071 61.4078C106.855 61.3968 106.856 61.0454 107.08 61.0608C107.992 61.1952 108.876 61.4793 109.697 61.9018C110.755 62.3696 111.787 62.8949 112.788 63.4756C114.776 64.5364 116.583 65.9074 118.139 67.5366C118.206 67.5771 118.118 67.7047 118.063 67.6613L118.03 67.6817Z" fill="#204B59"/>
<path d="M117.675 64.2312C117.276 63.7365 116.92 63.2093 116.611 62.6553C116.195 62.0587 115.747 61.4857 115.267 60.9392C114.352 59.9004 113.33 58.9597 112.219 58.1327C111.15 57.314 109.997 56.6106 108.78 56.0341C108.124 55.7403 107.451 55.4846 106.766 55.2685C106.087 55.0358 105.365 54.9076 104.709 54.6383C104.569 54.5527 104.564 54.3282 104.754 54.333C105.453 54.4109 106.14 54.5795 106.797 54.8346C110.162 55.9702 113.168 57.9747 115.509 60.6432C115.952 61.1506 116.369 61.6807 116.758 62.2314C117.228 62.7906 117.593 63.4297 117.835 64.1176C117.846 64.145 117.846 64.1754 117.836 64.2029C117.826 64.2305 117.806 64.2534 117.78 64.2673C117.754 64.2812 117.724 64.2851 117.695 64.2784C117.667 64.2717 117.641 64.2547 117.624 64.2307L117.675 64.2312Z" fill="#204B59"/>
<path d="M117.369 62.292C114.371 57.7276 109.698 54.5149 104.361 53.3484C104.273 53.2944 104.274 53.1437 104.389 53.1537C107.059 53.3927 109.628 54.9096 111.822 56.3594C114.017 57.8091 116.314 59.7044 117.504 62.2032C117.507 62.219 117.505 62.2354 117.499 62.25C117.492 62.2647 117.481 62.277 117.467 62.2851C117.453 62.2933 117.437 62.2969 117.421 62.2955C117.405 62.2941 117.39 62.2877 117.378 62.2773L117.369 62.292Z" fill="#204B59"/>
<path d="M115.955 57.1386C114.749 55.0482 113.205 53.17 111.386 51.5804C110.475 50.7907 109.499 50.0804 108.467 49.4574C107.966 49.1512 107.471 48.8495 106.951 48.6228C106.431 48.3962 105.824 48.1465 105.307 47.8313C105.279 47.8123 105.258 47.7842 105.248 47.7516C105.238 47.719 105.24 47.6841 105.253 47.6528C105.266 47.6215 105.29 47.5958 105.32 47.58C105.35 47.5643 105.385 47.5595 105.418 47.5666C106.598 47.8735 107.717 48.3822 108.724 49.0701C109.763 49.7005 110.741 50.4255 111.646 51.2359C113.49 52.8809 114.987 54.8762 116.047 57.104C116.091 57.131 115.989 57.1995 115.97 57.1476L115.955 57.1386Z" fill="#204B59"/>
<path d="M114.291 52.4463C113.308 51.0823 112.175 49.833 110.911 48.7223C110.245 48.1651 109.542 47.6548 108.805 47.1952C108.067 46.7448 107.279 46.3752 106.587 45.9328C106.57 45.9148 106.56 45.892 106.558 45.8678C106.555 45.8436 106.561 45.8193 106.573 45.7985C106.586 45.7778 106.605 45.7618 106.628 45.7529C106.651 45.744 106.675 45.7427 106.699 45.7492C107.476 45.9943 108.217 46.3445 108.9 46.79C109.638 47.2502 110.338 47.7682 110.993 48.3391C112.339 49.4643 113.485 50.8073 114.383 52.3114C114.435 52.3429 114.307 52.4361 114.276 52.3871L114.291 52.4463Z" fill="#204B59"/>
<path d="M113.994 43.8537C114.805 46.9897 115.103 50.2333 114.878 53.4592C114.864 53.6319 114.593 53.6277 114.607 53.4551C114.842 50.2402 114.63 47.0063 113.979 43.8447L113.994 43.8537Z" fill="#204B59"/>
<path d="M116.68 45.493C117.507 49.1946 117.381 53.0406 116.312 56.6708C116.295 56.705 116.266 56.7322 116.231 56.7476C116.196 56.7629 116.157 56.7656 116.12 56.7551C116.083 56.7445 116.051 56.7215 116.029 56.6899C116.008 56.6583 115.998 56.6201 116.001 56.5821C116.44 54.7593 116.707 52.8989 116.799 51.0251C116.851 49.1872 116.775 47.3473 116.573 45.5185C116.57 45.5044 116.572 45.4895 116.58 45.4771C116.587 45.4647 116.599 45.4558 116.614 45.4524C116.628 45.4491 116.643 45.4514 116.655 45.459C116.668 45.4666 116.677 45.4788 116.68 45.493V45.493Z" fill="#204B59"/>
<path d="M120.633 49.6377C120.823 50.6876 120.823 51.7621 120.632 52.81C120.506 53.9622 120.349 55.1156 120.139 56.2566C119.932 57.4099 119.644 58.547 119.278 59.6598C119.108 60.1902 118.909 60.7109 118.681 61.2194C118.424 61.8076 118.01 62.3204 117.789 62.9312C117.771 62.9604 117.742 62.9812 117.709 62.9892C117.676 62.9972 117.64 62.9916 117.611 62.9737C117.582 62.9558 117.561 62.927 117.552 62.8937C117.544 62.8604 117.55 62.8253 117.567 62.7961C117.934 62.2764 118.223 61.7068 118.427 61.1046C118.65 60.6062 118.847 60.1015 119.021 59.5834C119.37 58.533 119.646 57.4594 119.847 56.3704C120.068 55.2457 120.211 54.1144 120.362 52.9875C120.562 51.8827 120.629 50.7575 120.563 49.6355C120.563 49.6355 120.595 49.5841 120.563 49.6355L120.633 49.6377Z" fill="#204B59"/>
<path d="M121.429 51.7855C121.537 56.2287 120.422 60.6105 118.206 64.4549C118.165 64.5015 118.108 64.532 118.046 64.541C117.984 64.5501 117.921 64.5371 117.867 64.5044C117.814 64.4717 117.773 64.4214 117.753 64.3621C117.733 64.3029 117.734 64.2385 117.756 64.1802C119.986 60.4221 121.219 56.1558 121.341 51.7817C121.367 51.7376 121.427 51.7234 121.429 51.7855V51.7855Z" fill="#204B59"/>
<path d="M123.565 60.9353C122.988 62.5187 122.208 64.0201 121.244 65.4022C120.518 66.5101 119.677 67.9713 118.374 68.4458C118.091 68.5449 117.908 68.0809 118.186 67.9581C119.483 67.3594 120.269 66.0055 121.029 64.858C121.899 63.5655 122.655 62.1935 123.466 60.8649C123.477 60.8474 123.494 60.8348 123.514 60.8301C123.534 60.8253 123.555 60.8286 123.573 60.8394C123.59 60.8501 123.603 60.8674 123.608 60.8874C123.613 60.9074 123.609 60.9284 123.599 60.946L123.565 60.9353Z" fill="#204B59"/>
<path d="M123.434 62.8095C122.747 64.2097 121.933 65.5438 121.002 66.7953C120.277 67.8542 119.309 68.7242 118.178 69.3329C117.988 69.4285 117.831 69.1212 118.019 69.0448C119.227 68.4786 120.25 67.5844 120.971 66.4642C121.836 65.2794 122.621 64.0259 123.367 62.769L123.427 62.805L123.434 62.8095Z" fill="#204B59"/>
<path d="M122.159 70.2109C121.703 71.0769 121.153 71.8897 120.518 72.6345C119.919 73.3981 119.154 74.016 118.281 74.4424C118.228 74.4605 118.171 74.4593 118.119 74.4391C118.068 74.4188 118.025 74.3809 117.998 74.332C117.972 74.2831 117.964 74.2266 117.976 74.1725C117.987 74.1184 118.018 74.0704 118.062 74.037C118.479 73.8029 118.881 73.5434 119.265 73.2602C119.625 72.9637 119.961 72.6402 120.271 72.2924C120.905 71.6016 121.46 70.842 122.069 70.1258C122.105 70.0671 122.199 70.1448 122.172 70.1889L122.159 70.2109Z" fill="#204B59"/>
<path d="M120.901 73.2511C120.24 74.2744 119.265 75.0569 118.121 75.4834C118.098 75.4923 118.073 75.4965 118.048 75.4957C118.023 75.495 117.998 75.4894 117.975 75.4791C117.953 75.4689 117.932 75.4543 117.915 75.4361C117.897 75.4179 117.884 75.3965 117.875 75.3732C117.866 75.3498 117.861 75.3249 117.862 75.2999C117.863 75.2749 117.868 75.2503 117.878 75.2275C117.888 75.2047 117.903 75.1842 117.921 75.167C117.939 75.1499 117.961 75.1365 117.984 75.1276C119.062 74.7117 120.024 74.0453 120.791 73.1836C120.802 73.1749 120.815 73.1698 120.829 73.169C120.843 73.1682 120.857 73.1717 120.869 73.1791C120.881 73.1864 120.891 73.1973 120.897 73.2102C120.902 73.223 120.904 73.2373 120.901 73.2511V73.2511Z" fill="#204B59"/>
</svg>
